<svg width="616" height="271" viewBox="0 0 616 271" fill="none" xmlns="http://www.w3.org/2000/svg">
<mask id="mask0_2_9" style="mask-type:luminance" maskUnits="userSpaceOnUse" x="0" y="0" width="616" height="271">
<path d="M0 0H616V271H0V0Z" fill="white"/>
</mask>
<g mask="url(#mask0_2_9)">
<path d="M595.119 270.135C594.991 269.988 592.558 269.611 589.72 269.286C586.876 268.968 583.607 268.576 582.441 268.414C575.525 267.475 523.929 268.111 516.865 269.226C513.643 269.736 495.209 269.02 491.812 268.251C490.653 267.992 483.36 267.305 475.615 266.729C467.864 266.152 458.67 265.443 455.186 265.147C451.701 264.852 444.199 264.482 438.517 264.334C419.442 263.839 413.673 263.632 404.708 263.115C399.802 262.834 392.616 262.576 388.741 262.546C384.872 262.509 380.538 262.265 379.116 261.999C377.694 261.733 368.082 261.282 357.749 260.994C347.423 260.706 336.012 260.366 332.393 260.233C328.78 260.1 322.545 259.908 318.542 259.804C310.332 259.598 310.009 259.509 308.762 257.188C308.263 256.265 306.996 254.838 305.938 254.018C304.879 253.191 303.794 251.846 303.531 251.025C303.262 250.198 302.642 249.222 302.156 248.845C298.8 246.266 291.52 231.76 289.411 223.424L288.298 219.042L279.59 219.958C274.798 220.461 263.724 221.695 254.982 222.7C246.233 223.705 238.771 224.4 238.394 224.237C238.017 224.082 234.444 224.533 230.447 225.235C226.457 225.944 222.089 226.654 220.741 226.816C195.365 229.913 142.461 237.967 107.533 244.049C101.11 245.173 94.6661 246.089 93.2102 246.089C91.7543 246.089 88.6673 246.458 86.3419 246.902C84.0166 247.353 81.4823 247.833 80.7071 247.966C79.932 248.106 77.7145 248.535 75.7733 248.919C73.8389 249.311 71.1698 249.776 69.8487 249.954C68.5276 250.139 66.8628 250.611 66.1551 251.018C63.3848 252.592 48.7114 254.831 43.3597 254.491C39.4774 254.247 37.7114 254.373 35.1434 255.082C33.3438 255.585 30.3916 256.294 28.5852 256.671C26.7788 257.048 24.3456 257.624 23.1863 257.957C17.3088 259.642 4.83948 258.097 1.77943 255.311C0.620116 254.255 0.0135001 204.706 0.990828 191.256C1.34132 186.431 1.29414 178.657 0.903206 175.745C0.269628 171.097 2.28495 167.321 5.39892 167.321C8.1624 167.321 8.06129 170.299 5.16301 174.504C3.73409 176.573 3.62625 177.932 4.76534 179.691C6.12012 181.79 6.24144 232.854 4.88666 231.937C4.28678 231.531 3.94303 233.075 3.93629 236.223C3.93629 237.827 3.71387 240.62 3.44426 242.438C2.78372 246.894 3.14095 248.276 5.4124 249.998C7.44794 251.55 8.14218 251.247 8.1624 248.801C8.16914 247.412 10.2047 246.658 11.519 247.559C12.6918 248.358 14.9835 248.291 17.747 247.375C19.0209 246.954 21.171 246.606 22.5325 246.606C23.9008 246.606 25.1342 246.392 25.2892 246.126C25.4443 245.845 28.3628 245.734 32.2384 245.867C39.1673 246.096 46.2378 245.173 58.6465 242.401C68.8781 240.118 82.6079 238.152 85.1152 238.61C86.8812 238.936 110.175 235.189 118.513 233.245C120.966 232.669 126.46 231.841 130.726 231.405C141.834 230.26 153.987 228.272 166.881 225.486C177.618 223.166 201.633 219.079 207.497 218.577C209.566 218.399 214.001 217.69 217.358 217.01C229.18 214.601 239.007 213.13 243.26 213.138C245.62 213.138 250.378 212.805 253.822 212.391C257.267 211.985 261.884 211.512 264.081 211.349C266.278 211.179 271.873 210.477 276.523 209.79C281.174 209.095 287.908 208.43 291.487 208.305C299.022 208.039 299.17 207.957 298.011 204.721C296.697 201.055 296.063 200.479 293.172 200.338C291.776 200.265 290.388 199.984 290.078 199.703C289.707 199.356 289.411 199.385 289.188 199.784C288.939 200.22 286.236 200.287 278.93 200.013C269.19 199.659 263.838 199.999 250.931 201.802C248.996 202.068 245.828 202.437 243.887 202.615C241.953 202.784 236.776 203.479 232.389 204.144C227.994 204.817 223.026 205.504 221.348 205.674C219.67 205.844 216.394 206.295 214.075 206.686C211.75 207.078 207.942 207.662 205.623 207.987C201.862 208.512 191.455 210.219 183.549 211.615C181.999 211.889 178.514 212.473 175.805 212.916C173.088 213.359 167.177 214.505 162.654 215.451C158.139 216.404 147.678 218.606 139.414 220.35C131.144 222.087 120.899 224.341 116.639 225.353C112.373 226.365 107.621 227.393 106.07 227.637C104.52 227.88 101.777 228.316 99.9639 228.605C98.1575 228.893 95.3064 229.58 93.6281 230.127C88.7819 231.723 67.894 237.155 64.2813 237.768C47.5251 240.583 41.459 241.116 40.0974 239.896C39.4504 239.32 38.345 238.448 37.6373 237.96C36.815 237.398 36.3432 236.63 36.3432 235.839C36.3432 234.664 36.3836 234.649 37.2194 235.477C41.5533 239.778 42.0791 237.288 39.228 226.011C36.6465 215.85 35.7231 211.519 34.9345 205.933C34.6311 203.812 34.193 201.1 33.9571 199.91C33.7145 198.727 33.5123 196.754 33.5055 195.535C33.5055 194.316 33.2899 192.32 33.027 191.101C32.5417 188.766 32.872 187.185 33.5662 188.544C33.7819 188.965 34.3952 192.409 34.9277 196.2C36.1275 204.698 37.7519 213.152 39.6256 220.601C40.4008 223.72 41.4724 228.065 41.9914 230.26C43.4945 236.593 43.6091 236.822 45.3683 236.822C50.356 236.822 67.8536 234.258 73.4345 232.706C75.3689 232.166 79.2782 231.125 82.1226 230.393C84.9602 229.654 88.027 228.863 88.9302 228.619C89.8334 228.375 92.4755 227.799 94.8009 227.326C97.1263 226.853 99.6606 226.269 100.436 226.018C101.211 225.774 104.17 224.969 107.007 224.237C109.852 223.506 113.761 222.449 115.695 221.887C117.63 221.326 123.339 219.803 128.374 218.495C133.409 217.187 140.702 215.081 144.57 213.81C148.446 212.539 152.248 211.32 153.023 211.105C153.798 210.884 156.656 209.967 159.365 209.066C162.075 208.164 165.775 206.96 167.582 206.391C169.388 205.822 173.196 204.573 176.034 203.612C186.582 200.058 187.917 199.673 194.381 198.225C198.007 197.412 202.132 196.407 203.534 195.993C209.27 194.294 224.213 189.431 228.264 187.938C233.487 186.017 234.074 185.869 250.223 182.47C258.143 180.807 261.857 180.955 272.762 183.371C275.923 184.066 284.45 184.539 285.548 184.081C286.074 183.859 285.784 183.431 284.443 182.433C283.446 181.687 281.983 180.541 281.194 179.876C279.064 178.102 275.593 176.551 274.029 176.684C273.275 176.743 272.149 176.44 271.536 176.004C267.741 173.299 244.959 173.499 234.222 176.321C221.382 179.699 218.612 180.615 209.647 184.495C205.017 186.505 208.319 185.921 219.481 182.773C225.54 181.058 233.77 178.738 237.754 177.607C246.058 175.265 246.947 175.169 247.749 176.588C248.167 177.319 248.848 177.615 250.102 177.615C254.631 177.615 252.225 178.568 237.08 182.765C231.135 184.413 224.691 186.224 222.757 186.785C217.594 188.3 214.601 188.633 214.945 187.657C215.268 186.719 213.887 186.63 211.48 187.428C210.577 187.731 208.784 188.182 207.497 188.426C203.958 189.106 197.05 190.806 193.875 191.781C192.325 192.254 190.215 192.845 189.184 193.096C187.31 193.547 181.385 195.262 176.034 196.91C173.095 197.811 170.426 198.594 159.83 201.632C150.947 204.181 151.014 204.159 147.624 205.341C145.945 205.925 143.303 206.753 141.753 207.174C140.203 207.603 137.46 208.438 135.646 209.036C133.84 209.635 129.196 210.891 125.32 211.837C117.947 213.633 116.268 214.069 109.353 216.005C107.028 216.655 103.651 217.557 101.838 218.008C97.5374 219.094 89.4559 221.488 80.7071 224.282C76.8383 225.516 72.5043 226.861 71.0821 227.274C63.4725 229.506 60.8977 230.386 60.0484 231.051C59.1452 231.76 59.1587 231.775 60.2843 231.464C60.9314 231.287 63.9914 230.666 67.0919 230.09C70.1924 229.514 75.2543 228.353 78.3413 227.511C85.6342 225.53 94.8278 223.306 101.608 221.88C104.574 221.252 107.405 220.505 107.897 220.224C108.389 219.944 113.249 218.473 118.702 216.966C124.148 215.451 130.403 213.655 132.6 212.975C134.79 212.288 140.601 210.536 145.507 209.073C157.141 205.607 161.765 204.174 168.047 202.09C182.781 197.205 193.019 193.88 195.756 193.096C196.531 192.875 198.87 192.047 200.959 191.249C204.875 189.756 208.339 189.756 205.145 191.249C202.947 192.284 189.447 197.205 186.832 197.929C185.537 198.284 181.311 199.755 177.442 201.188C169.482 204.129 168.067 204.602 163.12 205.925C158.341 207.211 151.911 209.095 141.281 212.325C136.374 213.818 130.457 215.554 128.138 216.175C125.813 216.796 119.787 218.466 114.752 219.877C109.717 221.296 104.224 222.767 102.545 223.143C100.867 223.528 98.3462 224.097 96.951 224.415C95.5558 224.725 93.5472 225.242 92.489 225.56C91.4308 225.878 89.4087 226.432 87.9865 226.787C86.5644 227.141 83.3965 228.013 80.943 228.723C78.4896 229.432 74.4725 230.4 72.019 230.873C69.5656 231.346 65.6563 232.181 63.3376 232.735C54.7169 234.797 48.3474 235.078 47.1207 233.452C44.7886 230.378 32.508 179.071 33.7684 177.689C34.5233 176.868 35.2647 179.662 39.7739 200.272C42.4633 212.583 47.451 230.452 48.5901 231.871C49.2439 232.684 55.0337 231.117 57.1299 229.558C58.2218 228.745 60.8033 227.511 62.8726 226.816C69.9228 224.429 87.6024 218.939 95.2727 216.744C97.0791 216.227 100.564 215.214 103.017 214.497C111.752 211.94 122.564 208.903 126.264 207.965C128.327 207.447 132.027 206.428 134.48 205.711C136.934 204.994 139.812 204.403 140.877 204.395C142.832 204.388 149.268 202.496 156.548 199.792C162.944 197.405 170.857 194.803 177.678 192.83C181.163 191.825 185.706 190.436 187.775 189.749C191.165 188.618 197.07 186.675 210.786 182.174C213.368 181.324 216.428 180.194 217.594 179.654C218.753 179.115 221.078 178.317 222.757 177.873C224.435 177.437 226.316 176.839 226.936 176.551C227.967 176.07 229.746 175.605 237.552 173.779C255.036 169.678 279.496 173.439 285.912 181.214C286.377 181.783 287.011 182.256 287.308 182.256C287.604 182.256 288.865 182.965 290.112 183.83C292.855 185.736 293.596 185.3 292.471 182.448C292.039 181.347 291.197 178.827 290.604 176.846C288.912 171.208 286.89 165.466 284.585 159.746C282.124 153.627 279.341 144.449 278.896 140.932C278.256 135.973 271.246 126.802 265.018 122.804C252.838 114.971 234.127 112.274 209.142 114.749C200.009 115.651 176.843 121.969 174.652 124.149C174.409 124.393 173.742 124.593 173.169 124.593C172.603 124.593 166.362 126.677 159.298 129.233C152.234 131.783 145.608 134.111 144.577 134.406C142.286 135.057 123.137 141.693 119.221 143.193C112.635 145.713 96.9308 149.829 90.1097 150.827C87.1171 151.263 80.6532 152.563 74.614 153.945C62.9063 156.628 51.266 158.748 43.6226 159.606C41.2972 159.864 36.7543 160.537 33.5258 161.098C27.4596 162.148 26.4957 162.007 27.3787 160.189C28.1403 158.645 30.5061 158.098 38.9247 157.529C48.5631 156.879 54.016 156.036 70.6171 152.622C75.3959 151.639 80.5723 150.59 82.1226 150.294C83.6728 149.992 85.7892 149.548 86.8205 149.297C87.8517 149.046 89.7525 148.698 91.0466 148.528C93.6348 148.188 99.7078 146.903 100.732 146.481C101.083 146.334 103.172 145.772 105.37 145.232C109.805 144.139 121.937 140.459 124.855 139.328C125.887 138.929 129.587 137.628 133.072 136.446C138.295 134.672 156.15 128.251 181.675 118.954C213.658 107.3 247.291 107.936 266.838 120.55C275.034 125.834 283.863 138.737 282.408 143.304C281.835 145.122 283.479 151.366 284.537 151.366C285.825 151.366 287.887 156.347 293.279 172.471C297.425 184.886 298.025 186.911 297.674 187.295C297.243 187.768 295.564 185.308 295.558 184.184C295.551 183.689 295.362 183.283 295.14 183.283C294.911 183.283 294.904 184.251 295.126 185.47C295.342 186.675 295.652 188.522 295.821 189.579C296.056 191.02 296.515 191.744 297.688 192.505C299.595 193.732 300.882 196.392 301.866 201.092C302.278 203.051 303.046 206.088 303.572 207.854C304.819 212.014 304.65 213.256 302.729 213.936C300.721 214.645 300.539 214.919 301.253 216.167C301.732 217.01 301.738 217.372 301.287 217.867C300.491 218.739 300.566 222.419 301.435 225.235C301.833 226.521 302.042 227.799 301.887 228.065C301.462 228.819 302.985 234.007 304.017 235.307C304.522 235.943 304.933 236.8 304.933 237.214C304.933 238.145 306.537 240.68 308.526 242.897C309.362 243.828 310.11 245.21 310.191 245.963C310.305 247.072 310.649 247.412 311.936 247.7C315.091 248.402 315.825 246.865 313.17 245.143C311.417 244.005 310.804 242.416 311.148 239.859C311.33 238.485 311.127 238.108 309.597 236.999C306.794 234.967 305.56 230.437 305.108 220.542C304.738 212.443 304.745 212.428 310.885 211.911C312.995 211.726 316.695 211.135 319.101 210.581C328.888 208.349 331.186 208.024 346.729 206.672C355.68 205.888 374.506 205.423 385.937 205.696C393.425 205.873 404.944 206.11 411.529 206.213C418.115 206.324 424.349 206.642 425.381 206.93C426.412 207.218 429.479 207.462 432.188 207.47C434.898 207.477 440.923 207.721 445.574 208.009C450.218 208.297 458.67 208.785 464.352 209.088C479.605 209.901 487.37 210.381 496.287 211.039C500.904 211.379 507.928 211.497 512.956 211.312C517.735 211.135 530.939 211.253 542.303 211.571C553.667 211.896 567.188 212.251 572.357 212.369C577.52 212.495 585.265 212.739 589.572 212.923C598.3 213.293 599.251 213.093 596.912 211.342C596.042 210.699 594.29 208.815 593.016 207.152C589.889 203.08 588.931 202.112 585.932 200.006C584.517 199.016 582.468 197.323 581.382 196.237C580.291 195.151 578.188 193.296 576.718 192.121C575.242 190.939 572.89 188.293 571.488 186.239C568.3 181.561 567.477 180.622 565.233 179.144C564.242 178.494 562.368 176.898 561.067 175.597C559.767 174.304 557.293 171.991 555.567 170.461C550.593 166.042 548.45 162.687 550.593 162.687C551.847 162.687 553.721 164.217 559.443 169.892C561.897 172.324 564.842 174.999 565.981 175.841C568.778 177.888 570.901 180.342 573.105 184.073C574.11 185.78 575.626 187.621 576.462 188.16C578.349 189.365 581.113 191.67 583.735 194.22C584.827 195.284 585.925 196.156 586.181 196.156C587.031 196.156 593.764 202.947 594.944 204.987C595.577 206.088 597.168 207.714 598.476 208.6C600.242 209.79 601.084 210.78 601.731 212.45C602.216 213.677 602.816 214.69 603.066 214.69C604.225 214.69 604.016 216.803 602.594 219.323C601.131 221.932 601.111 222.042 601.684 224.821C602.216 227.444 602.189 227.733 601.3 228.767C600.774 229.388 599.992 230.814 599.561 231.945C598.503 234.731 591.917 235.891 585.325 234.443C581.807 233.674 583.748 232.706 588.824 232.706C591.547 232.706 594.189 232.469 594.688 232.174C595.921 231.45 595.84 230.201 594.539 229.935C593.96 229.809 592.43 229.44 591.136 229.107C586.242 227.843 581.126 227.548 560.441 227.319C548.726 227.193 539.007 226.949 538.859 226.779C538.07 225.922 540.624 225.516 546.906 225.508C557.893 225.493 553.788 224.126 541.366 223.661C538.778 223.565 527.474 223.129 516.238 222.7C505.009 222.271 485.463 221.776 472.805 221.599C460.153 221.429 449.618 221.096 449.396 220.86C448.183 219.604 449.976 219.367 459.088 219.589C464.312 219.715 475.871 219.936 484.782 220.084C523.053 220.72 550.074 222.183 585.474 225.523L596.238 226.535L597.289 225.456C598.361 224.355 598.772 223.387 599.851 219.449C600.814 215.909 600.7 215.894 571.185 215.421C558.142 215.214 545.039 214.985 542.074 214.911C539.101 214.845 528.115 214.653 517.654 214.497C507.193 214.335 495.998 213.973 492.769 213.684C489.541 213.404 484.364 212.938 481.264 212.657C473.526 211.963 451.634 210.958 441.112 210.825C436.333 210.766 429.789 210.455 426.56 210.145C412.716 208.792 358.491 208.563 345.792 209.797C341.789 210.189 336.612 210.647 334.287 210.817C330.357 211.105 328.066 211.497 319.148 213.433C317.275 213.832 314.262 214.32 312.455 214.497C309.112 214.845 308.984 214.948 309.159 217.261C309.382 220.188 310.737 220.269 330.297 218.532C347.12 217.032 366.552 217.032 354.595 218.525C349.614 219.146 316.877 221.895 314.356 221.902C310.561 221.917 309.638 223.217 309.638 228.531C309.638 240.103 321.022 251.062 333.815 251.801C337.947 252.045 344.181 252.481 347.673 252.784C351.158 253.08 363.62 253.553 375.375 253.826C387.123 254.099 398.851 254.58 401.433 254.89C404.264 255.238 410.195 255.348 416.376 255.171C422.004 255.016 428.96 255.119 431.824 255.393C434.689 255.666 441.598 255.999 447.172 256.124C452.753 256.25 461.225 256.59 465.997 256.871C470.776 257.159 479.444 257.403 485.254 257.418C491.064 257.432 497.932 257.676 500.514 257.957C504.841 258.43 534.235 259.679 538.548 259.575C553.215 259.213 578.504 259.435 580.938 259.945C585.973 260.994 605.586 260.669 607.298 259.509C607.696 259.235 607.494 258.533 606.604 257.033L605.351 254.942L599.891 254.565C594.223 254.181 592.059 253.663 592.544 252.799C592.719 252.489 595.011 252.415 598.604 252.614C605.62 253.006 605.836 252.791 602.189 248.978L599.399 246.067L595.503 246.348C593.367 246.503 590.077 246.754 588.204 246.902C585.48 247.109 584.8 247.02 584.8 246.444C584.8 245.609 587.469 245.099 592.261 245.003C597.754 244.892 598.206 244.655 598.051 241.906C597.815 237.768 599.851 237.169 600.787 241.093C601.071 242.283 602.344 244.936 603.618 246.983C604.892 249.03 605.93 251.047 605.93 251.476C605.93 251.897 606.436 252.614 607.056 253.058C607.676 253.501 608.444 254.543 608.754 255.378C609.071 256.213 610.15 257.706 611.154 258.696C612.158 259.694 612.974 260.713 612.974 260.972C612.974 261.223 613.715 262.642 614.618 264.113C615.522 265.583 616.263 266.987 616.263 267.231C616.263 268.532 610.089 269.892 604.993 269.707C603.059 269.64 600.1 269.766 598.422 269.995C596.743 270.217 595.261 270.283 595.132 270.135H595.119ZM528.856 264.283C537.821 263.751 535.401 262.879 523.841 262.472C518.496 262.287 512.855 261.888 511.305 261.585C507.375 260.824 476.323 260.203 476.323 260.883C476.323 261.179 478.197 261.526 480.664 261.681C483.05 261.829 487.438 262.332 490.41 262.797C498.808 264.105 518.746 264.881 528.856 264.283ZM609.206 264.157C611.538 263.44 608.977 262.731 605.56 263.152C603.821 263.366 601.98 263.588 601.461 263.647C600.383 263.765 604.515 264.445 606.624 264.49C607.4 264.504 608.566 264.357 609.206 264.157ZM467.675 260.373C468.033 259.974 467.541 259.923 462.236 259.753C460.558 259.701 457.174 259.368 454.721 259.021C451.971 258.629 448.452 258.511 445.561 258.718C442.656 258.932 439.083 258.814 436.172 258.408C433.489 258.031 425.643 257.728 417.859 257.684C409.764 257.647 402.147 257.336 399.08 256.922C393.439 256.169 376.743 255.991 374.876 256.656L373.717 257.078L374.896 257.454C375.537 257.654 378.543 257.846 381.569 257.876C384.596 257.905 390.722 258.149 395.184 258.415C423.803 260.137 466.826 261.297 467.675 260.373ZM345.327 256.383C344.943 256.11 343.568 255.873 342.274 255.858C340.987 255.836 338.978 255.607 337.819 255.341C336.653 255.075 333.485 254.617 330.782 254.314C324.365 253.604 317.928 252.045 316.001 250.737C314.161 249.488 311.053 249.311 311.053 250.449C311.053 252.215 316.082 253.966 323.732 254.875C325.922 255.134 329.73 255.666 332.184 256.065C337.515 256.915 346.385 257.137 345.327 256.383ZM33.0674 250.486C36.5521 250.042 41.3242 249.444 43.6765 249.148C46.0221 248.845 49.0215 248.291 50.3358 247.914C51.8658 247.471 54.1305 247.316 56.6312 247.478C68.7231 248.276 94.875 242.727 85.4185 241.374C81.3407 240.79 65.9057 243.251 63.7016 244.833C63.0478 245.306 62.1177 245.527 61.5448 245.357C60.5944 245.077 56.4155 245.609 45.4626 247.419C42.8542 247.848 37.9945 248.402 34.6648 248.646C29.4008 249.037 25.7476 249.717 24.4872 250.552C23.766 251.025 24.7433 251.823 25.7206 251.557C26.2733 251.41 29.576 250.929 33.0674 250.486ZM102.559 240.864C112.608 240.399 113.754 240.236 125.893 237.554C132.917 236.002 141.477 234.406 144.914 234.007C153.09 233.061 159.439 232.196 160.316 231.923C160.707 231.804 164.299 231.354 168.303 230.918C177.584 229.905 181.453 229.114 181.453 228.22C181.453 227.282 170.264 227.733 165.721 228.848C162.668 229.595 158.759 230.26 144.82 232.396C134.952 233.903 132.876 234.191 129.324 234.509C127.39 234.686 122.105 235.61 117.589 236.563C113.067 237.509 105.781 238.662 101.386 239.12C92.4755 240.051 88.8021 240.783 89.2335 241.552C89.3952 241.832 90.0693 241.906 90.7568 241.707C91.4375 241.507 96.7488 241.13 102.559 240.864ZM203.534 225.981C209.216 225.213 215.915 223.432 215.37 222.833C214.642 222.035 201.849 222.22 197.414 223.099C195.223 223.528 192.048 224.023 190.37 224.2C186.306 224.614 181.918 225.604 181.918 226.114C181.918 226.713 198.89 226.609 203.534 225.981ZM257.044 220.86C257.044 220.579 256.188 220.35 255.137 220.35C253.991 220.35 253.351 220.55 253.526 220.86C253.681 221.148 254.544 221.377 255.433 221.377C256.316 221.377 257.044 221.148 257.044 220.86ZM233.312 220.055C240.821 219.907 245.842 219.345 253.526 217.801C254.813 217.542 258.406 216.958 261.506 216.507C269.332 215.369 273.591 214.63 274.42 214.276C275.876 213.655 272.203 213.559 267.849 214.106C260.273 215.052 246.637 216.108 243.429 215.983C241.751 215.924 238.684 216.167 236.621 216.53C234.552 216.892 230.96 217.446 228.634 217.756C222.453 218.591 218.874 219.508 218.632 220.313C218.457 220.89 218.996 220.949 221.645 220.624C223.424 220.402 228.675 220.151 233.312 220.055ZM146.195 217.025C148.743 216.293 157.02 214.431 161.252 213.625C162.419 213.411 165.061 212.857 167.123 212.406C172.536 211.224 175.69 210.573 178.629 210.056C187.896 208.416 190.896 207.883 193.188 207.455C194.603 207.196 198.195 206.627 201.168 206.199C204.14 205.763 208.05 205.179 209.856 204.898C211.662 204.61 214.83 204.144 216.9 203.863C218.962 203.59 222.979 203.014 225.817 202.585C233.292 201.469 255.285 198.92 272.56 197.168C280.608 196.348 288.844 196.503 289.343 197.471C289.822 198.41 293.252 199.393 293.825 198.757C294.452 198.077 293.118 196.222 291.338 195.299C289.296 194.234 267.208 194.641 258.453 195.905C255.487 196.333 246.395 197.486 238.266 198.476C230.131 199.459 221.362 200.627 218.773 201.063C216.192 201.506 212.074 202.171 209.62 202.548C203.628 203.472 191.32 205.792 187.553 206.716C185.874 207.122 181.116 208.179 176.984 209.058C172.852 209.938 168.518 210.884 167.359 211.157C166.193 211.431 164.191 211.874 162.897 212.14C161.603 212.413 158.968 212.99 157.026 213.433C155.092 213.877 152.342 214.431 150.92 214.667C147.644 215.214 142.373 216.751 141.787 217.328C141.106 218.015 143.27 217.86 146.195 217.025ZM286.735 212.812C289.97 212.606 292.538 212.709 293.94 213.093C295.618 213.559 296.272 213.551 296.798 213.079C298.732 211.312 292.558 209.591 287.571 210.499C285.892 210.81 283.884 211.172 283.108 211.305C276.584 212.436 273.49 213.899 278.646 213.418C280.325 213.256 283.964 212.99 286.735 212.812ZM185.672 205.142C187.607 204.684 190.357 204.129 191.772 203.9C193.194 203.671 197.528 202.866 201.404 202.112C205.273 201.358 210.449 200.405 212.903 199.999C215.356 199.585 217.816 199.134 218.369 198.994C221.314 198.225 242.377 195.069 249.064 194.397C261.904 193.096 264.357 192.949 275.357 192.875C287.449 192.793 288.669 192.313 282.401 190.096C277.238 188.271 266.339 188.396 251.881 190.451C238.913 192.284 233.197 193.289 225.116 195.143C220.074 196.296 213.846 197.693 211.265 198.247C206.264 199.311 200.346 200.767 194.589 202.348C192.655 202.881 189.339 203.442 187.222 203.59C185.113 203.738 182.787 204.122 182.059 204.447C179.424 205.607 178.851 205.859 178.157 206.147C176.896 206.679 182.059 205.984 185.672 205.142ZM242.02 188.958C243.456 188.559 252.481 187.044 259.039 186.106C261.574 185.744 262.052 184.842 259.747 184.775C254.577 184.62 251.874 185.034 242.485 187.414C240.295 187.975 237.956 188.426 237.302 188.426C236.177 188.426 234.977 189.239 234.977 189.993C234.977 190.355 239.29 189.712 242.02 188.958ZM293.205 189.771C293.205 189.084 291.824 187.864 289.485 186.49C288.258 185.773 284.753 185.773 284.753 186.497C284.753 186.741 285.542 187.281 286.512 187.702C287.483 188.123 289.013 188.914 289.916 189.468C291.857 190.643 293.205 190.769 293.205 189.771ZM572.688 247.774C570.416 247.471 571.09 246.407 573.806 246.008C580.958 244.951 585.002 246.178 578.659 247.486C575.559 248.121 575.323 248.129 572.688 247.774ZM10.0564 245.66C10.0564 245.431 9.74634 243.17 9.37563 240.643C8.35786 233.792 7.03004 211.357 6.62563 194.345C6.39647 184.428 8.59377 170.528 9.75982 174.548C10.3732 176.661 10.9124 194.234 10.6765 204.639C10.4878 213.248 10.6226 219.256 11.1753 226.639C12.2604 241.167 12.2133 246.082 10.9933 246.082C10.4743 246.082 10.0564 245.897 10.0564 245.66ZM535.017 245.616C535.017 244.36 554.988 244.19 556.855 245.431C557.61 245.934 555.541 246.059 546.408 246.067C539.87 246.082 535.017 245.882 535.017 245.616ZM486.662 244.256C471.807 243.606 457.086 243.059 453.932 243.037C450.131 243.015 448.095 242.8 447.873 242.401C447.616 241.951 450.4 241.891 459.23 242.172C465.667 242.372 474.099 242.638 477.974 242.763C481.843 242.882 486.494 243.103 488.3 243.259C490.113 243.406 496.26 243.628 501.963 243.746C512.376 243.968 515.052 244.256 514.567 245.113C514.425 245.365 514.162 245.542 513.987 245.498C513.805 245.461 501.511 244.899 486.662 244.256ZM18.7715 240.524C18.6299 240.044 18.2997 236.408 18.03 232.44C17.7672 228.479 17.3425 223.964 17.0864 222.404C16.4461 218.414 14.3903 200.309 14.0196 195.372C13.8511 193.111 13.4198 190.266 13.0558 189.054C12.2807 186.46 12.22 181.391 12.9008 176.329C13.1636 174.348 13.44 171.718 13.5141 170.491C13.6759 167.594 14.7341 166.7 16.3989 168.037C17.4841 168.902 17.9761 177.822 17.1538 181.723C16.6011 184.362 17.1403 197.73 18.266 209.273C20.5778 233.112 20.8205 247.737 18.7715 240.524ZM324.19 236.357C324.19 235.351 327.405 234.923 329.751 235.61C330.566 235.847 330.688 236.039 330.216 236.364C329.38 236.948 324.19 236.94 324.19 236.357ZM371.264 235.935C366.727 235.832 363.634 235.558 363.634 235.263C363.634 234.568 384.609 234.583 385 235.27C385.175 235.581 384.555 235.787 383.443 235.787C382.425 235.787 380.99 235.861 380.248 235.95C379.507 236.031 375.463 236.031 371.264 235.935ZM333.107 234.236C332.71 233.415 332.757 233.135 333.357 232.883C334.529 232.388 347.343 233.401 347.518 233.999C347.626 234.354 346.048 234.398 342.672 234.125C338.493 233.785 337.529 233.844 336.875 234.494C335.743 235.618 333.714 235.477 333.107 234.236ZM508.137 234.805C501.033 234.125 504.928 233.467 516.953 233.327C529.389 233.179 531.471 233.327 531.168 234.339C530.973 234.975 513.59 235.329 508.137 234.805ZM421.977 234.376C417.879 233.837 420.892 232.625 427.113 232.307C435.464 231.886 437.823 233.378 429.728 233.97C427.079 234.162 424.599 234.376 424.208 234.45C423.824 234.524 422.819 234.487 421.977 234.376ZM439.751 234.265C438.531 234.095 437.486 233.63 437.189 233.112C436.536 231.967 437.129 231.339 438.066 232.189C438.659 232.728 445.837 233.534 451.56 233.704C452.011 233.718 452.382 233.955 452.382 234.236C452.382 234.753 443.593 234.775 439.751 234.265ZM369.74 233.364C363.519 233.061 364.308 232.329 371.223 231.982C382.088 231.45 404.742 231.9 405.167 232.662C405.295 232.883 400.914 233.112 395.434 233.164C389.954 233.223 384.73 233.282 383.827 233.312C382.924 233.334 381.232 233.275 380.066 233.171C378.907 233.068 377.006 233.12 375.84 233.275C374.681 233.43 371.938 233.467 369.74 233.364ZM468.821 233.356C464.184 233.171 463.079 232.891 464.13 232.181C465.478 231.265 483.373 232.248 483.373 233.238C483.373 233.704 478.359 233.748 468.821 233.356ZM448.223 232.24C446.942 231.346 448.681 231.073 453.346 231.442C455.927 231.642 458.151 232.004 458.293 232.248C458.616 232.832 449.059 232.824 448.223 232.24ZM441.362 231.671C441.523 231.383 442.791 231.154 444.179 231.154C445.567 231.154 446.841 231.383 446.996 231.671C447.178 231.997 446.134 232.181 444.179 232.181C442.231 232.181 441.18 231.997 441.362 231.671ZM396.836 226.713C396.789 226.683 389.071 226.528 379.689 226.38C368.203 226.195 362.447 225.922 362.104 225.545C361.726 225.131 361.834 224.969 362.501 224.961C371.931 224.769 413.996 225.449 414.327 225.796C414.98 226.491 397.685 227.4 396.836 226.713ZM418.121 226.572C415.702 226.099 417.616 225.39 420.137 225.833C421.727 226.114 421.599 227.149 419.995 226.934C419.867 226.912 419.025 226.757 418.121 226.572ZM338.29 225.442C319.115 224.873 312.873 224.474 313.237 223.831C313.642 223.114 351.441 223.949 357.54 224.806C359.219 225.043 359.461 225.19 358.72 225.523C357.642 225.996 357.055 225.996 338.29 225.442ZM33.9369 224.71C33.5729 224.112 33.2831 222.382 30.6881 205.415C30.1759 202.068 28.3223 188.219 27.1832 179.263C26.7451 175.782 26.4957 172.811 26.6373 172.656C27.8505 171.326 30.5196 186.741 32.0901 204.159C32.6023 209.849 33.364 216.145 33.7819 218.163C34.5031 221.643 34.6042 225.833 33.9369 224.718V224.71ZM389.529 220.904C389.01 220.542 389.058 220.402 389.765 220.173C391.241 219.692 415.769 219.914 415.769 220.402C415.769 220.653 414.664 220.853 413.302 220.853C411.947 220.853 406.191 220.963 400.509 221.104C394.827 221.244 389.887 221.156 389.529 220.904ZM427.861 220.971C425.347 220.89 423.284 220.624 423.284 220.387C423.284 219.316 443.276 218.887 445.042 219.922C447.286 221.237 443.188 221.488 427.861 220.971ZM311.296 205.94C311.154 205.689 311.249 205.341 311.512 205.164C311.768 204.987 312.658 203.354 313.487 201.521C314.875 198.461 316.654 195.764 319.917 191.766C320.611 190.916 321.635 189.409 322.195 188.411C322.748 187.414 323.772 186.024 324.46 185.322C325.147 184.62 327.183 181.901 328.982 179.277C330.782 176.661 332.649 174.282 333.134 174.001C333.62 173.713 335.028 172.035 336.262 170.269C337.495 168.503 339.322 166.131 340.326 164.993C341.324 163.862 342.699 162.133 343.386 161.143C344.067 160.153 345.267 158.638 346.042 157.773C346.817 156.901 350.086 153.08 353.308 149.267C359.731 141.678 368.682 132.182 370.3 131.229C370.859 130.904 371.863 129.906 372.531 129.019C373.191 128.14 374.715 126.255 375.908 124.837C381.023 118.769 387.191 110.921 390.062 106.82C392.306 103.62 396.007 99.2972 399.006 96.3856C399.957 95.4619 401.298 93.4888 401.979 92.0109C402.666 90.5255 404.338 88.0943 405.699 86.6089C407.054 85.1161 409.15 82.2193 410.357 80.1724C420.824 62.3333 424.201 57.1604 427.376 54.138C428.872 52.7117 431.251 49.7484 432.673 47.5462C436.172 42.1369 440.741 36.9123 443.269 35.4417C445.473 34.1632 445.992 32.7222 444.455 32.1828C443.957 32.0128 442.993 31.3847 442.305 30.7935C440.688 29.3968 434.52 25.9605 432.815 25.5097C432.094 25.3176 430.126 24.3865 428.447 23.4406C425.394 21.7261 418.162 18.5263 415.216 17.5878C414.36 17.3144 411.86 16.3537 409.662 15.4522C407.472 14.558 404.149 13.2722 402.289 12.5997C398.083 11.0848 397.193 10.5749 395.009 8.43184C392.92 6.39224 389.536 4.44133 386.651 3.62105C383.072 2.60126 382.897 2.51997 382.897 1.78099C382.897 0.650341 384.495 -0.00735474 387.211 -0.00735474C389.995 3.46252e-05 390.696 0.376915 395.993 4.75909C399.518 7.67807 400.354 8.10668 407.196 10.4936C409.325 11.2326 412.177 12.4002 413.531 13.08C414.893 13.7599 416.955 14.6615 418.115 15.0901C419.281 15.5187 422.024 16.7158 424.221 17.7504C426.419 18.7924 429.357 20.0856 430.746 20.6251C432.141 21.1719 434.574 22.406 436.151 23.3667C437.722 24.3274 440.728 25.8423 442.824 26.7217C447.515 28.7022 448.398 29.6481 448.007 32.2788C447.718 34.2519 447.077 35.0205 443.707 37.4222C440.715 39.5578 435.322 46.0978 431.271 52.5048C429.216 55.7637 426.83 59.237 425.98 60.2272C422.455 64.3285 418.047 70.706 413.889 77.7189C410.539 83.3721 406.663 89.2101 402.875 94.3017C401.338 96.3709 398.501 100.221 396.573 102.859C394.645 105.497 392.59 107.929 392.003 108.269C391.41 108.601 390.23 109.946 389.381 111.247C386.395 115.791 368.23 136.623 348.124 158.564C344.876 162.096 341.499 166.035 340.616 167.313C339.726 168.584 338.29 170.439 337.421 171.429C336.545 172.42 335.069 174.275 334.132 175.553C333.202 176.824 331.085 179.492 329.434 181.472C327.783 183.453 325.363 186.808 324.062 188.936C322.754 191.057 320.847 193.895 319.822 195.239C318.791 196.592 316.978 199.466 315.792 201.632C313.79 205.297 311.936 207.071 311.296 205.94ZM519.379 161.291C519.218 161.113 513.536 160.788 506.755 160.559C499.974 160.337 491.994 159.886 489.022 159.561C486.056 159.236 481.297 158.904 478.46 158.822C475.615 158.741 471.605 158.416 469.536 158.098C460.248 156.679 439.461 154.913 429.155 154.677C423.992 154.558 416.699 154.315 412.952 154.137C393.614 153.206 375.934 153.487 360.25 154.965C355.114 155.453 353.611 155.283 353.928 154.255C354.251 153.184 355.491 153.066 381.731 151.58C386.739 151.3 406.11 151.3 424.464 151.588C435.922 151.772 454.397 152.94 457.41 153.679C458.839 154.026 466.294 154.884 475.406 155.741C479.673 156.14 485.483 156.694 488.321 156.968C496.995 157.81 502.515 158.024 524.421 158.335C545.322 158.63 547.931 158.859 547.641 160.374C547.486 161.187 520.087 162.074 519.379 161.291ZM281.161 157.921C278.491 153.265 274.434 143.112 275.243 143.119C275.701 143.134 277.716 146.518 277.716 147.279C277.716 147.59 278.013 148.462 278.377 149.216C280.81 154.241 283.034 161.18 281.161 157.921ZM283.108 135.374C282.219 133.8 289.296 123.876 299.986 111.712C302.102 109.303 304.306 106.436 304.886 105.342C306.571 102.12 308.816 99.3859 319.829 87.0671C325.565 80.6601 331.045 74.2605 332.009 72.8416C332.979 71.4302 334.947 68.7181 336.383 66.8189C340.245 61.7199 342.038 59.0448 347.066 50.879C349.56 46.822 352.465 42.1369 353.517 40.4668C354.568 38.8041 355.734 36.9492 356.112 36.3506C356.482 35.7521 358.592 32.6188 360.803 29.3968C366.235 21.5045 370.394 14.8536 372.436 10.8114C374.708 6.32573 376.245 4.11617 377.121 4.11617C378.745 4.11617 376.838 9.22994 373.825 12.9322C372.76 14.2402 371.297 16.3316 370.576 17.5657C369.848 18.8072 368.689 20.662 367.988 21.6892C367.294 22.7164 365.46 25.495 363.91 27.8671C361.295 31.8576 360.082 33.9342 353.375 45.817C345.995 58.9044 337.313 71.1272 326.873 83.1431C322.936 87.673 318.778 92.5429 317.625 93.9544C316.479 95.3732 312.374 100.251 308.499 104.803C300.053 114.727 293.819 122.523 292.531 124.77C288.231 132.315 284.059 137.022 283.129 135.382L283.108 135.374Z" fill="#806B5A"/>
</g>
</svg>
