<svg width="291" height="1024" viewBox="0 0 291 1024" fill="none" xmlns="http://www.w3.org/2000/svg">
<mask id="mask0_1_93" style="mask-type:luminance" maskUnits="userSpaceOnUse" x="0" y="0" width="291" height="1024">
<path d="M0.161438 0.692688H290.161V1023.33H0.161438V0.692688Z" fill="white"/>
</mask>
<g mask="url(#mask0_1_93)">
<path d="M290.339 513.932C290.339 666.677 290.339 819.422 290.339 972.161C290.339 987.068 290.339 1001.75 290.339 1016.65C290.339 1017.74 290.339 1018.84 290.12 1019.94C289.682 1022.79 288.365 1023.44 285.078 1023.22C282.448 1023.01 280.036 1023.01 277.406 1023.01C207.938 1023.01 138.25 1023.01 68.7813 1023.01C49.9375 1023.01 30.8698 1023.01 12.0208 1023.01C9.83333 1023.01 7.85937 1023.22 5.66667 1023.22C1.72396 1023.44 0.1875 1022.13 0.1875 1018.63C0.1875 1011.17 0.1875 1003.72 0.1875 996.271C0.1875 694.286 0.1875 392.089 0.1875 90.1041C0.1875 63.5885 0.1875 37.2916 0.1875 10.776C0.1875 6.39061 1.06771 5.5156 5.66667 5.0781C6.98437 4.85935 8.29687 4.85935 9.61458 4.85935C37.4427 4.41665 65.0573 4.1979 92.8854 3.7604C113.266 3.54165 133.427 3.10415 153.813 2.8854C172.219 2.66665 190.844 2.4479 209.255 2.0104C229.635 1.79165 249.797 1.56769 270.177 1.13019C274.995 1.13019 280.036 0.692688 284.859 0.692688C288.583 0.692688 289.458 1.56769 289.458 5.0781C289.682 25.8958 289.901 46.7135 289.901 67.5312C289.901 209.099 289.901 350.667 289.901 492.234C290.339 499.687 290.339 506.917 290.339 513.932ZM7.85938 11.4323C7.85938 346.943 7.85938 681.797 7.85938 1016.65C99.6823 1016.65 191.281 1016.65 283.104 1016.65C283.104 680.26 283.104 344.094 283.104 7.48956C281.135 7.48956 279.599 7.48956 278.068 7.48956C263.604 7.70831 249.135 7.92706 234.672 8.14581C216.484 8.36456 198.297 8.58331 180.109 8.80206C159.286 9.02081 138.688 9.45831 117.87 9.67706C99.901 9.89581 82.151 10.1146 64.1771 10.3385C47.526 10.5573 30.651 10.5573 13.9948 10.776C12.0208 10.9948 10.0521 11.2135 7.85938 11.4323Z" fill="white"/>
</g>
<path d="M19.9114 513.057C19.9114 351.984 19.9114 190.911 19.9114 29.8385C19.9114 28.0885 19.9114 26.3333 19.9114 24.5781C20.1302 21.5104 21.4479 20.4166 24.7344 20.4166C36.1302 20.4166 47.526 20.6354 58.7031 20.6354C73.6042 20.8541 88.5052 20.8541 103.406 21.0729C143.51 21.2916 183.615 21.2916 223.938 21.5104C239.276 21.5104 254.615 21.7291 269.958 21.9531C274.995 21.9531 276.094 23.0468 276.094 27.427C276.094 95.3645 276.094 163.297 276.094 231.234C276.094 486.099 276.094 740.964 276.094 995.833C276.094 997.802 276.313 999.995 276.094 1001.97C275.875 1004.82 274.339 1005.69 271.271 1005.47C269.297 1005.26 267.328 1005.04 265.573 1005.04C210.568 1005.04 155.781 1005.04 100.776 1004.82C75.5729 1004.82 50.375 1004.82 25.1719 1004.82C21.0104 1004.82 19.9114 1003.72 19.9114 999.995C19.9114 879.245 19.9114 758.495 19.9114 637.75C19.9114 596.109 19.9114 554.693 19.9114 513.057ZM208.818 607.068C208.818 605.312 208.818 604 208.818 602.464C208.594 593.698 208.375 585.151 208.156 576.385C207.719 553.156 207.281 530.146 206.844 506.917C206.844 506.042 206.844 504.948 206.844 504.068C206.406 497.057 206.406 497.057 213.854 496.182C215.391 495.964 217.141 495.964 218.677 495.964C220.208 495.964 221.526 495.745 223.5 495.745C223.5 493.771 223.5 492.234 223.5 490.703C223.5 485.661 223.281 480.62 223.281 475.583C223.281 472.292 223.938 471.635 227.661 471.198C229.635 470.979 231.604 470.76 233.359 470.76C244.099 470.323 254.833 470.104 265.573 469.667C266.672 469.667 267.766 469.443 268.859 469.224C269.74 464.844 269.74 431.094 268.641 427.807C188.214 427.589 107.792 427.37 27.3646 426.932C26.2656 433.068 26.7083 529.271 27.8021 532.12C45.3333 532.12 62.8646 532.12 80.3958 532.12C80.1771 531.464 80.1771 531.026 79.9583 530.807C75.5729 522.917 75.3542 514.807 77.7656 506.479C78.2031 505.167 78.4219 504.068 79.9583 503.849C88.5052 502.755 97.0521 501.661 105.818 502.536C107.792 502.755 109.104 503.411 110.198 504.948C111.297 506.698 112.391 508.453 113.047 509.766C116.995 510.646 120.719 511.083 124.005 512.177C128.609 513.932 130.802 517.437 130.359 521.599C130.141 525.328 127.073 528.396 122.474 529.49C120.281 529.927 118.089 529.927 115.896 530.146C114.583 530.146 113.49 530.146 113.708 532.12C115.021 532.12 116.339 532.339 117.432 532.339C121.375 532.339 125.104 532.339 129.047 532.339C132.333 532.339 132.99 532.995 132.99 535.844C133.208 537.818 132.99 540.01 132.99 541.984C133.208 545.927 133.651 550.089 134.089 554.474C137.375 554.474 140.224 554.474 142.854 554.474C144.823 554.474 146.141 555.13 146.359 557.323C146.797 562.365 147.672 567.62 148.115 572.661C148.333 574.854 148.115 577.047 148.115 579.234C150.302 579.234 151.62 579.453 153.151 579.453C158.193 579.453 163.234 579.453 168.276 579.453C171.562 579.453 172 579.896 172 582.745C172 587.125 171.781 591.51 171.562 595.672C171.562 599.177 171.562 602.687 171.562 606.411C184.271 607.068 196.323 607.068 208.818 607.068ZM120.281 204.719C119.844 197.047 119.625 189.818 119.187 182.583C118.964 179.297 119.187 178.859 122.911 178.641C125.76 178.641 128.391 178.641 131.677 178.641C131.458 170.094 132.552 162.203 130.141 153.875C134.745 152.562 139.344 153.875 144.167 153C144.167 151.464 144.167 150.151 144.167 148.833C144.167 138.536 144.167 128.453 144.167 118.156C144.167 111.583 144.167 111.583 151.401 111.583C188.875 111.583 226.349 111.583 263.823 111.583C265.573 111.583 267.328 111.583 268.859 111.359C269.74 105.443 269.521 31.375 268.641 28.3073C262.286 27.2083 30.651 26.552 27.3646 27.651C26.4844 34.0052 26.7031 56.5781 28.0208 59.6458C31.526 58.5468 35.0312 57.4531 38.3229 56.1354C41.3906 55.0416 41.6094 55.0416 42.7031 57.8906C46.4271 68.6302 50.375 79.3645 54.3177 90.1041C67.4687 126.703 80.6146 163.297 93.5469 199.896C94.2031 201.432 94.8594 203.182 95.5156 204.719C103.844 204.719 111.734 204.719 120.281 204.719ZM27.1458 261.255C41.1719 261.255 54.7552 261.255 68.5625 261.255C68.7812 264.766 69 267.833 69.2187 270.901C73.1667 270.901 76.6719 271.12 80.1771 270.901C86.9687 270.464 93.7656 270.021 100.776 269.583C102.531 269.365 104.281 269.583 106.036 269.802C109.104 270.021 109.542 270.682 109.542 273.531C109.542 276.161 109.542 279.01 109.542 281.854C111.297 281.854 112.609 281.854 113.927 281.854C121.156 281.198 128.172 280.76 135.182 280.104C139.125 279.667 140.661 280.979 140.88 284.484C140.88 285.802 140.88 286.896 140.88 288.214C140.88 324.37 140.88 360.312 140.88 396.469C140.88 398.005 141.099 399.536 141.099 401.073C156.88 401.073 172 401.073 187.339 401.073C188.214 401.073 189.313 400.193 189.969 399.318C190.625 398.443 190.844 397.344 191.281 396.25C202.896 364.474 214.734 332.917 226.349 301.141C229.854 291.937 233.141 282.516 236.646 273.312C237.964 270.021 238.401 270.021 241.688 271.557C244.099 272.87 246.729 273.75 249.797 274.844C250.016 272.87 250.453 271.557 250.453 270.24C250.891 264.984 251.109 259.943 251.547 254.682C251.766 251.615 252.208 251.177 255.495 251.396C258.563 251.615 261.63 252.052 264.917 252.271C268.422 252.49 269.078 252.052 269.078 248.547C269.078 241.536 269.078 234.74 269.078 227.729C269.078 227.073 268.641 226.411 268.422 225.536C266.448 225.536 264.479 225.536 262.505 225.536C205.307 225.755 147.891 225.974 90.6979 226.193C70.9739 226.193 51.25 226.411 31.526 226.411C29.9948 226.411 28.4583 226.63 26.7031 226.63C27.1458 238.245 27.1458 249.422 27.1458 261.255ZM191.724 998.021C191.724 996.271 191.724 994.953 191.724 993.422C191.724 952.88 191.724 912.339 191.724 871.797C191.724 863.031 191.724 854.047 191.724 845.281C191.724 841.771 192.38 840.896 196.323 840.458C198.297 840.24 200.49 840.24 202.458 840.24C208.375 840.24 214.292 840.24 220.432 840.021C223.281 840.021 224.375 840.458 224.375 843.089C224.375 862.589 224.156 882.312 224.156 901.818C224.156 932.281 224.156 962.521 224.156 992.984C224.156 994.734 224.375 996.49 224.375 998.021C226.568 998.021 228.099 998.021 230.073 998.021C230.073 996.271 230.073 994.516 230.073 992.984C230.073 946.964 230.073 900.943 230.073 854.922C230.073 849.88 230.073 849.88 235.771 849.661C245.63 849.443 255.495 849.443 265.354 849.224C266.672 849.224 267.984 849.005 269.078 849.005C269.078 840.021 269.078 831.474 269.078 822.708C267.109 822.708 265.573 822.708 263.823 822.708C243.88 822.927 224.156 823.146 204.214 823.365C179.667 823.583 155.344 823.802 130.802 824.24C97.9271 824.677 65.0573 824.896 32.401 825.339C30.651 825.339 28.8958 825.557 27.1458 825.557C26.9271 826.651 26.7083 827.089 26.7083 827.526C26.7083 883.63 26.7083 939.729 26.7083 995.833C26.7083 996.271 26.9271 996.927 26.9271 997.365C26.9271 997.583 27.1458 997.583 27.1458 997.802C27.1458 997.802 27.3646 998.021 27.5833 998.24C31.526 998.24 35.6927 998.24 40.2916 998.24C38.3229 989.917 36.3489 982.026 34.375 974.135C34.1562 973.917 33.9375 973.698 33.7187 973.698C30.4323 972.161 30.2135 971.505 30.4323 968.656C30.651 966.026 32.625 965.37 34.8125 964.932C37.0052 964.495 39.4166 964.057 42.0469 963.396C40.7291 962.083 40.0729 961.208 39.1979 960.328C35.9114 957.042 33.7187 953.318 32.1823 949.151C31.3073 946.526 32.1823 945.208 35.4739 945.208C37.2239 945.208 38.7604 945.646 40.5104 945.646C39.4166 942.797 38.3229 940.167 37.6614 937.318C37.0052 934.031 38.3229 933.156 42.0469 934.031C43.5781 934.469 44.6771 935.568 46.4271 935.13C45.5521 932.5 44.6771 930.307 44.0208 927.896C43.7969 926.802 44.2396 925.266 45.1146 924.391C45.5521 923.953 47.526 924.609 48.6198 925.047C49.9375 925.484 51.0312 926.365 52.3437 927.021C53.2239 921.542 53.6614 916.5 58.7031 912.12C60.6719 915.844 62.4271 919.13 64.401 922.198C67.026 921.979 68.3437 918.693 71.4114 919.349C73.1667 923.516 70.7552 927.896 71.1927 932.062C72.0677 932.062 72.5052 932.062 72.9479 932.062C77.1094 932.062 77.3281 932.281 77.1094 936.005C76.8906 938.635 76.6719 941.266 76.4531 944.115C78.2031 943.896 79.5208 943.453 81.0521 943.453C84.5625 943.453 86.0937 945.427 84.3385 948.276C83.4635 950.031 82.151 951.562 80.8333 953.099C77.9844 956.167 75.1354 959.234 71.8489 962.74C73.8229 962.958 75.1354 962.958 76.6719 963.177C78.8646 963.396 81.0521 963.839 83.2448 964.276C85.6562 964.714 86.0937 966.464 86.0937 968.437C86.0937 970.193 86.75 972.161 83.901 972.604C80.6146 973.042 80.1771 975.229 79.7396 977.641C78.8646 983.12 77.9844 988.38 77.1094 993.859C76.8906 995.391 76.8906 996.708 76.6719 998.464C79.5208 998.464 82.151 998.464 85 998.464C85.2187 997.365 85.4375 996.271 85.6562 995.172C86.3125 987.505 86.9687 980.052 87.8489 972.38C89.5989 955.729 91.3542 939.073 92.8854 922.417C94.4219 905.542 95.9531 888.891 97.7083 872.016C98.3646 865 99.026 865 106.474 865.661C115.677 866.536 124.88 866.755 134.089 867.193C137.812 867.411 138.469 866.536 138.469 863.031C138.469 858.865 138.469 854.484 138.469 850.318C138.469 847.469 139.344 846.594 142.417 846.375C146.797 845.937 150.964 845.719 155.344 845.719C160.604 845.5 166.083 845.281 171.344 845.057C175.286 845.057 179.01 844.839 182.958 845.057C185.807 845.281 186.464 846.156 186.901 848.568C187.12 849.443 186.901 850.536 186.901 851.417C186.901 861.495 186.901 871.578 186.901 881.656C186.901 918.911 186.901 956.167 186.901 993.641C186.901 995.172 187.12 996.708 187.12 998.464C189.312 998.24 190.187 998.021 191.724 998.021ZM156.656 804.958C154.469 794.219 152.276 783.917 150.083 773.62C141.974 735.047 133.87 696.479 125.76 657.911C125.104 654.625 125.323 653.964 128.828 653.307C135.839 651.776 142.854 650.677 149.865 649.802C152.714 649.365 153.589 650.458 154.031 653.526C155.344 660.542 156.437 667.771 157.755 674.786C160.823 692.974 163.891 711.161 166.958 729.13C170.682 751.266 174.63 773.182 178.354 795.312C178.792 797.505 179.229 799.479 179.667 801.667C179.891 801.667 180.328 801.667 180.547 801.448C180.547 799.479 180.547 797.286 180.547 795.312C180.766 758.057 181.203 720.802 181.422 683.328C181.422 678.073 181.859 677.854 187.557 677.854C198.078 677.854 208.818 678.073 219.333 678.073C221.089 678.073 222.839 678.073 225.25 678.073C225.25 676.536 225.25 675.005 225.25 673.469C225.25 665.578 225.25 657.693 225.469 649.802C225.469 642.349 225.906 641.911 234.016 641.693C243 641.474 251.984 641.911 260.974 641.911C263.599 641.911 266.229 641.693 269.078 641.693C269.078 638.625 269.078 635.776 269.078 633.365C263.38 632.052 31.0885 629.203 27.3646 630.297C26.2656 635.339 26.7031 652.87 27.5833 655.5C33.7187 655.5 39.8541 655.5 45.9896 655.5C49.0573 655.5 51.9062 655.281 54.9739 655.5C58.7031 655.719 60.0156 656.812 60.0156 660.323C60.0156 661.635 60.0156 662.948 60.0156 664.484C60.0156 667.771 60.0156 670.839 60.0156 673.906C69.4375 673.906 78.4219 673.687 87.4114 673.906C93.7656 674.125 93.9844 674.562 94.6406 680.26C94.6406 680.479 94.8594 680.703 95.0781 680.922C104.062 680.922 113.047 680.922 121.812 680.922C129.266 680.922 129.266 680.922 129.266 687.714C129.266 725.187 129.266 762.661 129.266 799.917C129.266 801.448 129.484 802.984 129.484 804.958C138.906 804.958 147.672 804.958 156.656 804.958ZM268.859 805.177C269.078 804.734 269.297 804.516 269.297 804.297C269.297 754.99 269.521 705.464 269.521 656.156C269.521 652.87 269.297 649.583 269.297 646.297C269.297 646.078 269.078 646.078 269.078 646.078L268.859 645.854C255.932 645.198 242.781 644.542 229.417 646.078C228.979 699.328 228.536 752.141 227.88 805.396C241.906 805.177 255.495 805.177 268.859 805.177ZM226.786 474.266C226.786 476.24 226.786 477.771 226.786 479.307C227.443 506.042 228.099 532.776 228.536 559.734C228.979 574.417 229.198 589.099 229.635 603.781C229.635 605.094 229.854 606.411 229.854 607.505C241.25 608.385 266.01 608.161 269.078 607.286C269.958 599.177 269.74 475.802 268.641 472.51C254.833 472.953 241.031 473.609 226.786 474.266ZM65.276 401.948C65.276 355.49 65.276 310.125 65.276 264.323C52.5625 264.323 40.0729 264.323 27.3646 264.323C27.3646 310.562 27.3646 356.365 27.3646 401.948C40.0729 401.948 52.5625 401.948 65.276 401.948ZM269.297 998.021C269.297 949.594 269.297 901.599 269.297 852.948C257.682 853.167 246.292 853.604 234.672 853.823C234.672 902.036 234.672 949.812 234.672 998.021C246.068 998.021 257.245 998.021 269.297 998.021ZM182.74 980.927C182.74 943.234 182.74 905.984 182.74 868.286C169.37 869.167 156.437 870.26 143.51 871.135C142.635 877.932 143.073 977.641 143.948 980.927C145.042 981.151 146.141 981.589 147.234 981.589C158.849 981.37 170.682 981.151 182.74 980.927ZM268.641 153.219C269.958 149.495 269.74 118.156 268.641 115.089C228.536 115.089 188.214 115.089 147.891 115.089C147.891 128.016 147.891 140.51 147.891 153.219C188.432 153.219 228.536 153.219 268.641 153.219ZM27.8021 659.224C26.4844 664.484 26.7083 801.667 28.0208 804.734C37.4427 804.734 46.8646 804.734 56.2917 804.734C57.3854 799.479 56.9479 661.854 55.8542 658.568C46.6458 658.786 37.2239 659.005 27.8021 659.224ZM224.594 786.766C224.813 751.703 225.031 716.859 225.469 681.578C211.885 681.578 198.734 681.578 185.146 681.578C184.708 717.297 184.49 752.578 184.052 787.646C197.859 787.422 211.005 787.203 224.594 786.766ZM121.594 998.021C124.661 980.927 136.276 874.427 135.62 871.135C130.141 870.917 124.661 870.26 119.187 870.26C113.708 870.26 108.448 868.729 102.531 869.604C98.3646 912.557 94.2031 955.073 90.0364 998.021C100.995 998.021 111.297 998.021 121.594 998.021ZM60.8906 677.63C59.7969 682.891 60.0156 801.667 61.1094 804.734C70.9739 804.958 81.0521 805.615 91.1354 804.958C92.0104 797.505 91.5729 680.703 90.6979 677.411C80.8333 678.073 70.7552 675.88 60.8906 677.63ZM126.198 804.958C126.198 764.417 126.198 724.312 126.198 683.552C115.677 685.083 105.161 683.771 95.0781 684.646C93.9844 695.604 94.6406 801.667 95.7344 804.734C105.599 804.958 115.677 804.958 126.198 804.958ZM219.333 843.964C211.443 845.719 203.776 843.089 196.104 844.401C196.104 895.901 196.104 946.745 196.104 998.021C203.995 998.021 211.443 998.021 219.333 998.021C219.333 946.745 219.333 895.682 219.333 843.964ZM122.911 181.927C123.568 189.599 122.693 197.266 124.005 204.937C125.979 204.937 127.51 204.937 129.047 204.937C140.661 204.937 152.276 204.719 163.891 204.719C197.203 204.719 230.729 204.5 264.042 204.5C265.792 204.5 267.547 204.281 269.521 204.281C269.521 196.609 269.74 189.375 269.521 182.146C220.208 181.927 171.781 181.927 122.911 181.927ZM27.3646 605.312C51.0312 606.193 74.4792 605.974 97.7083 606.193C121.156 606.411 144.604 607.286 168.271 606.849C168.271 598.74 168.271 591.073 168.271 582.964C121.156 582.964 74.4792 582.964 27.3646 582.964C27.3646 590.411 27.3646 597.427 27.3646 605.312ZM137.594 401.073C138.469 395.812 138.25 286.021 137.375 283.172C128.391 283.828 119.406 284.484 110.198 285.146C110.198 323.932 110.198 362.5 110.198 401.073C119.625 401.073 128.609 401.073 137.594 401.073ZM26.9271 420.578C108.01 421.016 188.432 421.234 269.078 421.672C269.078 416.411 269.078 411.589 269.078 406.552C267.328 406.552 265.792 406.552 264.26 406.552C256.37 406.771 248.479 406.771 240.594 406.99C209.255 407.208 177.917 407.646 146.578 407.865C108.885 408.083 71.4114 408.521 33.7187 408.74C32.401 408.74 31.0885 408.74 29.776 408.958C28.0208 409.182 26.7083 410.057 26.9271 412.031C27.1458 414.437 26.9271 417.286 26.9271 420.578ZM269.297 156.505C224.375 156.505 179.891 156.505 134.964 156.505C135.182 163.958 135.401 170.969 135.62 178.422C180.328 178.422 224.594 178.422 269.297 178.422C269.297 171.187 269.297 164.177 269.297 156.505ZM70.9739 204.719C56.5104 159.573 42.0469 115.089 27.8021 70.3802C27.5833 70.3802 27.5833 70.3802 27.3646 70.3802C27.3646 115.089 27.3646 159.792 27.3646 204.5C41.8281 204.719 56.0729 204.719 70.9739 204.719ZM129.047 656.594C139.344 706.339 149.865 755.646 160.167 805.177C165.865 805.177 171.12 805.177 177.042 805.177C168.271 754.333 159.729 703.714 150.964 652.87C143.292 653.526 136.5 654.401 129.047 656.594ZM269.297 614.958C262.068 613.859 30.8698 611.891 27.1458 612.766C26.9271 616.052 26.4844 619.557 27.3646 623.068C34.375 624.161 265.354 627.01 269.078 626.135C269.297 622.406 269.297 618.682 269.297 614.958ZM106.255 376.526C107.13 366.885 106.693 303.115 105.818 299.828C93.7656 300.266 81.7135 300.703 69.4375 301.141C69.2187 302.24 69 302.677 69 303.115C69 327 69 350.885 69 374.995C69 375.432 69.2187 376.089 69.2187 376.526C69.2187 376.745 69.4375 376.745 69.4375 376.745C69.4375 376.745 69.6562 376.964 69.2187 376.526C82.151 376.526 93.9844 376.526 106.255 376.526ZM26.9271 579.677C66.8073 579.677 105.599 579.677 144.604 579.677C145.703 573.318 144.823 563.021 142.635 558.417C134.307 557.542 30.8698 557.76 27.1458 558.635C27.1458 559.516 26.9271 560.609 26.9271 561.703C26.9271 567.62 26.9271 573.318 26.9271 579.677ZM269.521 211.292C188.432 211.292 108.01 211.292 27.5833 211.292C26.7083 215.677 26.7083 216.771 28.0208 220.057C108.229 219.62 188.656 220.057 268.859 219.182C269.078 218.083 269.297 217.427 269.521 216.771C269.521 215.016 269.521 213.266 269.521 211.292ZM91.7917 204.719C74.4792 156.068 57.1667 108.073 39.8541 59.6458C35.9114 60.7395 32.625 61.8333 28.8958 62.9323C44.2396 110.484 59.3594 157.599 74.6979 204.937C80.3958 204.719 85.6562 204.719 91.7917 204.719ZM27.3646 554.255C28.2396 554.474 28.6771 554.693 29.1146 554.693C62.2083 554.693 95.2969 554.693 128.391 554.911C129.047 554.911 129.484 554.693 130.141 554.693C130.359 554.693 130.359 554.474 130.578 554.474L130.802 554.255C130.578 548.12 130.141 541.984 129.922 535.625C95.7344 535.625 61.7708 535.625 27.5833 535.625C27.3646 541.984 27.3646 547.901 27.3646 554.255ZM257.682 399.974C261.193 351.766 264.698 303.99 268.203 255.557C263.823 255.12 259.875 254.901 255.276 254.464C251.766 302.896 248.042 351.328 244.755 399.755C249.135 399.974 253.083 399.974 257.682 399.974ZM241.25 400.193C244.099 362.943 246.729 326.125 249.359 289.526C249.135 289.526 248.917 289.526 248.479 289.307C235.115 326.125 221.745 362.943 208.375 400.193C219.333 400.193 229.854 400.193 241.25 400.193ZM269.297 811.75C188.656 811.531 108.229 811.531 27.5833 811.312C27.5833 813.943 27.5833 816.13 27.5833 818.979C108.448 818.104 188.656 817.229 269.297 816.349C269.297 814.599 269.297 813.505 269.297 811.75ZM210.13 499.687C210.13 501.88 210.13 503.411 210.13 504.729C210.568 523.792 211.224 542.859 211.667 561.922C211.885 572.443 211.885 583.182 212.104 593.698C212.104 598.302 212.542 602.906 212.76 607.505C217.365 607.505 221.526 607.505 226.13 607.505C225.25 571.349 224.594 535.625 223.719 499.687C219.115 499.687 214.953 499.687 210.13 499.687ZM193.474 400.854C196.323 400.854 198.297 400.854 200.49 400.854C204.87 400.854 204.87 400.854 206.188 397.125C209.693 387.484 212.979 378.062 216.484 368.417C227.005 339.49 237.521 310.562 247.823 281.635C248.26 280.323 248.479 279.229 248.917 277.693C245.849 276.599 243.219 275.5 239.932 274.406C224.594 316.479 209.255 358.339 193.474 400.854ZM44.0156 998.021C53.8802 998.021 63.7396 998.021 73.8229 998.021C75.1354 989.917 76.4531 982.245 77.9844 973.917C64.401 975.453 51.4687 975.229 38.0989 974.354C40.0729 982.245 41.8281 990.135 44.0156 998.021ZM138.687 998.021C138.687 962.083 138.687 926.583 138.687 890.422C136.5 908.609 134.307 926.365 132.333 944.333C130.359 962.083 127.953 979.833 126.417 998.021C130.802 998.021 134.745 998.021 138.687 998.021ZM69.6562 274.187C68.7812 279.885 69 289.745 70.0989 292.812C82.151 292.375 94.2031 291.937 106.255 291.5C106.255 285.146 106.255 279.229 106.255 272.87C93.9844 272.214 81.9323 274.625 69.6562 274.187ZM91.1354 505.823C91.1354 508.453 91.3542 510.427 93.3281 512.177C95.7344 514.37 96.1771 517.219 95.9531 520.068C95.7344 522.26 95.0781 522.917 92.6667 522.698C92.0104 522.698 91.1354 522.479 90.4792 522.26C85.2187 521.823 84.5625 521.161 85.4375 516.344C85.6562 515.245 85.875 513.714 86.75 512.833C88.7239 510.646 88.2864 508.672 87.1875 506.26C85.2187 506.479 83.2448 506.479 81.4896 506.698C79.5208 512.396 79.5208 517.875 81.0521 523.354C81.7135 525.766 82.8073 527.958 84.1198 530.146C84.7812 531.682 86.3125 532.12 88.0677 532.12C94.4219 532.12 100.557 532.12 106.911 532.12C109.542 532.12 110.417 531.026 110.641 529.052C110.859 524.672 111.516 520.286 111.297 516.125C111.078 513.276 109.979 510.646 108.667 508.016C108.229 506.917 106.474 505.823 105.38 505.823C100.557 505.604 95.9531 505.823 91.1354 505.823ZM106.474 401.51C106.474 395.812 106.474 390.552 106.474 384.635C101.651 384.635 97.0521 384.417 92.4479 384.635C85.875 384.854 79.0833 385.292 72.5052 385.729C70.9739 385.729 69.2187 385.953 69.2187 387.703C69 392.307 68.7812 396.906 69.4375 401.292C81.9323 401.51 93.9844 401.51 106.474 401.51ZM268.859 399.974C269.958 394.719 269.74 299.609 268.422 296.542C266.01 331.167 263.161 365.349 260.974 399.974C264.042 399.974 266.448 399.974 268.859 399.974ZM184.271 805.396C197.641 805.396 210.786 805.615 223.938 805.396C224.375 801.667 224.594 798.599 223.938 795.75C209.693 793.781 191.724 794.219 184.271 796.63C184.271 799.26 184.271 802.109 184.271 805.396ZM182.74 848.786C169.37 848.568 156.437 849.661 143.51 849.88C143.51 852.292 143.51 854.047 143.51 856.016C156.656 857.333 169.589 856.453 182.74 856.672C182.74 854.047 182.74 851.854 182.74 848.786ZM33.9375 970.193C35.25 970.411 36.3489 971.068 37.6614 971.068C48.401 972.604 59.1406 972.385 69.875 971.724C73.8229 971.505 77.5469 970.63 81.2708 970.193C83.4635 969.755 83.6823 968.656 83.026 966.906C81.7135 966.687 80.3958 966.026 79.0833 966.026C70.5364 965.589 62.2083 965.151 53.6614 965.37C47.9635 965.37 42.4844 966.687 36.7864 967.344C35.4739 967.344 33.7187 967.344 33.9375 970.193ZM143.51 866.755C156.88 867.193 169.589 865.437 182.74 864.344C182.74 863.25 182.958 862.812 182.958 862.151C182.958 861.714 182.74 861.495 182.516 861.057C169.589 861.057 156.437 861.057 143.292 861.057C143.292 862.37 143.292 863.469 143.292 864.562C143.073 865 143.292 865.661 143.51 866.755ZM143.292 997.802C150.302 998.682 179.667 998.464 182.958 997.365C182.958 996.052 182.74 994.734 182.74 993.641C176.161 992.542 148.333 992.766 143.292 994.078C143.292 995.172 143.292 996.49 143.292 997.802ZM35.6927 948.276C37.0052 953.536 41.8281 959.672 46.2083 962.302C46.8646 962.74 47.526 962.958 48.1823 962.958C51.9062 962.74 55.6354 962.302 59.5781 962.083C53.6614 954.63 42.2656 948.057 35.6927 948.276ZM62.2083 953.318C57.8229 944.552 50.1562 940.167 40.5104 936.224C42.2656 941.484 43.7969 945.865 47.9635 948.714C51.4687 951.344 55.4114 953.536 59.3594 955.948C60.0156 955.51 60.8906 954.63 62.2083 953.318ZM182.74 985.531C169.589 985.531 156.437 985.531 143.073 985.531C143.292 986.849 143.292 987.943 143.51 989.036C156.656 989.036 169.589 989.036 182.74 989.036C182.74 987.724 182.74 986.849 182.74 985.531ZM114.583 527.297C117.87 526.859 120.719 526.859 123.13 525.984C128.391 524.01 128.609 518.531 124.005 515.682C121.156 513.932 118.089 513.276 114.583 514.151C114.583 518.312 114.583 522.26 114.583 527.297ZM63.9583 962.521C65.4948 962.302 67.25 962.302 68.125 961.646C73.8229 957.479 78.4219 952.443 82.8073 946.083C73.1667 948.057 66.8073 952.661 61.3281 958.578C62.2083 959.891 62.8646 960.766 63.9583 962.521ZM64.401 950.687C71.1927 947.401 75.3542 943.896 73.8229 934.687C67.6875 936.443 63.3021 939.948 60.0156 944.771C61.7708 946.964 63.0833 948.714 64.401 950.687ZM106.911 381.13C106.036 378.719 104.281 379.375 102.969 379.375C95.5156 379.375 88.0677 379.375 80.6146 379.375C77.5469 379.375 74.4792 379.812 71.1927 380.031C69.4375 380.255 68.7812 380.911 69.6562 382.443C81.9323 382.224 94.2031 381.786 106.911 381.13ZM47.7448 927.458C49.276 933.594 51.4687 939.292 57.6042 942.578C60.2344 939.292 60.0156 935.786 56.2917 932.937C53.8802 930.745 50.8125 929.214 47.7448 927.458ZM69 296.76C70.3177 298.51 71.8489 297.854 73.1667 297.854C78.8646 297.635 84.7812 297.417 90.4792 297.198C95.0781 296.979 99.6823 296.76 104.281 296.542C104.943 296.542 105.599 295.88 107.13 295.224C102.531 294.13 72.9479 295.443 69 296.76ZM184.49 792.245C191.062 792.026 197.641 791.589 204.214 791.37C210.786 790.932 217.583 792.901 224.375 791.807C223.5 789.615 221.964 790.271 220.87 790.271C208.594 790.052 196.323 789.396 184.49 792.245ZM69 923.516C61.7708 927.24 59.7969 932.5 63.5208 937.099C67.9062 933.594 68.5625 928.771 69 923.516ZM58.4844 930.307C61.9896 923.734 61.9896 921.542 58.2604 917.818C55.1927 923.073 55.1927 927.677 58.4844 930.307ZM87.8489 519.411C89.8177 519.193 91.1354 519.193 93.1042 518.974C92.2292 517 91.5729 515.464 90.9167 513.932C90.4792 513.932 90.0364 513.932 89.8177 513.932C89.1614 515.682 88.7239 517.219 87.8489 519.411Z" fill="white"/>
<path d="M93.3281 483.469C92.6666 486.099 92.4479 488.292 91.7916 490.484C91.1354 492.453 90.4791 494.208 92.2291 496.182C92.6666 496.62 92.0104 497.495 92.0104 498.37C91.3541 498.37 90.4791 498.37 90.0364 498.151C88.2864 496.839 86.75 495.083 87.4114 492.896C88.0677 490.266 88.9427 487.635 89.5989 485.005C89.8177 484.568 89.8177 483.906 90.2552 483.469C90.9166 482.813 91.7916 482.594 92.6666 482.156C92.8854 482.812 93.1041 483.469 93.3281 483.469Z" fill="white"/>
<path d="M83.2448 492.896C82.5885 495.964 83.4635 497.495 85 498.812C85.6563 499.469 85.6563 500.344 85.875 501.219C84.7813 501 83.4635 501.219 82.8073 500.781C81.4896 499.469 80.1771 497.932 79.5208 496.182C78.8646 493.99 79.0833 491.797 79.0833 489.604C79.0833 489.167 79.7396 488.729 80.1771 488.51C80.6146 488.51 81.4896 488.729 81.7135 488.948C82.3698 490.266 82.8073 492.016 83.2448 492.896Z" fill="white"/>
<path d="M102.969 489.385C103.187 490.266 103.625 490.922 103.625 491.141C102.312 493.333 101.875 495.745 102.75 498.37C102.75 498.594 102.094 499.469 101.875 499.469C101.214 499.469 100.339 499.25 100.12 498.812C96.8333 495.302 97.7083 492.453 102.969 489.385Z" fill="white"/>
<path d="M234.896 667.115C234.896 663.609 237.083 659.224 242.344 656.594C247.823 653.964 253.083 654.625 257.906 657.911C263.38 661.417 266.229 666.458 265.135 672.594C264.042 678.51 260.312 682.453 253.958 683.99C248.479 685.521 242.562 683.552 238.839 679.167C236.208 676.536 234.896 672.812 234.896 667.115ZM261.849 669.745C261.63 665.797 259.219 662.073 254.177 659.661C247.385 656.375 239.932 659.443 238.401 666.458C237.521 670.182 238.401 673.469 240.594 676.536C243.443 680.922 248.698 682.453 253.74 681.141C258.344 679.823 261.849 675.443 261.849 669.745Z" fill="white"/>
<path d="M185.146 135.25C184.927 141.604 179.448 146.427 172.437 146.427C165.646 146.427 159.729 141.167 159.729 135.031C159.729 128.672 165.865 123.198 172.437 123.198C179.667 123.635 185.146 128.896 185.146 135.25ZM172.656 126.703C167.396 126.703 163.453 129.99 163.453 134.812C163.234 139.63 167.396 143.578 172.437 143.578C177.479 143.578 181.859 139.63 181.859 135.031C181.859 130.646 177.479 126.703 172.656 126.703Z" fill="white"/>
</svg>
