<svg width="148" height="248" viewBox="0 0 148 248" fill="none" xmlns="http://www.w3.org/2000/svg">
<mask id="mask0_1_86" style="mask-type:luminance" maskUnits="userSpaceOnUse" x="0" y="0" width="148" height="248">
<path d="M0 0H148V247.917H0V0Z" fill="white"/>
</mask>
<g mask="url(#mask0_1_86)">
<path d="M27.3646 245.839C25.8958 244.969 22.0208 229.255 18.75 210.922C12.9167 178.214 12.6979 177.578 7.0625 176.969C1.71354 176.391 1.27604 175.536 0.661458 164.49L0 152.63H31.026C64.6302 152.63 64.125 152.828 60.75 141.094C59.651 137.266 58.2656 136.88 48.6198 137.75C39.4635 138.568 36.3021 137.844 28.7708 133.187C16.4479 125.578 18.4427 122.734 36.1042 122.734C50.8021 122.734 53.5208 121.193 43.1198 118.755C34.7448 116.792 21.4375 108.453 17.3229 102.594C12.5365 95.7708 5.90625 76.5208 7.75521 74.7969C12.7448 70.1406 47.5156 97.7969 49.8594 108.297C50.6198 111.698 54.0885 119.589 57.5729 125.823C61.0521 132.062 64.5885 140.635 65.4271 144.88C68.2083 158.927 70.0208 151.146 68.2708 132.661C67.3281 122.667 67.0729 112.937 67.7031 111.052C68.5156 108.635 66.2135 106.234 59.8854 102.917C50.0729 97.7656 38.6354 82.9844 36.4063 72.5833C34.7865 65.0312 34.7344 65.0521 44.901 69.0208C52.4115 71.9531 66.474 84.8281 66.474 88.7812C66.474 89.875 67.4635 90.7708 68.6823 90.7708C73.7135 90.7708 70.6823 80.6041 64.401 76.4271C60.4115 73.776 56.2813 67.9739 53.6563 61.3385C48.0781 47.2239 45.75 35.0937 48.6198 35.0937C52.9792 35.0937 68.099 51.9427 70.9271 59.9479C74.3698 69.6875 76.651 70.2604 78.6198 61.8802C79.7708 57 78.8854 54.3489 74.4635 49.4479C68.2552 42.5573 64.2969 31.5104 64.276 21.0364L64.2656 14.1927L70.599 18.401C74.0833 20.7187 78.2344 25.5469 79.8281 29.1302L82.7188 35.651L87.9583 24.5469C93.0417 13.7812 104.938 0.036438 109.177 0.036438C112.427 0.036438 109.188 22.375 105.089 28.2135C103.094 31.0625 101.911 33.8125 102.469 34.3333C103.026 34.8541 108.115 34.1927 113.771 32.8594C119.432 31.5312 124.635 30.9739 125.333 31.625C126.036 32.2812 124.406 36.1406 121.719 40.2031C116.01 48.8229 102.948 55.7135 92.3177 55.7135C86.4635 55.7135 84.3021 56.8489 82.2917 60.9687C78.1719 69.4062 79.276 70.7291 86.4531 65.9583C90.1563 63.5 98.599 60.3073 105.224 58.8698C116.375 56.4531 117.271 56.5312 117.271 59.9531C117.271 64.4271 105.318 75.9739 97.9896 78.5781C95.0781 79.6146 88.8958 80.4583 84.2552 80.4583C77.3802 80.4583 75.5781 81.3177 74.4948 85.0989C71.2813 96.2812 72.5365 97.1719 82.5729 90.8489C87.7813 87.5677 94.7448 84.25 98.0573 83.4739C103.26 82.25 103.875 82.5781 102.609 85.901C99.1615 94.9791 84.7552 105.203 75.4167 105.203C71.2969 105.203 70.8906 106.464 70.8906 119.349C70.8906 127.13 71.526 137.802 72.2969 143.062C73.5938 151.917 74.1771 152.63 80.026 152.63C86.0625 152.63 86.349 152.203 86.349 143.224C86.349 137.719 88.5156 129.38 91.5781 123.12C94.4531 117.234 98.0417 108.708 99.5625 104.172C103.026 93.8073 112.839 84.0364 126.484 77.375C132.302 74.5364 137.578 72.2135 138.208 72.2135C140.458 72.2135 139.292 81.9479 135.943 91.1354C131.672 102.839 123.177 110.557 109.578 115.104C103.771 117.042 97.5365 120.714 95.7292 123.26L92.4375 127.885L100.365 124.792C108.193 121.74 119.479 120.604 119.479 122.87C119.479 129.839 105.589 138.198 94.0104 138.198C88.875 138.198 88.3542 138.891 88.974 144.901L89.6667 151.599L118.927 152.177L148.188 152.75V165.062C148.188 177.146 148.073 177.375 142.068 177.375H135.943L130.797 210.885C127.964 229.312 125.193 245.089 124.641 245.943C123.313 247.984 30.8125 247.885 27.3646 245.839ZM122.589 236.661C124.932 222.484 130.547 182.411 130.531 179.953C130.521 177.958 117.771 177.375 74.2031 177.375C43.2292 177.375 17.8854 178.182 17.8854 179.167C17.8854 180.156 19.2813 188.74 20.9896 198.245C22.6927 207.75 24.7396 220.167 25.5313 225.833C28.2135 245.036 23.4479 243.365 75.3542 243.365H121.484L122.589 236.661ZM143.766 165.005V156.755H4.63542V173.25H143.766V165.005ZM53.2083 134.125C56.0417 132.453 55.8854 131.74 52.1042 129.146C46.4688 125.271 34.5052 123.141 28.4531 124.932C24.1615 126.208 24.5 126.75 32.4167 131.219C41.6198 136.422 47.8385 137.292 53.2083 134.125ZM106.88 132.167C109.833 131.12 112.813 128.885 113.505 127.198C114.526 124.714 113.589 124.443 108.594 125.781C101.547 127.667 92.974 131.693 92.974 133.115C92.974 134.74 101.229 134.177 106.88 132.167ZM46.5938 109.979C46.5938 103.771 29.9688 87.3281 17.7083 81.4062C11.0781 78.2031 10.7083 78.2083 12.0417 81.4531C12.8281 83.3594 13.4688 86.0989 13.4688 87.5364C13.4688 92.6094 26.3958 108.036 33.6875 111.667C43.9323 116.766 46.5938 116.417 46.5938 109.979ZM119.474 107.495C126.318 102.896 134.849 89.2916 134.896 82.8958C134.932 78.8958 134.125 78.3489 129.964 79.5312C116.995 83.2083 101.833 99.1041 101.813 109.036C101.807 113.297 102.563 113.734 107.88 112.552C111.219 111.812 116.438 109.536 119.474 107.495ZM66.474 98.3906C66.474 93.3177 53.875 77.3646 46.9219 73.6406C38.9323 69.3594 38.7708 69.6562 43.3958 80.0104C49.2604 93.1354 66.4688 106.849 66.4688 98.3906H66.474ZM91.2813 94.9531C95.25 91.5833 97.2031 88.8021 95.625 88.7708C91.5885 88.6823 81.0573 94 77.6354 97.8489C72.2135 103.948 83.5156 101.552 91.2813 94.9531ZM98.349 74.3281C106.625 70.5833 114.495 62.75 112.172 60.5781C110.573 59.0885 88.4271 67.5573 83.8906 71.3906C74.6406 79.2031 83.5781 81.0208 98.349 74.3281ZM66.6458 59.1406C62 50.1875 53.5365 40.3021 51.8542 41.8698C49.5625 44.0104 59.8802 68.4844 64.5885 72.0729C69.7188 75.9791 69.7917 75.9791 70.5 71.9896C70.8906 69.7708 69.1563 63.9896 66.6458 59.1406ZM113.635 43.5625C117.328 40.1094 119.755 36.7291 119.026 36.0469C116.297 33.5 99.599 40.0312 93.6354 45.9739L87.4531 52.1354L97.1823 50.9844C104.036 50.1771 108.901 47.9791 113.635 43.5625ZM79.6875 39.0416C78.7708 34.3594 75.9167 28.5625 73.349 26.1666L68.6771 21.8073V27.651C68.6771 33.9583 77.2188 49.9427 79.7917 48.4583C80.651 47.9635 80.6042 43.7239 79.6875 39.0416ZM102.042 25.8125C104.286 21.276 106.12 14.7812 106.115 11.3802L106.109 5.19269L99.5573 12.4114C93.4688 19.1198 86.349 35.7291 86.3542 43.2031C86.3594 47.8281 96.9635 36.0781 102.042 25.8125Z" fill="white"/>
</g>
</svg>
