<svg width="638" height="471" viewBox="0 0 638 471" fill="none" xmlns="http://www.w3.org/2000/svg">
<mask id="mask0_1_94" style="mask-type:luminance" maskUnits="userSpaceOnUse" x="0" y="0" width="638" height="181">
<path d="M0 0H637.333V181H0V0Z" fill="white"/>
</mask>
<g mask="url(#mask0_1_94)">
<path d="M636.479 159.443C636.51 158.62 636.13 157.964 635.339 157.469V157.474C634.266 156.807 631.797 156.406 627.932 156.255L628 156.26C626.828 156.161 625.755 156.151 624.776 156.219L624.693 156.224L621.661 156.49C627.958 154.682 632.141 152.552 634.151 150.089C634.266 149.948 634.354 149.792 634.417 149.625C634.469 149.484 634.51 149.333 634.542 149.167C634.708 148.224 634.495 146.167 633.901 142.99L633.891 142.943L631.734 132.974C630.76 125.297 629.573 117.839 628.172 110.609C627.729 102.109 627.063 95.1719 626.167 89.8073L626.161 89.7656L624.99 83.7969C624.479 79.1979 623.427 72.0156 621.839 62.2396L621.818 62.1302C620.286 55.625 619.516 51.974 619.5 51.1563C619.536 50.8958 619.516 50.6302 619.422 50.375C619.563 49.7813 619.375 49.1563 618.984 48.8906L618.792 48.7292C617.286 47.6302 615.354 47.1146 613 47.1771C612.828 47.1823 612.661 47.2136 612.495 47.2708C608.625 48.6667 602.385 49.7344 593.781 50.474C593.609 50.4844 593.443 50.5261 593.286 50.5938C591.13 51.5156 587.521 52.5521 582.464 53.7136L582.323 53.75C581.807 53.9219 581.385 54.1615 581.021 54.4375C581.063 53.3802 581.115 52.2708 581.182 51.0625V51.0573C581.563 45.6458 581.802 41.6927 581.911 39.1927C581.99 37.6354 582.057 35.2083 582.12 31.9115V31.8854C582.125 26.4271 581.88 19.4011 581.375 10.7917L581.38 10.8542L581.375 10.7813C581.365 10.5625 581.37 9.66668 581.401 8.10939C581.5 7.93751 581.578 7.75001 581.604 7.54168C582.193 3.53126 579.609 1.10418 573.859 0.265637C570.88 -0.171861 566.948 -0.171862 562.073 0.260429C553.464 0.515637 548.833 3.64585 548.156 9.63543C545.057 7.6823 539.792 6.73439 532.333 6.79689L532.172 6.8073C528.349 7.21355 526.302 10.1354 525.995 15.5208C525.969 15.6042 525.917 15.6719 525.896 15.7604V15.7656C525.599 17.0625 525.302 24.6198 525.016 38.4323V38.4896L525.573 78.1406C525.453 94.7813 525.224 105.339 524.891 109.813L524.885 109.948L524.979 122.974C524.953 122.958 524.927 122.938 524.901 122.922L524.979 122.979V122.99C524.406 122.542 523.724 122.255 522.906 122.172C522.375 122.094 521.62 122.031 520.641 121.984C520.292 121.969 519.922 121.958 519.526 121.953H519.49C517.531 121.969 516.359 121.964 515.979 121.938L515.865 121.932H515.896C515.37 121.922 513.104 121.786 509.094 121.526C508.729 121.505 507.823 121.479 506.365 121.453L506.391 121.458C505.5 121.427 503.589 121.438 500.656 121.49H500.661C500.651 121.49 500.656 121.49 500.651 121.49C499.698 121.479 497.964 121.474 495.432 121.474C495.354 121.474 495.281 121.495 495.203 121.505C495.266 121.5 495.307 121.479 495.375 121.479H495.37C495.25 121.479 494.797 121.469 494.047 121.443C495.708 119.688 496.969 117.219 497.802 113.979C498.323 112.182 498.651 109.651 498.786 106.375L498.781 106.406L498.786 106.37C498.844 104.865 498.88 102.906 498.885 100.484L498.88 100.531C498.906 99.6458 498.839 97.625 498.677 94.4792C498.667 93.9479 498.688 93.224 498.75 92.3125C498.781 91.8594 498.625 91.4375 498.344 91.125C498.344 90.8854 498.313 90.6458 498.198 90.4167C498 89.9948 497.693 89.6406 497.281 89.349C497.104 89.224 496.896 89.1198 496.677 89.0208L498.724 86.0781L498.781 85.9896C500.411 83.2917 502.979 79.2344 506.484 73.8229L506.557 73.7031C506.552 73.7031 506.552 73.7083 506.552 73.7083C506.844 73.2031 508.49 71.1927 511.49 67.6823L511.531 67.6354C511.87 67.2031 512.047 66.7136 512.068 66.1823C512.156 65.0313 511.646 64.2083 510.521 63.7344C510.156 63.5781 509.724 63.4792 509.229 63.4271C508.146 63.3229 506.599 63.4688 504.594 63.8646C501.734 64.4115 499.286 65.1875 497.172 66.1615C497.156 65.2552 497.141 64.3125 497.115 63.3073C497.12 62.9271 497.198 61.8073 497.344 59.9531L497.349 59.8281C497.354 58.8594 496.938 58.2292 496.099 57.9427C495.651 57.7865 495.167 57.8386 494.76 58.0729C493.302 58.9271 491.849 60.9011 490.406 63.9219C490.328 63.599 490.26 63.3021 490.167 62.9479L490.188 63.0261C490.031 62.2969 489.073 59.3802 487.318 54.2708L487.307 54.2761C487.104 53.6042 486.688 53.1406 486.057 52.8854C485.219 52.4792 484.427 52.6406 483.672 53.4011C483.359 53.7136 483.042 54.1719 482.719 54.7761C482.484 55.2136 482.234 55.7448 481.974 56.375L481.948 56.4375C480.818 59.4479 480.193 61.1458 480.078 61.5365C480.078 61.5521 480.078 61.5625 480.073 61.5729C480.073 61.5833 480.068 61.5886 480.063 61.5938C479.958 61.9063 479.646 63.0417 479.146 64.9688C478.573 63.8594 478.031 62.8438 477.521 61.9688L477.479 61.8958C477.422 61.8125 477.365 61.7292 477.307 61.6511C476.854 61.0729 476.297 60.7604 475.651 60.6927C474.813 60.5625 474.161 60.9271 473.703 61.8073C473.651 61.9063 473.604 62.0156 473.557 62.1354L473.526 62.2031C472.901 60.375 472.078 58.0521 471.042 55.1823C470.667 54.1302 469.323 51.3073 467.005 46.7188L467.036 46.7865C466.896 46.4844 466.76 46.2344 466.625 46.0313C466.109 45.2708 465.458 44.9636 464.672 45.1198L464.802 45.1042C464.198 45.1406 463.661 45.4063 463.188 45.9271C462.875 46.2708 462.594 46.7448 462.333 47.3438L462.344 47.3229C460.844 50.6979 459.958 52.8438 459.672 53.7761C459.068 55.3854 458.448 57.6979 457.813 60.7031C457.245 59.1667 456.052 56.3073 454.214 52.0833L454.177 52.0052L454.161 51.974C453.87 51.4219 453.573 50.9948 453.266 50.6875C452.771 50.1927 452.219 49.9531 451.615 49.9583C451.49 49.9636 451.365 49.9792 451.24 50.0104C451.125 50.0365 451.005 50.0729 450.891 50.1198C449.313 50.7188 447.719 53.1979 446.109 57.4583C444.969 55.1719 443.391 52.8542 441.333 50.5L441.224 50.3854C437.583 46.9531 433.807 44.3906 429.891 42.6927C429.495 42.5208 429.052 42.5156 428.651 42.6719C427.521 43.1198 427.073 43.9167 427.313 45.0521L427.297 44.974L429.031 55.8958L429.047 55.974C429.37 57.5208 429.734 58.974 430.135 60.3594C429.37 59.7136 428.578 59.0677 427.719 58.4115C427.224 58.0313 426.552 57.974 425.995 58.2604C425.443 58.5469 425.104 59.1302 425.125 59.7552C425.182 61.25 425.25 62.7031 425.333 64.1146C424.12 62.9219 422.641 61.7292 420.896 60.5365H420.891C419.677 59.7083 418.302 58.9531 416.766 58.2656L416.849 58.3073C416.828 58.2969 416.807 58.2865 416.781 58.2708C416.469 58.1198 414.734 57.3854 411.573 56.0625L411.594 56.0729C411.391 55.9792 411.198 55.9063 411.016 55.8542C410.354 55.6615 409.781 55.7292 409.281 56.0313C408.693 56.3646 408.318 56.9063 408.172 57.6615C407.938 58.849 408.385 61 409.516 64.1146L409.583 64.2708C411.99 69.2031 413.755 72.5938 414.901 74.5052C413.672 74.349 412.484 74.3438 411.344 74.5313H411.328C402.87 75.9792 397.641 80.1198 395.635 86.9583C395.542 87.2761 395.552 87.6198 395.656 87.9375C395.693 88.0313 395.729 88.125 395.781 88.2136C396.349 89.2552 397.198 89.4636 398.339 88.8438C398.474 88.7708 398.594 88.6771 398.703 88.5677C400.26 87.0208 401.359 86.1667 402 86.0052L401.604 86.0573L402.172 85.9531C404.068 85.2448 406.031 84.9636 408.073 85.1042C412.068 85.7136 414.781 86.75 416.234 88.2188C415.161 88.3229 414.448 88.4219 414.109 88.5104C413.391 88.6927 412.953 89.1042 412.786 89.7396C412.776 89.7708 412.781 89.7969 412.776 89.8229C412.427 90.099 412.188 90.5 412.156 90.9792C411.844 95.9636 411.672 99.4063 411.641 101.313C411.438 103.625 411.307 105.604 411.25 107.245V107.365C411.349 109.901 411.672 112.141 412.208 114.089L412.224 114.125C413.161 117.208 414.521 119.62 416.271 121.391L412.37 121.505C408.099 121.557 405.557 121.604 404.745 121.646L404.797 121.641L404.74 121.646L386.068 122.526H386.063C385.542 122.552 385.115 122.563 384.781 122.568C384.766 122.568 384.755 122.557 384.74 122.557C384.641 122.557 384.552 122.568 384.458 122.568C384.323 122.568 384.208 122.563 384.12 122.557C383.844 122.531 383.583 122.599 383.344 122.703C381.974 123.057 381.052 124.057 380.589 125.724L380.568 125.802C380.411 126.49 380.286 127.479 380.182 128.776V128.802L379.927 132.771L379.542 136.979V137.016C379.484 137.87 379.458 138.667 379.474 139.411V139.417C379.484 139.844 379.5 140.255 379.531 140.661L379.536 140.703C379.719 142.531 379.818 143.729 379.828 144.302V144.333C379.849 144.859 379.875 145.823 379.896 147.219C379.87 149.083 379.87 150.229 379.906 150.703V150.776C379.906 150.786 379.911 150.797 379.911 150.807V150.792C379.911 150.797 379.911 150.802 379.911 150.807C379.974 151.745 380.104 152.661 380.313 153.568L380.339 153.677C380.646 154.677 381.083 155.495 381.589 156.219C378.875 156.172 375.891 156.13 372.635 156.094C372.708 156.016 372.792 155.964 372.849 155.875C372.958 155.703 373.047 155.505 373.12 155.271C373.359 154.469 373.51 152.359 373.573 148.938V148.922C373.578 148.167 373.573 147.417 373.557 146.677V146.661C373.521 145.479 373.448 142.276 373.339 137.047V137C373.307 135.49 373.292 134.391 373.302 133.708V133.698C373.307 131.349 373.443 125.151 373.708 115.109V115.104C373.724 114.427 373.729 113.604 373.724 112.635V112.625C373.693 110.125 373.646 108.141 373.589 106.667C373.589 106.661 373.589 106.661 373.589 106.656C373.589 106.245 373.464 104.26 373.214 100.693C373.161 99.5938 373.135 98.6667 373.141 97.9115V97.8958C373.141 97.3125 373.156 96.5469 373.188 95.6042C373.38 92.0261 373.495 89.3073 373.536 87.4636V87.474C373.599 85.1875 373.641 82.3281 373.656 78.9063C373.661 78.1042 373.635 76.4063 373.573 73.7969V73.7865C373.391 68.2604 373.307 65.0156 373.307 64.0573V64.0365C373.302 63.5156 373.302 63.0052 373.302 62.4948C373.318 60.2708 373.323 58.3281 373.323 56.6719V56.6875C373.344 54.5261 373.354 53.0938 373.354 52.3802C373.354 51.4844 373.349 50.6042 373.333 49.75C373.297 47.8021 373.25 46.0625 373.193 44.5208V44.4948V44.5L372.844 36.9375C372.823 35.9583 372.813 35.1511 372.813 34.5156C372.854 31.8281 372.87 30.2917 372.865 29.9115V29.9167C372.859 29.0677 372.839 28.4323 372.807 28.0208V28.0156C372.792 27.8438 372.734 27.6927 372.672 27.5417C373 26.8854 372.88 26.0729 372.292 25.5886C371.604 25.0156 370.583 25.1146 370.016 25.8021C370.021 25.7917 370.031 25.7865 370.031 25.7813H370.036C368.448 27.2448 359.177 27.3229 342.219 26.0104C342.12 26.0052 342.021 26.0052 341.922 26.0156C340.464 26.1771 339.385 26.5833 338.688 27.2396C338.229 27.6667 337.938 28.1823 337.813 28.7761C337.786 28.9063 337.776 29.0365 337.781 29.1667C337.885 32.1198 337.99 34.8958 338.083 37.5625C334.932 37.3802 326.932 37.4115 314.047 37.6667L314.266 37.6771C314.083 37.6563 313.917 37.6615 313.745 37.6615C313.75 37.5208 313.755 37.3906 313.766 37.2188V37.1927C313.771 37.0052 313.776 36.8854 313.776 36.8281C313.776 36.8229 313.776 36.8229 313.776 36.8125C313.786 35.7761 313.797 35.1979 313.802 35.0781V35.0833C313.802 35.0886 313.802 35.0938 313.797 35.1042L313.802 35C313.802 35.0052 313.802 35.0052 313.802 35.0104V35.0052C313.802 34.9167 313.823 34.4271 313.859 33.5417C313.891 32.8698 313.917 32.3125 313.948 31.8698C314.052 30.5313 314.104 29.7813 314.115 29.5938C314.141 29.1406 314.161 28.7031 314.172 28.2761L314.177 28.2604C314.193 27.3386 314.198 26.7865 314.193 26.6094C314.193 26.5573 314.188 26.5104 314.182 26.4688L314.193 26.6094C314.188 26.3073 314.146 25.9531 314.057 25.5417C314.057 25.5365 314.052 25.5313 314.052 25.5261C314.047 25.2448 314.047 25.0417 314.047 24.9948C314.042 24.9688 314.042 24.9427 314.042 24.9167L314.047 24.9844L314.021 23.9844C314.016 23.8281 314.016 23.6042 314.021 23.3177V23.3229C314.026 23.0625 314.036 22.8177 314.047 22.5781V22.5625V22.5833C314.104 21.5573 314.161 20.5417 314.208 19.5365V19.5417C314.229 19.1302 314.24 18.724 314.24 18.3177V18.3021C314.229 17.4479 314.208 16.7188 314.161 16.1198V16.1094C314.12 15.5833 314.057 15.1667 313.974 14.8698V14.8646C313.974 14.849 313.969 14.8333 313.964 14.8177C313.786 14.2136 313.281 13.8125 312.703 13.7031C312.51 13.6042 312.297 13.5469 312.063 13.5313L294.932 12.6771H294.865C294.005 12.6719 293.292 12.8073 292.724 13.0833C291.818 13.5208 291.302 14.224 291.177 15.1979C291.167 15.2761 291.161 15.3542 291.161 15.4375L291.406 28.5573C291.417 29.1302 291.729 29.6302 292.198 29.9115C291.703 29.6458 291.432 29.2292 291.411 28.6354C291.427 29.0365 291.354 32.0156 291.203 37.5781V37.6354C291.214 39.2917 290.964 43.5417 290.448 50.3229C286.88 48.0521 279.849 44.2656 269.323 38.9531C267.281 37.8802 265.651 37.1094 264.406 36.6354C264.5 36.4583 264.573 36.2865 264.672 36.1042C266.307 33.3333 267.271 31.6354 267.583 30.9948C268.115 30 268.49 29.0677 268.708 28.2031C268.927 27.3386 268.401 26.4636 267.536 26.2448C267.307 26.1823 267.073 26.1875 266.854 26.2292L248.521 15.4167L248.573 15.4479C247.625 14.8438 246.813 14.4948 246.13 14.4063C245.073 14.2656 244.281 14.6094 243.75 15.4375C243.651 15.5886 243.573 15.75 243.505 15.9271L243.646 15.6458C239.156 23.0104 236.734 27.1667 236.37 28.1094C236.365 28.1302 236.359 28.1458 236.354 28.1667L225.026 52.7865C223.792 55.0156 222.604 57.1823 221.432 59.3125C221.354 59.2188 221.276 59.1302 221.193 59.0261C221.036 58.8229 220.906 58.6511 220.776 58.4844C220.875 57.9323 220.703 57.349 220.245 56.9636C219.547 56.3906 216.797 53.1406 211.99 47.224L212.005 47.2448L211.922 47.1458C208.609 43.5469 206.057 40.6615 204.266 38.4948L204.214 38.4323C202.635 36.7083 201.651 35.6875 201.266 35.375C200.646 34.8698 200.016 34.7813 199.375 35.1198C198.667 35.4844 198.375 36.3021 198.615 37.0365L114.813 119.818C114.807 119.401 114.802 119.078 114.797 118.865L114.802 118.885L114.797 118.859C114.797 118.714 114.802 117.792 114.813 116.094V116.068C114.792 114.115 114.776 112.01 114.766 109.755L114.792 104.193V104.161C114.776 102.771 114.766 101.172 114.76 99.3542V99.349C114.75 98.2448 114.74 97.4375 114.729 96.9271L114.724 96.9063C114.625 94.3958 114.578 92.5313 114.578 91.3073C114.589 90.0365 114.667 87.1771 114.813 82.7344V82.6927C114.823 82.1875 114.823 81.75 114.823 81.3958V81.3854C114.818 79.4271 114.818 78.0573 114.828 77.2865V77.2708C114.833 76.125 114.859 74.3281 114.911 71.8646V71.8386C114.922 71.4115 114.927 70.8281 114.927 70.0886C114.938 69.0261 114.932 68.1511 114.922 67.4583V67.4531L114.771 59.1094V59.0938C114.766 58.875 114.76 57.7917 114.76 55.849V55.8281L114.729 53.349L114.745 49.2813L114.828 46.3438V46.3333C114.839 45.7708 114.844 45.2136 114.844 44.6667L114.839 44.6615C114.839 43.7969 114.818 43.0156 114.781 42.3177V42.2917C114.38 36.0938 114.167 32.099 114.146 30.3177V30.3021L114.042 25.0313C114.036 24.7344 114.036 24.3438 114.036 23.849V23.8594C114.047 22.4219 114.052 21.6198 114.047 21.4583C114.047 21.4479 114.047 21.4427 114.047 21.4375C114.026 20.1354 114.005 18.4636 113.984 16.4219C114.005 15.5104 114.016 14.9531 114.005 14.7552V14.75C114.005 14.724 114.005 14.6979 114.005 14.6719C113.953 13.8906 113.339 13.3073 112.589 13.2083C112.276 12.8229 111.813 12.5729 111.276 12.599L108.109 12.7656L107.953 12.7813C108 12.7761 108.042 12.7708 108.078 12.7656C107.938 12.7761 107.297 12.7813 106.161 12.7865H106.115C105.354 12.8125 104.651 12.8333 104.016 12.8438L103.948 12.849C102.516 12.9323 100.505 13.0052 97.9115 13.0573H97.8906H97.8958C95.9844 13.0938 94.9427 13.1146 94.7708 13.1094C95.375 13.1198 95.8073 13.3906 96.0781 13.8854C95.7969 13.4219 95.2969 13.1146 94.7292 13.1042L90.4948 13.0521L88.3438 13H88.3229C87.974 12.9948 87.6823 12.9948 87.4531 12.9948H87.4583C87.1042 12.9948 86.6823 13.0052 86.1927 13.0156H86.1823C84.0521 13.0833 82.7344 13.125 82.2396 13.1354H82.2292C81.1615 13.1719 80.2031 13.224 79.3542 13.2865H79.3438L73.9323 13.7188H73.9427C73.9063 13.724 73.8438 13.7292 73.8073 13.7344L73.4271 7.92189C73.375 7.15105 72.7865 6.57814 72.0573 6.46355C71.8125 5.9896 71.3646 5.63543 70.7969 5.58335C68.3385 5.35418 66.8177 5.23439 66.2448 5.22397L66.3073 5.22918C65.6302 5.18751 64.026 5.12501 61.4896 5.03647H61.4948C61.5104 5.03647 61.4792 5.03647 61.4583 5.03647L58.026 4.8698H58.0104C56.2552 4.79689 55.1771 4.76043 54.7656 4.75522C54.2552 4.7448 53.75 4.73959 53.2396 4.7448L53.6406 4.79168C53.5104 4.76043 53.375 4.7448 53.2292 4.7448C53.0625 4.7448 51.9688 4.75522 49.9427 4.78647C49.1094 4.80209 48.1927 4.81772 47.1927 4.84376H47.1771C45.5833 4.89585 44.5833 4.92709 44.1719 4.93751H44.1458C43.9375 4.94272 43.2552 4.94272 42.1094 4.94272H42.0885C41.8854 4.94272 41.6875 4.94793 41.4948 4.95835C40.6042 5.00001 39.9167 5.75522 39.9583 6.64585C39.9688 6.88543 40.0365 7.10418 40.1406 7.3021C39.9583 7.53647 39.8125 7.80209 39.776 8.1198C39.6146 9.66668 39.4063 14.1823 39.1615 21.6667C39.0833 23.9271 39.0365 26.2396 39.026 28.5938V28.6042C39.0208 29.125 39.026 29.6458 39.0365 30.1719V30.1875C39.0417 30.5365 39.0521 30.8698 39.0573 31.1875C38.7031 31.1771 38.4115 31.1719 38.2604 31.1823H38.2708C38.2604 31.1823 38.276 31.1823 38.2656 31.1823C37.5313 31.1979 36.5833 31.2396 35.4219 31.3021L33.5729 31.375C31.8021 31.4011 30.5417 31.4323 29.7917 31.4688L29.7448 31.474L26.8906 31.6875L24.474 31.8333H24.4427L22.5052 31.9844C21.6198 32.0313 20.2135 32.125 18.2656 32.2656L16.0885 32.3854C15.4792 32.4167 14.9792 32.7969 14.7344 33.3177C14.4531 33.5573 14.2344 33.8802 14.1667 34.2813C14.0521 35.0156 14.0625 36.2292 14.2031 37.9219C14.3125 39.9636 14.6771 44.0417 15.3073 50.1511C15.4375 51.7917 15.6302 54.4792 15.8802 58.224C15.9271 58.8542 16.3229 59.3698 16.8698 59.6042C16.2917 59.4167 15.9635 58.9896 15.8958 58.2917C15.9323 58.6979 16.0469 61.8698 16.2292 67.8125L16.2344 67.8594C16.2552 68.2656 16.2604 70.3698 16.25 74.1615C16.2344 75.3073 16.2083 76.8542 16.1667 78.8021V78.8333C16.1615 81.0781 16.151 82.4844 16.1406 83.0573L16.026 87.6406V87.7083C16.0677 90.1615 16.0885 92.5729 16.0885 94.9479L15.8854 100.479V100.495C15.8594 101.458 15.849 102.698 15.849 104.214V104.224C15.8542 104.802 15.8698 105.536 15.901 106.432V106.464C16.1458 111.135 16.2552 113.693 16.2344 114.141C16.2344 114.135 16.2344 114.135 16.2344 114.13L16.2292 114.245V114.281C16.2552 115.26 16.224 117.016 16.1458 119.547V119.625L16.2083 123.203L16.1406 129.505V129.51C16.1406 129.979 16.1406 130.448 16.151 130.901V130.932C16.2813 134.469 16.3646 137.245 16.3906 139.25L16.3958 139.286L16.7708 149.833L16.776 149.927C16.7708 149.911 16.7708 149.896 16.7708 149.891C16.776 149.958 16.776 150.12 16.7708 150.354L13.9323 150.422H13.8854C13.1458 150.464 10.4323 150.396 5.7448 150.224H5.70313C4.18751 150.208 2.98959 150.234 2.09896 150.307C1.20313 150.375 0.541672 151.156 0.60938 152.047C0.666672 152.729 1.13542 153.271 1.75001 153.458C1.75001 153.5 1.72917 153.536 1.72917 153.578C1.72396 153.932 1.72917 154.193 1.73438 154.354V154.385C1.79167 155.417 1.82292 156.448 1.82813 157.479C1.83334 158.297 1.83855 159.026 1.83334 159.672C1.83334 159.755 1.84375 159.839 1.85417 159.922C1.84375 159.849 1.83855 159.776 1.83334 159.708C1.83855 159.839 1.82813 160.74 1.80209 162.406V162.901C1.80209 163.443 1.81251 163.958 1.82813 164.458C1.84896 164.948 1.8698 165.438 1.90105 165.927V165.938C2.04688 168.021 2.12501 169.188 2.13542 169.427V169.443L2.30209 172.891V172.901C2.38542 174.38 2.44792 175.339 2.48438 175.776C2.56771 176.667 3.35417 177.323 4.2448 177.24C4.80209 177.193 5.23959 176.849 5.48959 176.391C5.85417 176.693 6.33855 176.854 6.83855 176.745C7.72917 176.557 10.2813 176.458 14.4896 176.453C14.5885 176.453 14.6875 176.443 14.7813 176.427C14.7031 176.443 14.6302 176.448 14.5677 176.448L14.5625 176.453C14.7969 176.443 16.3229 176.464 19.151 176.51H19.2083C22.4427 176.448 25.9115 176.448 29.6094 176.51L41.0417 176.797H41.0573C43.1302 176.833 44.9896 176.839 46.6354 176.813H46.6094C51.0469 176.818 56.375 176.677 62.5833 176.391C72.7917 176.276 80.8125 176.12 86.6563 175.927C92.5677 175.969 98.2708 176.078 103.76 176.266H103.766C104.813 176.297 107.958 176.297 113.214 176.266H113.198C115.635 176.271 120.682 176.052 128.333 175.615C130.906 175.536 133.365 175.505 135.708 175.521C140.906 175.557 150.021 175.844 163.047 176.385C163.057 176.385 163.068 176.385 163.078 176.385C163.505 176.417 165.859 176.427 170.135 176.422C170.875 176.427 171.823 176.438 172.979 176.464C181.563 176.755 189.229 176.964 195.984 177.099L232.255 178.651H232.281C238.021 178.802 246.766 179.115 258.51 179.583H258.552C262.057 179.63 264.479 179.635 265.802 179.594H265.807L287.615 178.885C291.906 178.802 297 178.766 302.901 178.771H302.938C309.328 178.625 313.974 178.542 316.875 178.516H316.911L324.979 178.271C332.927 178.307 338.688 178.484 342.297 178.813C342.495 178.979 342.724 179.115 342.995 179.172C344.542 179.5 346.276 179.745 348.193 179.911H348.25C349.745 179.99 352.005 180.172 355.031 180.464H355.078C355.922 180.521 357.677 180.573 360.333 180.615H360.365C362.792 180.604 364.38 180.594 365.141 180.573H365.203H365.198C367.953 180.505 370.693 180.448 373.406 180.396H373.443C379.365 180.161 387.844 179.859 398.885 179.495C404.203 179.359 407.552 179.286 408.927 179.286H408.938L415.74 179.24L422.875 179.255H422.891C425.995 179.229 427.656 179.219 427.875 179.224H427.87C426.922 179.198 426.411 178.703 426.328 177.745V177.693C426.375 178.542 427.063 179.214 427.917 179.229L438.193 179.391C439.698 179.417 442.12 179.479 445.458 179.589H445.479C446.438 179.604 447.901 179.62 449.87 179.63H449.88C450.635 179.625 451.651 179.615 452.927 179.589H452.938C462.172 179.339 467.328 179.219 468.401 179.234H468.406C471.13 179.271 473.964 179.391 476.901 179.594C476.984 179.599 477.057 179.568 477.135 179.563C477.318 179.641 477.51 179.698 477.719 179.708C478.047 179.719 478.375 179.729 478.708 179.729H478.729C479.578 179.719 480.089 179.714 480.266 179.719H480.281L486.698 179.849H486.708C487.313 179.859 487.854 179.859 488.339 179.854C488.786 179.854 489.38 179.839 490.12 179.818H490.13L500.26 179.453C500.422 179.448 500.583 179.417 500.714 179.37C500.568 179.422 500.427 179.448 500.292 179.453C500.495 179.443 501.781 179.443 504.151 179.453H504.167C507.141 179.438 509.292 179.417 510.62 179.401L514.359 179.438H514.401C516.151 179.406 517.786 179.391 519.313 179.391L519.344 179.385C519.708 179.38 521.156 179.401 523.677 179.448H523.688C524.214 179.453 524.656 179.453 525.021 179.448H525.016C525.583 179.448 526.146 179.432 526.714 179.417H526.719L531.641 179.234C532.109 179.219 532.568 179.214 533.016 179.214L537.083 179.286H537.115C539.12 179.292 540.318 179.297 540.708 179.307H540.719L544.766 179.391H544.792C545.333 179.396 545.875 179.391 546.417 179.385H546.432C548.891 179.333 550.859 179.307 552.323 179.302H552.328C553.568 179.297 555.188 179.302 557.198 179.328L563.438 179.474C566.229 179.599 568.12 179.661 569.115 179.661C569.641 179.667 570.156 179.661 570.667 179.651L575.948 179.552C577.896 179.557 579.432 179.573 580.552 179.594C582.385 179.63 583.818 179.682 584.865 179.745H584.891C585.635 179.776 587.464 179.922 590.375 180.182H590.406C591.052 180.229 591.714 180.255 592.396 180.26H592.401C593.849 180.271 594.625 180.276 594.734 180.271H594.74C596.219 180.266 597.646 180.266 599.016 180.271L603.984 180.297H604.042L609.417 180.135C609.828 180.125 611.286 180.125 613.797 180.13H613.833C615.792 180.089 617.719 180.063 619.62 180.057C622.557 180.089 625.271 180.156 627.76 180.255L627.828 180.26C630.568 180.255 632.557 180.167 633.781 180.005C634.667 179.885 635.286 179.073 635.172 178.188C635.141 177.958 635.063 177.75 634.948 177.568L636.391 159.964C636.443 159.792 636.474 159.62 636.479 159.443ZM619.422 51.474C619.349 51.7083 619.229 51.9375 619 52.1406C619.208 51.9531 619.333 51.7188 619.422 51.474ZM594.302 53.6667C602.854 52.9219 609.172 51.8333 613.281 50.4115C614.495 50.4011 615.5 50.599 616.302 50.9948C616.297 51.0573 616.271 51.099 616.271 51.1615C616.281 52.1823 617.073 56.0677 618.661 62.8125C620.245 72.5521 621.286 79.6927 621.792 84.224L621.813 84.3594L622.984 90.3542C623.865 95.6198 624.521 102.458 624.953 110.88C624.958 110.953 624.964 111.031 624.979 111.104C626.385 118.328 627.573 125.781 628.542 133.464L628.568 133.604L630.729 143.599C631.182 146.021 631.401 147.599 631.385 148.328C627.896 152.125 617.464 155.104 600.052 157.255C599.589 157.307 599.203 157.563 598.953 157.911C598.578 157.948 598.193 157.99 597.828 158.026C598.099 157.776 598.302 157.448 598.349 157.052V157.042C598.479 155.974 598.047 152.87 597.057 147.74L596.536 142.182L596.526 142.083L589.38 96.2604L588.839 91.2396L588.823 91.1094L586.49 78.8698C586.479 78.8021 586.458 78.7396 586.438 78.6719C585.172 74.7761 584.333 71.2396 583.927 68.0573L583.917 67.974C583.161 63.7865 582.854 60.1198 582.99 56.9688C583.057 56.9271 583.151 56.8802 583.286 56.8386C588.302 55.6823 591.964 54.625 594.302 53.6667ZM583.333 79.5573L585.641 91.6458L586.177 96.6458L586.188 96.7188L593.328 142.531L593.849 148.115L593.891 148.354L593.87 148.271C594.807 153.125 595.234 155.917 595.146 156.661V156.651C595.068 157.292 595.38 157.88 595.885 158.203C588.885 158.849 583.443 159.161 579.615 159.135C579.182 159.125 578.703 159.12 578.255 159.109C578.359 159.036 578.474 158.974 578.557 158.875C579.781 157.469 580.37 155.469 580.328 152.875C580.333 152.469 580.333 152.083 580.318 151.729V151.677C580.182 149.807 580.109 148.557 580.109 147.922V147.911L580.031 137.302L580.026 137.26C579.943 134.859 579.891 132.115 579.859 129.036V128.995C579.703 124.234 579.625 121.688 579.635 121.359C579.63 121.474 579.609 121.599 579.573 121.729V121.734C579.609 121.609 579.63 121.474 579.635 121.339L579.813 115.375L579.818 115.328C579.818 111.755 579.823 109.823 579.839 109.531L579.833 109.604L579.839 109.49L580.083 99.4531C580.089 99.4479 580.089 99.4427 580.089 99.4323C580.099 99.1146 580.089 97.3073 580.057 94.0261L580.104 86.1458V86.099C580.089 85.3594 580.224 81.8073 580.505 75.4375V75.4167C580.531 74.5261 580.552 73.7552 580.557 73.099V73.0886C580.573 70.4948 580.589 68.7083 580.604 67.6927C580.651 67.9792 580.688 68.2552 580.74 68.5469L580.729 68.4636C581.156 71.8125 582.026 75.5156 583.333 79.5573ZM551.307 10.4583L551.313 10.375C551.635 5.97397 555.276 3.67709 562.224 3.47918L562.323 3.47397C566.964 3.06251 570.656 3.0573 573.391 3.45835C576.208 3.8698 577.833 4.69793 578.292 5.9271C578.203 6.14585 578.146 6.37501 578.156 6.63022L578.151 6.6146C578.167 6.98439 578.172 7.44272 578.177 8.00001C578.141 9.6771 578.135 10.6719 578.156 10.9844L578.151 10.8854L578.156 10.9792C578.651 19.5156 578.896 26.4792 578.891 31.8646C578.828 35.125 578.76 37.5156 578.688 39.0365V39.0469C578.583 41.5156 578.339 45.4531 577.964 50.849V50.8698L577.958 50.8802C577.865 52.5781 577.792 54.125 577.745 55.5261C577.693 56.4896 577.578 60.2031 577.396 66.6823L577.401 66.6615C577.375 67.1823 577.354 69.3177 577.328 73.0625C577.323 73.6927 577.307 74.4427 577.281 75.3125C576.995 81.7448 576.859 85.3646 576.88 86.1719V86.125L576.828 94.0208V94.0469C576.859 97.2865 576.875 99.0417 576.865 99.3073C576.865 99.2604 576.87 99.2136 576.88 99.1563C576.865 99.224 576.859 99.2969 576.859 99.3698L576.615 109.411V109.401C576.594 109.807 576.589 111.766 576.589 115.302L576.406 121.245L576.469 120.854C576.427 120.99 576.406 121.141 576.406 121.307C576.401 121.688 576.474 124.281 576.635 129.083C576.661 132.172 576.719 134.922 576.802 137.344L576.885 147.938V147.927C576.885 148.63 576.953 149.948 577.094 151.865C577.104 152.167 577.104 152.5 577.099 152.865V152.922C577.13 154.693 576.802 155.974 576.12 156.76C575.536 157.432 575.609 158.453 576.281 159.036C576.302 159.052 576.328 159.057 576.349 159.073C572.156 159.01 567.411 159.005 562.073 159.063L556.115 158.885C556.109 158.839 556.125 158.797 556.12 158.755C555.995 158.026 555.396 157.526 554.698 157.448C554.349 157.219 553.818 156.5 553.089 155.276C553.073 155.245 553.047 155.229 553.026 155.203C552.953 154.969 552.891 154.469 552.844 153.693L553.135 137.615C553.672 128.474 553.901 122.708 553.828 120.292C553.958 112.359 554.021 99.8125 554.021 82.6563V82.625L553.375 48.4896V48.4323C552.573 33.7656 551.745 22.9427 550.891 15.9688C550.88 15.7188 550.88 15.4531 550.885 15.1875C551.234 14.8125 551.417 14.2917 551.297 13.7552C551.224 13.4427 551.125 13.1406 551.01 12.8438C551.078 12.1094 551.167 11.3438 551.297 10.5104L551.307 10.4583ZM550.536 158.724L531.26 159.146C531.167 159.083 531.089 159.01 530.984 158.969C529.781 158.5 529.078 158.104 528.807 157.766L528.849 153.38L528.839 153.182C528.516 150.297 528.365 148.531 528.385 147.891V147.833L528.115 109.984C528.453 105.396 528.677 94.7865 528.797 78.1458V78.1094L528.24 38.474C528.516 25.5365 528.771 18.2865 529.005 16.6927C529.104 16.4896 529.182 16.2761 529.188 16.0417C529.208 15.6042 529.24 15.1979 529.281 14.8125C529.557 14.8542 529.802 14.8854 530.016 14.9011C530.047 14.9011 530.078 14.9063 530.115 14.9115C530.271 14.9167 530.703 14.9271 531.411 14.9375L531.406 14.9323C532.068 14.9479 534 14.9323 537.214 14.8854H537.208C537.724 14.8802 539.438 14.8229 542.354 14.724H542.339C542.896 14.7083 544.198 14.6406 546.234 14.5261C546.484 14.5104 546.964 14.4948 547.667 14.4792C547.646 15.0625 547.641 15.625 547.667 16.1511L547.677 16.2761C548.526 23.1719 549.349 33.9427 550.151 48.5781L550.792 82.6719C550.792 99.8125 550.729 112.339 550.599 120.255V120.333C550.677 122.62 550.448 128.328 549.911 137.464V137.526L549.615 153.703L549.62 153.828C549.688 155 549.818 155.844 550.01 156.37C550.104 156.615 550.229 156.823 550.37 157.01C550.781 157.698 551.172 158.266 551.552 158.75L550.62 158.724H550.536ZM540.729 10.4792C541.094 10.6771 541.313 11.0261 541.38 11.5261C541.375 11.5261 541.37 11.5261 541.37 11.5261C541.266 11.0573 540.974 10.6719 540.552 10.4531C540.615 10.4636 540.672 10.4688 540.729 10.4792ZM538.005 10.2917C537.474 10.3021 536.99 10.3177 536.495 10.3333C536.453 10.25 536.401 10.1719 536.349 10.0938C537.281 10.1354 538.161 10.1875 538.984 10.2708C538.625 10.2761 538.286 10.2813 538.005 10.2917ZM527.833 17.5573C527.151 17.7604 526.594 17.5156 526.172 16.7761C526.505 17.3646 527.172 17.6615 527.833 17.5573ZM552.984 155.156C552.896 155.031 552.807 154.911 552.688 154.818C552.828 154.927 552.922 155.042 552.984 155.156ZM526.74 14.5521C526.734 14.5521 526.734 14.5521 526.734 14.5521H526.74ZM495 121.536C494.615 121.641 494.276 121.891 494.057 122.24C493.99 122.354 493.938 122.474 493.896 122.594C494.036 121.995 494.401 121.641 495 121.536ZM493.818 123.021C493.818 123.057 493.828 123.099 493.828 123.135C493.828 123.12 493.818 123.104 493.818 123.089V123.021ZM493.818 123.016V123.01C493.818 122.99 493.828 122.974 493.828 122.958C493.828 122.974 493.818 122.995 493.818 123.016ZM505.203 67.0365L505.214 67.0313C506.432 66.7917 507.406 66.6615 508.146 66.6302C505.578 69.6563 504.104 71.4896 503.755 72.099C503.75 72.1042 503.75 72.1094 503.745 72.1146C500.271 77.4844 497.714 81.5261 496.068 84.2448C496.682 80.349 496.995 77.8802 496.995 76.8438C497.146 75.4063 497.214 73.0365 497.203 69.75C499.307 68.5677 501.953 67.6563 505.203 67.0365ZM493.901 64.0313C493.932 65.4531 493.953 66.7865 493.969 67.9896C493.38 68.5261 493.24 69.4115 493.703 70.0886C493.781 70.1927 493.885 70.2656 493.979 70.349C493.979 73.2188 493.917 75.3021 493.781 76.5521C493.776 76.625 493.771 76.6979 493.776 76.7708C493.807 77.8125 493.25 81.7188 492.115 88.4063C491.75 88.3958 491.495 88.3906 491.37 88.3958H491.417H491.38C490.672 88.4115 489.542 88.4167 487.984 88.4063H487.932L487.365 88.4271C487.432 88.2604 487.49 88.0886 487.495 87.9011C487.729 82.4636 488.688 77.5365 490.37 73.1198L490.401 73.0261C491.635 69.0781 492.802 66.099 493.901 64.0313ZM485.792 54.7969L484.292 55.3125C484.271 55.2656 484.234 55.2344 484.224 55.1771L485.792 54.7969ZM484.953 57.6094C484.974 57.5677 484.99 57.5313 485.005 57.4896C486.24 61.1094 486.922 63.1927 487.031 63.7031L487.047 63.7813C487.63 65.9531 487.885 67.2917 487.818 67.7865C487.828 67.6979 487.875 67.5938 487.948 67.474C487.542 68.1198 487.672 68.9219 488.182 69.4479C487.896 70.2813 487.609 71.1458 487.323 72.0677L487.354 71.974C486.484 74.25 485.807 76.6511 485.302 79.1719C485.031 78.2708 484.745 77.3438 484.406 76.349L484.422 76.4063C484.057 75.1823 482.828 72.4323 480.755 68.1927C481.313 68.0521 481.786 67.6406 481.943 67.0469C482.62 64.4115 483.01 62.9479 483.115 62.6563C483.099 62.6927 483.078 62.724 483.063 62.7552C483.13 62.6146 483.172 62.4688 483.198 62.3177C483.188 62.3594 483.193 62.3906 483.182 62.4323C483.271 62.125 483.865 60.5156 484.953 57.6094ZM481.026 63.5573L480.964 63.5313C480.974 63.5365 480.984 63.5365 481 63.5417C481.01 63.5469 481.016 63.5573 481.026 63.5573ZM482.63 63.3125C482.786 63.1875 482.901 63.0365 483 62.8698C482.906 63.0313 482.792 63.1823 482.63 63.3125ZM483.219 62.1667C483.245 61.7761 483.141 61.375 482.88 61.0469C482.76 60.8958 482.609 60.7865 482.453 60.6927C483.068 61.0208 483.323 61.5104 483.219 62.1667ZM482.234 60.5729C482.266 60.5833 482.281 60.599 482.313 60.6146C481.771 60.3542 481.109 60.3958 480.609 60.7969C481.109 60.3958 481.651 60.3229 482.234 60.5729ZM481.328 77.3281L481.349 77.3854C483.172 82.7448 483.891 86.4115 483.505 88.375C483.495 88.4115 483.51 88.4479 483.505 88.4844C482.406 88.4896 481.766 88.4844 481.604 88.4792H481.599C481.641 88.4792 481.688 88.4844 481.74 88.4948C481.672 88.4844 481.609 88.4792 481.542 88.474L476.891 88.2656H476.859C475.859 88.2396 474.958 88.2136 474.104 88.1927C473.641 83.7448 473.63 79.4583 474.094 75.3386V75.3281C474.406 72.3594 474.87 69.5781 475.49 66.9896L475.5 66.9583C475.583 66.5625 475.714 66.0938 475.844 65.6198C476.089 66.0729 476.328 66.5313 476.583 67.0365C479.365 72.6146 480.948 76.0469 481.328 77.3281ZM461.62 87.8229C461.63 87.6771 461.635 87.5156 461.641 87.3386L461.635 87.2083C461.516 85.4323 461.479 84.1146 461.521 83.2552L462.063 74.1823C462.818 75.2136 463.818 76.7396 465.073 78.7969C467.24 82.5521 468.38 85.2813 468.5 86.9896C468.531 87.4115 468.729 87.7761 469.01 88.0417C467.875 88.0052 467.12 87.974 466.771 87.9531L466.693 87.9479C464.698 87.9167 463.01 87.875 461.62 87.8229ZM458.297 85.0886C458.318 85.75 458.354 86.4948 458.411 87.3386C458.406 87.5 458.401 87.6198 458.391 87.6823C458.391 87.6823 458.391 87.6771 458.391 87.6719C458.385 87.7083 458.396 87.7396 458.391 87.7708C458.01 87.7656 457.625 87.7552 457.224 87.7396C457.604 87 457.964 86.125 458.297 85.0886ZM460.234 65.1198C461.104 60.3438 461.927 56.9271 462.703 54.875L462.745 54.7604C462.948 54.0781 463.651 52.3594 464.854 49.6302C466.656 53.2292 467.708 55.4427 467.995 56.2604L468 56.2708C470.391 62.8594 471.641 66.5365 471.75 67.3021C471.729 67.1563 471.745 66.9896 471.802 66.8021C471.672 67.25 471.755 67.7031 471.979 68.0729C471.526 70.2708 471.141 72.5521 470.885 74.9844C470.609 77.4323 470.505 79.9323 470.542 82.4792C469.901 80.9323 469.016 79.1667 467.865 77.1719L467.844 77.1354C465.344 73.0365 463.547 70.6406 462.453 69.9531C461.927 69.6198 461.401 69.5 460.875 69.5938C460.495 69.6615 460.167 69.8073 459.896 70.0417C459.885 69.8698 459.88 69.7083 459.87 69.5365C459.792 68.4583 459.62 67.3542 459.401 66.2292C459.818 66.0052 460.141 65.625 460.234 65.1198ZM451.391 53.6823C453.234 57.9323 454.401 60.7396 454.88 62.0886L454.891 62.1094C455.891 64.8177 456.479 67.3698 456.651 69.7708V69.7813C456.938 73.4636 456.839 76.6875 456.359 79.4479C455.552 83.7552 454.646 86.3906 453.646 87.349C453.542 87.4531 453.479 87.5729 453.411 87.6927C453.25 87.6875 453.089 87.6823 452.964 87.6771H452.958C451.51 87.625 449.385 87.5052 446.589 87.3125H446.557C446.036 87.2865 445.5 87.2813 444.969 87.2656C444.578 80.5156 445.26 73.1354 447.047 65.1042C448.776 58.8281 450.219 55.0417 451.391 53.6823ZM431.766 86.4323C430.13 80.9323 429.052 73.1771 428.521 63.2188C431.698 65.9479 433.938 68.5104 435.214 70.9063L435.26 70.9896C438.828 76.8073 440.938 82.2083 441.635 87.2031C438.484 87.1979 435.188 87.2344 431.745 87.3177C431.823 87.0365 431.854 86.7344 431.766 86.4323ZM444.302 61.4115C444.37 61.6146 444.479 61.7917 444.609 61.9427C444.38 62.6979 444.151 63.4636 443.927 64.2917L443.906 64.3646C442.943 68.6719 442.292 72.8073 441.938 76.7761C440.885 74.349 439.578 71.8594 438.016 69.3021L438.063 69.3854C437.276 67.9063 436.167 66.3802 434.786 64.8229C434.875 64.4896 434.885 64.125 434.74 63.7813C433.719 61.3594 432.88 58.5469 432.214 55.3438L430.849 46.7604C433.615 48.2448 436.313 50.2031 438.948 52.6823C441.583 55.7083 443.37 58.6146 444.302 61.4115ZM410.172 58.9531C410.167 58.9531 410.167 58.9583 410.167 58.9531L410.052 58.8906L410.172 58.9531ZM417.979 73.6823C418.146 73.75 418.276 73.8281 418.365 73.9219C417.714 73.2396 415.766 69.5729 412.526 62.9375C411.99 61.4636 411.641 60.3281 411.458 59.5156C413.849 60.5156 415.161 61.0729 415.38 61.1823H415.385C415.38 61.1771 415.37 61.1771 415.359 61.1719L415.448 61.2136C416.807 61.8229 418.016 62.4844 419.073 63.2031C422.141 65.2969 424.234 67.3125 425.349 69.2448C425.453 69.4219 425.589 69.5625 425.734 69.6823C426.13 74.2656 426.661 78.3177 427.339 81.8021C426.109 79.8542 424.807 78.5156 423.422 77.8177L423.557 77.8958C421.953 76.8906 420.417 76.1146 418.927 75.5417C419.104 74.7813 418.729 73.9792 417.979 73.6823ZM408.479 81.8958L408.354 81.8854C406.005 81.7136 403.734 82.0208 401.536 82.7761C403.844 80.1979 407.276 78.5 411.865 77.7136C414.682 77.2604 418.01 78.2344 421.844 80.6302L421.979 80.7031C423.542 81.4896 425.094 83.7813 426.625 87.5469L419.932 87.9271C418.391 84.8386 414.594 82.8177 408.479 81.8958ZM415.99 89.8698C415.844 89.2865 415.339 88.7865 414.443 88.5938L414.854 88.6458C415.583 88.8333 415.958 89.2448 415.99 89.8698ZM415.318 113.203C414.849 111.516 414.573 109.547 414.479 107.292C414.536 105.703 414.661 103.792 414.859 101.536L414.865 101.422C414.896 99.625 415.057 96.3281 415.354 91.5573C416.016 91.4636 417.281 91.349 419.156 91.2083L429.906 90.5938C434.51 90.4583 438.865 90.4063 442.964 90.4375C444.115 90.4479 445.255 90.4792 446.396 90.5365C449.208 90.7292 451.359 90.849 452.844 90.9011H452.839C453.589 90.9323 454.818 90.9479 456.536 90.9531C458.396 91.0156 460.031 91.0469 461.443 91.0469C462.87 91.099 464.594 91.1406 466.615 91.1771C467.583 91.2344 470.964 91.3438 476.766 91.4896L481.401 91.6979L481.193 91.6771C481.266 91.6875 481.344 91.6979 481.432 91.7031C481.745 91.7188 483.12 91.7188 485.552 91.7031H485.589L487.995 91.6354C489.563 91.6458 490.714 91.6406 491.448 91.625H491.427H491.469C491.63 91.6198 492.24 91.6354 493.286 91.6823H493.333C494.453 91.6979 495.151 91.8021 495.427 91.9896H495.422C495.375 91.9531 495.328 91.8958 495.286 91.8073C495.349 91.9323 495.443 92.0261 495.531 92.1302C495.464 93.1302 495.438 93.9479 495.453 94.5729V94.6094C495.609 97.6927 495.677 99.6354 495.656 100.438V100.479C495.651 102.854 495.62 104.771 495.557 106.234V106.24C495.438 109.266 495.146 111.552 494.698 113.094L494.682 113.146C493.542 117.599 491.594 120.224 488.828 121.031C488.677 121.073 488.552 121.161 488.422 121.24C487.797 121.229 486.979 121.224 485.943 121.229H485.906L478.307 121.438C477.479 121.438 475.552 121.458 472.51 121.505C469.443 121.495 466.573 121.505 463.906 121.547H463.875L454.208 121.88H454.219C453.016 121.917 451.979 121.932 451.104 121.927L437.766 121.573C433.604 121.401 431.135 121.313 430.344 121.302C430.339 121.302 430.333 121.302 430.328 121.302C429.922 121.281 427.26 121.271 422.354 121.281H422.344C422.286 121.281 422.245 121.286 422.188 121.286C418.969 120.297 416.667 117.615 415.318 113.203ZM404.885 124.87H404.896C405.677 124.833 408.188 124.786 412.422 124.734H412.453L417.781 124.578H417.776C418.745 124.552 420.083 124.531 421.75 124.516C421.896 124.552 422.031 124.609 422.177 124.641C422.531 124.724 422.88 124.651 423.188 124.51C427.495 124.5 429.839 124.505 430.161 124.521L430.167 124.526C430.151 124.521 430.135 124.521 430.115 124.521L430.26 124.526C430.969 124.536 433.432 124.625 437.641 124.802H437.667L451.047 125.156H451.078C451.99 125.161 453.063 125.146 454.307 125.109H454.318L463.969 124.776C466.615 124.734 469.464 124.719 472.516 124.734H472.547C475.604 124.688 477.531 124.667 478.323 124.667H478.375L485.979 124.458C487.156 124.448 488.047 124.453 488.646 124.474H488.641C492.792 124.63 495.047 124.708 495.401 124.703C495.417 124.703 495.422 124.703 495.432 124.703C497.984 124.703 499.719 124.708 500.641 124.719H500.682C500.708 124.719 500.719 124.719 500.708 124.719H500.714C503.594 124.667 505.453 124.656 506.286 124.682H506.313C507.719 124.703 508.573 124.729 508.875 124.75H508.88C512.943 125.01 515.255 125.151 515.828 125.161H515.849C516.359 125.193 517.563 125.198 519.49 125.182C519.844 125.188 520.177 125.198 520.49 125.214C521.401 125.255 522.073 125.307 522.495 125.37L522.568 125.38C522.771 125.401 522.911 125.448 523 125.521C523.057 125.568 523.115 125.609 523.177 125.651C523.161 125.641 523.151 125.635 523.146 125.63C523.359 125.797 523.776 126.297 524.401 127.141C524.563 127.359 524.781 127.505 525.01 127.615L525.156 147.854V147.797C525.135 148.578 525.292 150.464 525.62 153.443L525.573 158.182C525.573 158.375 525.604 158.563 525.667 158.745C525.708 158.854 525.755 158.969 525.807 159.073C525.813 159.083 525.823 159.094 525.828 159.104C517.422 158.609 507.182 158.13 495.068 157.661H495.036L430.542 156.5H430.51L419.089 156.484L408.474 156.182L408.401 156.177L399.068 156.333C398.958 155.099 398.87 154.234 398.807 153.781L398.802 153.729L398.807 153.76C398.182 149.396 397.859 146.995 397.844 146.552V146.557C397.839 146.38 397.807 146.203 397.745 146.031C397.781 146.13 397.807 146.219 397.818 146.297C397.771 145.964 397.688 144.297 397.573 141.307V141.302C397.547 140.604 397.531 139.885 397.531 139.141C397.531 138.505 397.542 137.635 397.563 136.526V136.505C397.568 136.104 397.568 135.818 397.563 135.641V135.63L397.464 130.839C397.458 130.474 397.458 130 397.469 129.411C397.521 127.698 397.651 126.307 397.844 125.203L404.885 124.87ZM394.109 154.271V154.255C394.104 154.151 394.099 153.948 394.089 153.641C394.083 153.432 394.089 153.115 394.094 152.682C394.099 152.375 394.12 151.859 394.151 151.13V151.104C394.156 150.776 394.161 150.557 394.161 150.448V150.49C394.161 150.031 394.146 149.26 394.104 148.167V148.188C394.099 147.917 394.047 146.901 393.953 145.151C393.906 143.411 393.859 142.156 393.813 141.385V141.396C393.797 140.958 393.661 139.208 393.401 136.125C393.359 135.563 393.339 135 393.328 134.432C393.318 133.703 393.328 132.542 393.359 130.948L393.38 130.266L393.495 127.625V127.63C393.516 127.141 393.542 126.734 393.568 126.411C393.615 126.005 393.656 125.677 393.682 125.396L394.547 125.354C394.391 126.479 394.292 127.797 394.24 129.313V129.339C394.229 129.974 394.229 130.495 394.234 130.901V130.906L394.339 135.688C394.339 135.839 394.339 136.104 394.333 136.474C394.313 137.599 394.302 138.49 394.302 139.146C394.302 139.927 394.318 140.688 394.344 141.422V141.443C394.469 144.531 394.557 146.292 394.615 146.724C394.62 146.74 394.625 146.75 394.625 146.76C394.667 147.432 394.995 149.901 395.609 154.214C395.661 154.599 395.734 155.333 395.833 156.385L394.198 156.411C394.198 156.375 394.214 156.339 394.214 156.302L394.109 154.271ZM385.901 155.698C384.75 155.313 383.932 154.339 383.448 152.792C383.286 152.063 383.177 151.323 383.13 150.573V150.672L383.125 150.521V150.505C383.094 150.219 383.094 149.13 383.125 147.24V147.188C383.099 145.755 383.078 144.76 383.057 144.208V144.24C383.047 143.583 382.943 142.307 382.75 140.411C382.724 140.068 382.708 139.714 382.698 139.349C382.688 138.703 382.708 138 382.76 137.245L383.146 133.042V133L383.401 129.021C383.49 127.917 383.589 127.104 383.708 126.568C383.854 126.063 384.141 125.807 384.568 125.797C385.005 125.797 385.547 125.781 386.224 125.75H386.219L390.417 125.552C390.401 125.714 390.38 125.875 390.359 126.068L390.349 126.156C390.318 126.521 390.292 126.958 390.271 127.484V127.49L390.156 130.135V130.151L390.135 130.859V130.875C390.099 132.51 390.089 133.714 390.099 134.484V134.49C390.109 135.109 390.135 135.729 390.177 136.344L390.182 136.365V136.385C390.448 139.505 390.578 141.214 390.589 141.51V141.479V141.578C390.635 142.323 390.677 143.552 390.729 145.266V145.307C390.823 147.042 390.87 148.031 390.875 148.271L390.88 148.292C390.917 149.333 390.938 150.057 390.932 150.464V150.505C390.932 150.563 390.932 150.734 390.922 151.01C390.891 151.75 390.875 152.286 390.865 152.62V152.625C390.859 153.104 390.859 153.464 390.865 153.714C390.87 154.057 390.88 154.302 390.885 154.453V154.438L390.99 156.438C389.672 156.396 388.24 156.359 386.688 156.323C386.5 156.047 386.24 155.813 385.901 155.698ZM342.146 29.2448C356.068 30.3125 365.214 30.3177 369.625 29.2656C369.63 29.4792 369.635 29.6875 369.641 29.9531V29.9583C369.646 30.3073 369.625 31.8125 369.589 34.474V34.4896C369.583 35.1615 369.594 36.0052 369.615 37.0261V37.0625L369.969 44.6458C370.026 46.1615 370.073 47.8802 370.104 49.8073C370.12 50.6511 370.13 51.5052 370.13 52.375V52.3802C370.13 53.0729 370.12 54.4948 370.099 56.6563V56.6719C370.094 58.3177 370.089 60.25 370.073 62.474V62.4792C370.073 63 370.073 63.5208 370.078 64.0521C370.078 65.0521 370.167 68.3333 370.344 73.8906V73.875C370.406 76.4479 370.438 78.1198 370.432 78.8854V78.8906C370.411 82.2865 370.375 85.1146 370.307 87.3854V87.3958C370.271 89.2083 370.156 91.8958 369.964 95.4531L369.958 95.4844C369.927 96.4636 369.911 97.2708 369.911 97.9011C369.906 98.7136 369.932 99.7031 369.99 100.859L369.995 100.891C370.24 104.401 370.359 106.323 370.359 106.651C370.359 106.646 370.359 106.641 370.359 106.63V106.755C370.422 108.198 370.464 110.167 370.495 112.661C370.505 113.599 370.5 114.385 370.484 115.026V115.021C370.214 125.089 370.078 131.313 370.073 133.688V133.682C370.068 134.396 370.078 135.521 370.109 137.063V137.115C370.219 142.333 370.292 145.542 370.328 146.745C370.344 147.453 370.349 148.167 370.344 148.891C370.286 152.005 370.182 153.828 370.026 154.344C370.047 154.281 370.083 154.203 370.141 154.12C369.74 154.734 369.839 155.505 370.297 156.036L346.167 154.839L346.229 154.844C345.057 154.74 343.901 154.901 342.766 155.318C342.693 155.349 342.641 155.401 342.573 155.438C342.359 155.438 342.135 155.443 341.917 155.443C341.776 153.833 341.75 150.839 341.839 146.469C342.505 137.182 343.078 125.068 343.547 110.125V110.068C343.521 101.583 343.042 90.1458 342.109 75.7604C342.432 73.3438 342.073 57.9427 341.021 29.5156C341.229 29.4011 341.604 29.3073 342.146 29.2448ZM337.995 38.3646C337.547 38.9063 337.531 39.6511 337.875 40.224C337.422 39.6511 337.443 39.0313 337.995 38.3646ZM313.891 40.8802C313.964 40.8906 314.036 40.8958 314.109 40.8906C327.932 40.6198 335.948 40.5886 338.198 40.7865C338.948 62.3386 339.188 73.875 338.917 75.3386C338.917 75.3333 338.922 75.3229 338.927 75.3073C338.885 75.4688 338.87 75.6406 338.88 75.8073C339.813 90.1927 340.292 101.609 340.318 110.057C339.849 124.964 339.281 137.042 338.615 146.281V146.365C338.526 150.703 338.547 153.74 338.682 155.5L314.589 156.245H314.583C313.615 156.276 311.979 156.297 309.698 156.302C309.698 156.245 309.719 156.193 309.714 156.13C309.401 153.042 309.453 145.089 309.88 132.286L311.536 100.198V100.161L313.052 50.7448L313.75 40.8802C313.802 40.8854 313.823 40.875 313.891 40.8802ZM310.578 35.0521L310.573 34.9948L310.578 34.974C310.578 35 310.573 35.0261 310.578 35.0521ZM310.964 16.7083C310.984 17.1719 311.005 17.6979 311.01 18.3229C311.01 18.6719 311 19.0261 310.984 19.3802V19.3854C310.938 20.3802 310.885 21.3854 310.823 22.4011V22.4271V22.4219C310.813 22.6875 310.802 22.9636 310.797 23.25V23.2552C310.786 23.5886 310.786 23.8542 310.792 24.0625L310.818 25.0677L310.823 25.1354C310.818 25.1146 310.818 25.0938 310.818 25.0781C310.818 25.1302 310.823 25.4063 310.828 25.9115C310.833 26.0469 310.88 26.1719 310.911 26.2969C310.938 26.4323 310.964 26.5677 310.964 26.6302L310.969 26.7708C310.969 26.7448 310.969 26.7188 310.964 26.7031C310.969 26.8281 310.964 27.3229 310.948 28.1927C310.938 28.5833 310.917 28.9844 310.891 29.4011V29.4375V29.4323C310.885 29.5677 310.833 30.3021 310.729 31.6354V31.6511C310.698 32.125 310.667 32.7083 310.635 33.4011V33.4063C310.599 34.3125 310.578 34.8281 310.573 34.9427C310.568 35.099 310.563 35.7083 310.552 36.7761C310.552 36.7708 310.552 36.7708 310.552 36.7708V36.7761C310.547 36.8125 310.547 36.9115 310.542 37.0729C310.51 37.6198 310.495 38.0261 310.484 38.2865C310.474 38.6823 310.464 39.1458 310.464 39.6771C310.464 39.8542 310.51 40.0208 310.563 40.1823L309.828 50.5521L309.823 50.6146L308.313 100.047L306.656 132.135V132.161C306.229 144.932 306.177 152.969 306.49 156.302C301.807 156.276 298.568 156.229 296.797 156.167H296.786L290.042 155.927L290.177 154.266L290.182 154.167L290.661 126.557C291.771 105.646 292.26 94.474 292.13 93.0417L292.766 84.2708L292.771 84.1927L293.536 52.2604C294.146 44.3802 294.443 39.4948 294.432 37.6094V37.6667C294.583 32.0365 294.656 28.9896 294.641 28.5208V28.5261C294.635 28.5052 294.63 28.4948 294.63 28.4792L294.401 15.9219C294.516 15.9115 294.656 15.9063 294.823 15.9063L310.964 16.7083ZM266.255 155.25H266.245C258.057 155.427 253.578 155.51 252.813 155.5H252.776C251.469 155.516 248.875 155.49 245.036 155.427C265.578 116.318 280.583 85.0417 290.089 61.5573L289.547 84.0781L288.901 92.9636C288.885 93.1354 288.901 93.3073 288.943 93.4688C288.927 93.4167 288.917 93.3698 288.917 93.3333C289.036 94.5417 288.542 105.573 287.438 126.417V126.474L286.953 154.057L286.813 155.813L270.901 155.24H270.865C269.365 155.224 267.828 155.224 266.255 155.25ZM181.703 150.745C179.849 150.651 177.766 150.594 175.453 150.568H175.432C170.188 150.557 164.813 150.516 159.313 150.448C152.901 150.229 147.135 150.094 142.021 150.047C140.823 149.995 139.599 149.948 138.375 149.896C138.422 149.854 138.484 149.833 138.531 149.786C151.057 136.62 164.276 123.448 178.203 110.266L178.271 110.193L215.443 70.2708C207.844 84.2813 201.828 95.7708 197.38 104.76C196.859 104.854 196.391 105.177 196.177 105.698C195.339 107.724 194.844 108.87 194.688 109.146C194.766 109.005 194.891 108.875 195.047 108.75C194.875 108.88 194.734 109.047 194.625 109.245C189.266 118.802 183.875 128.76 178.464 139.12C178.052 139.906 178.354 140.88 179.146 141.297C179.344 141.401 179.552 141.458 179.76 141.474C179.797 141.495 179.818 141.526 179.854 141.547C180.474 141.844 182.109 142.854 184.75 144.568C188.927 147.438 192.667 149.906 196 152.01C188.375 151.177 183.604 150.755 181.703 150.745ZM114.62 149.271L114.839 145.479L114.844 145.464C114.87 144.927 114.88 144.391 114.875 143.865C114.88 142.995 114.87 142.089 114.844 141.146V141.109C114.703 138.255 114.635 136.286 114.641 135.219V135.203C114.635 134.203 114.641 133.453 114.656 132.958L114.792 129.62L114.797 129.568L114.813 127.604C121.292 135.333 127.88 142.719 134.594 149.75C130.333 149.594 125.948 149.453 121.411 149.339H121.391C118.734 149.307 116.49 149.281 114.62 149.271ZM111.781 22.9271C111.911 22.9844 112.052 23.0261 112.198 23.0469L112.042 23.0313C111.943 23.0052 111.87 22.9636 111.781 22.9271ZM184.74 144.557L184.734 144.552C184.734 144.557 184.74 144.557 184.745 144.557H184.74ZM208.25 146.589L212.031 140.813L224.974 147.401C230.135 150.26 234.422 152.813 237.865 155.073L204.573 152.911C205.156 152.115 206.375 150.016 208.25 146.589ZM246.333 70.9271L252.844 58.4636C255.635 59.7136 259.042 61.3594 263.146 63.4479C271.88 68.3333 277.854 71.8698 281.068 74.0573C281.13 74.099 281.203 74.1094 281.271 74.1458C271.896 95.5625 258.87 122.151 242.156 153.964C242.141 153.995 242.146 154.031 242.13 154.063C238.271 151.354 233.068 148.193 226.521 144.568L226.469 144.542L213.401 137.885C213.661 137.38 214 136.724 214.422 135.88C214.448 135.833 214.443 135.781 214.464 135.734C214.958 135.646 215.411 135.359 215.641 134.875L246.333 70.9271ZM255.151 54.0469L276.385 64.6927L276.432 64.7136C276.943 64.9479 279.172 66.1979 283.13 68.4636C283.292 68.5573 283.474 68.6042 283.651 68.6354C283.292 69.474 282.932 70.3229 282.563 71.1771C279.208 68.9219 273.266 65.4063 264.688 60.6146L264.635 60.5833C260.557 58.5052 257.156 56.8594 254.344 55.599L255.151 54.0469ZM294.552 29.0313C294.24 29.9792 293.651 30.3229 292.813 30.1198C293.573 30.2188 294.302 29.7708 294.552 29.0313ZM293.646 27.0365C293.625 27.0261 293.604 27.0313 293.583 27.0208C293.557 27.0104 293.542 27 293.516 26.9896L293.646 27.0365ZM292.635 30.0729C292.573 30.0573 292.516 30.0521 292.453 30.0261C292.406 30.0104 292.375 29.9896 292.333 29.974C292.427 30.0156 292.531 30.0469 292.635 30.0729ZM267.865 41.8333C279.547 47.7292 286.828 51.6875 289.719 53.7031C288.266 57.4896 286.646 61.5156 284.859 65.7761C284.813 65.7396 284.781 65.6927 284.729 65.6615C280.693 63.349 278.375 62.0573 277.781 61.7865L277.833 61.8073L256.646 51.1875L262.781 39.4427C263.734 39.7552 265.417 40.5417 267.839 41.8177L267.865 41.8333ZM227.938 54.1875L239.313 29.4531C239.354 29.3646 239.391 29.2708 239.411 29.1771C239.401 29.2083 239.396 29.2396 239.385 29.2604C239.672 28.5156 241.927 24.6719 246.135 17.7656C246.323 17.8594 246.552 17.9896 246.833 18.1667L246.88 18.1979L265.016 28.8906C264.922 29.0886 264.844 29.2761 264.734 29.4844L264.703 29.5417C264.458 30.0573 263.516 31.7083 261.87 34.5L261.859 34.5208L261.839 34.5573C261.495 35.1927 261.193 35.8125 260.906 36.4219C260.667 36.5886 260.464 36.7969 260.313 37.0833H260.307C260.245 37.2031 260.214 37.3333 260.177 37.4583L243.458 69.4583L243.432 69.5104L212.734 133.479C212.714 133.516 212.719 133.557 212.703 133.594C212.219 133.682 211.776 133.958 211.542 134.432C210.807 135.885 210.333 136.802 210.115 137.188C209.948 137.479 209.917 137.797 209.938 138.109L205.516 144.875L205.448 144.984C203.526 148.5 202.359 150.526 201.938 151.052C201.771 151.26 201.688 151.5 201.635 151.745C201.578 151.698 201.536 151.635 201.469 151.594C197.328 149.109 192.354 145.875 186.563 141.896L186.552 141.885L186.542 141.88L186.521 141.865C184.521 140.568 183.057 139.656 182.115 139.109C184.109 135.302 186.104 131.557 188.089 127.865C188.255 128.109 188.464 128.323 188.755 128.448C189.573 128.797 190.526 128.422 190.875 127.599L198.693 109.406C204.813 96.7917 214.536 78.4219 227.88 54.2969L227.938 54.1875ZM201.813 40.5938C203.635 42.7917 206.198 45.6927 209.51 49.2917C213.505 54.2083 216.141 57.3333 217.458 58.7292C217.411 59.1458 217.521 59.5781 217.807 59.9271C217.99 60.1563 218.271 60.5104 218.635 60.9948L218.646 61.0052V61.0104L218.656 61.0261C218.813 61.2188 218.969 61.4063 219.12 61.5833L219.099 61.5573V61.5625L219.12 61.5833L175.943 107.958C162.135 121.031 149.021 134.099 136.583 147.156C129.552 139.771 122.646 132.01 115.875 123.854C115.786 123.75 115.672 123.688 115.568 123.609L200.76 39.4531C201.068 39.7865 201.417 40.1615 201.813 40.5938ZM112.333 23.0677C112.505 23.0781 112.682 23.0677 112.844 23.0208C112.714 23.0469 112.583 23.0781 112.432 23.0781L112.333 23.0677ZM112.865 23.0208C113.422 22.8646 113.875 22.4219 114 21.8542C113.833 22.5156 113.448 22.8958 112.865 23.0208ZM96.224 14.1771L96.2708 14.3281C96.2813 14.3542 96.2761 14.375 96.2813 14.4011C96.25 14.2604 96.2031 14.1302 96.1406 14.0052C96.1667 14.0625 96.2031 14.1094 96.224 14.1771ZM96.2969 14.5729C96.4115 15.3646 96.0938 15.9115 95.3073 16.2083C95.9688 15.9375 96.3646 15.2761 96.2969 14.5729ZM74.1875 16.9375H74.1927L79.5938 16.5052C80.401 16.4427 81.3125 16.3958 82.3333 16.3646C82.8646 16.349 84.1771 16.3125 86.2813 16.2448C86.7448 16.2344 87.1406 16.224 87.474 16.224H87.4792C87.6823 16.224 87.9531 16.224 88.2813 16.2292L90.4323 16.2761H90.4479L94.6875 16.3333C94.6927 16.3333 94.7031 16.3386 94.7136 16.3386C94.9271 16.3386 96.0104 16.3229 97.9583 16.2865H97.9792C100.589 16.2292 102.625 16.1615 104.104 16.0729C104.74 16.0573 105.438 16.0417 106.193 16.0156C107.365 16.0104 108.047 16 108.24 15.9896C108.313 15.9896 108.375 15.9792 108.438 15.974L108.281 15.9896L110.771 15.8594C110.766 16.0156 110.76 16.1823 110.755 16.3698V16.4271C110.776 18.4896 110.797 20.1771 110.818 21.4896C110.828 22.0938 111.177 22.6198 111.682 22.8906C111.13 22.6354 110.833 22.1875 110.823 21.5208C110.823 21.6511 110.818 22.4219 110.807 23.8333V23.8438C110.807 24.3542 110.807 24.7604 110.813 25.0677V25.0833L110.922 30.3698V30.3542C110.943 32.1927 111.156 36.2396 111.557 42.4844C111.589 43.1354 111.609 43.8646 111.615 44.6771C111.615 45.2031 111.609 45.7344 111.599 46.2656V46.2552L111.521 49.2188V49.2552L111.5 53.3438V53.3698L111.531 55.8594C111.531 57.8229 111.536 58.9323 111.542 59.1823V59.1667L111.693 67.5104C111.703 68.1771 111.708 69.0313 111.703 70.0677C111.698 70.8021 111.693 71.375 111.688 71.7917V71.7969C111.635 74.2761 111.604 76.0938 111.599 77.2552V77.2396C111.589 78.0313 111.589 79.4167 111.599 81.4011V81.3906C111.599 81.7292 111.594 82.1406 111.583 82.6302C111.438 87.1042 111.359 89.9896 111.349 91.2969V91.3021C111.349 92.5625 111.401 94.4688 111.5 97.0104C111.51 97.5052 111.521 98.2917 111.531 99.375V99.3646C111.536 101.182 111.547 102.786 111.568 104.188L111.536 109.745V109.76C111.547 112.026 111.563 114.135 111.583 116.089C111.573 117.807 111.568 118.755 111.573 118.932V118.896V118.927C111.583 119.578 111.599 121.26 111.615 123.974L111.568 129.51L111.432 132.839L111.427 132.854C111.411 133.385 111.406 134.172 111.411 135.214V135.203C111.406 136.328 111.474 138.344 111.615 141.24C111.641 142.151 111.651 143.026 111.651 143.865V143.88C111.651 144.349 111.641 144.823 111.62 145.302L111.385 149.266C109.854 149.266 108.807 149.281 108.297 149.313L92.5365 150.125H92.5469C90.9688 150.198 89.4271 150.24 87.9219 150.25L73.6354 150.078C73.75 148.516 73.901 146.182 74.099 143.021L74.1042 142.974C74.1927 140.042 74.3125 135.109 74.4479 128.172C74.6979 123.495 74.9271 117.833 75.1354 111.193V111.177C75.151 110.615 75.151 109.745 75.1458 108.578V108.573L75.0521 97.0208C75.1198 90.8177 75.1458 87.5208 75.1354 87.1302V87.1354C75.1354 87.125 75.1354 87.125 75.1354 87.1146L75.0313 78.2031V78.2083C75.0156 76.9271 75.0104 75.849 75.0156 74.9688C75.1146 68.724 75.2135 64.5833 75.2969 62.5521C75.2969 62.5365 75.3021 62.5261 75.3021 62.5104C75.3073 62.2813 75.3177 60.8542 75.3281 58.2188C75.4063 54.3177 75.474 51.4479 75.5208 49.6198V49.6094C75.5365 48.7969 75.5417 47.974 75.5417 47.1302V47.1146C75.474 41.8229 75.3594 37.7604 75.1979 34.9219L75.1927 34.9115L74.0156 16.9531C74.0781 16.9479 74.1406 16.9427 74.1875 16.9375ZM73.6875 60.8698C74.6615 60.8698 75.1979 61.3542 75.2917 62.3229C75.2135 61.4896 74.5052 60.8646 73.6719 60.875C73.6771 60.875 73.6823 60.8698 73.6875 60.8698ZM44.25 8.16147C44.6927 8.15626 45.7031 8.12501 47.2865 8.06772C48.2604 8.04689 49.1615 8.02605 49.9948 8.01564C52.0104 7.98439 53.0833 7.96876 53.224 7.96876H53.2292C53.1094 7.96876 52.9844 7.95314 52.8542 7.92189C52.9844 7.95314 53.1198 7.97397 53.2552 7.96876C53.7396 7.96876 54.224 7.97397 54.7083 7.98439H54.724C55.099 7.9896 56.151 8.02605 57.8698 8.09376L61.3021 8.26043H61.3229C61.3021 8.26043 61.3177 8.26043 61.3802 8.26564C63.8906 8.34897 65.4635 8.41147 66.1094 8.44793L66.1719 8.45314C66.6563 8.46355 68.026 8.57293 70.2448 8.77085L71.974 35.1094C72.1302 37.8958 72.2448 41.9063 72.3125 47.1406C72.3125 47.9583 72.3073 48.7552 72.2917 49.5417C72.2448 51.3802 72.1823 54.2552 72.099 58.1667V58.1927C72.0885 60.8073 72.0833 62.2083 72.0781 62.4011C72.1094 61.4375 72.6042 60.9479 73.5313 60.8906C72.7396 60.974 72.1094 61.6042 72.0729 62.4115C71.9844 64.474 71.8906 68.6511 71.7865 74.9375V74.9583C71.7865 75.849 71.7917 76.9427 71.8021 78.2344V78.2396L71.9063 87.1667L71.9167 87.3386C71.9115 87.2969 71.9115 87.2604 71.9115 87.2292C71.9219 87.5729 71.8906 90.8281 71.8229 96.9948V97.0261L71.9167 108.599V108.594C71.9219 109.729 71.9219 110.563 71.9115 111.099C71.7031 117.729 71.474 123.37 71.224 128.031V128.083C71.0833 135 70.9688 139.922 70.875 142.844C70.6667 146.219 70.5104 148.635 70.401 150.115L61.4844 150.219C52.5313 150.016 47.2396 149.927 45.6042 149.964H45.6354C44.4271 149.969 43.2969 149.974 42.224 149.979C42.2292 149.781 42.2292 149.589 42.2344 149.385V149.401C42.2865 148.359 42.3594 146.802 42.4427 144.724C42.5938 143.302 42.7552 141.292 42.9271 138.693C42.9844 137.917 43.0156 137.094 43.0156 136.219C43.0208 135.172 42.9948 134.021 42.9479 132.771L42.9427 132.745L42.5104 124.318V124.328C42.4792 123.589 42.4583 122.828 42.4531 122.047C42.4583 121.344 42.4531 119.964 42.4427 117.917C42.4479 117.026 42.4583 115.953 42.4792 114.703L42.6563 109.104V109.078L42.7604 103.505V103.5C42.7708 102.807 42.776 102.234 42.7708 101.771V101.76L42.7083 95.2344V95.2083C42.6406 92.6094 42.6042 91.1458 42.6094 90.8177V90.7969C42.6042 88.7396 42.5885 86.4688 42.5677 83.9896V83.9636C42.4583 80 42.4063 77.6302 42.4167 76.849V76.8177C42.401 75.8021 42.4115 73.3177 42.4375 69.3698V69.3542C42.4323 65.6771 42.4323 63.7292 42.4323 63.5261V63.5208L42.4844 59.1667V59.1615C42.4844 58.5156 42.4896 58.0573 42.4844 57.7813V57.8021C42.4896 57.1875 42.4583 55.2761 42.3906 52.0573V52.0625V52.0417V52.0469C42.375 51.0261 42.3646 50.1823 42.3646 49.5261C42.3333 44.9167 42.3177 42.5052 42.3229 42.2969C42.3125 43.1875 41.901 43.6823 41.1354 43.8177C41.1302 43.8125 41.1302 43.8073 41.1302 43.8021C41.8177 43.6146 42.3281 43.0104 42.3229 42.2656C42.3177 41.5886 42.3281 39.7604 42.3594 36.7969V36.7865C42.3594 36.2761 42.3594 35.7604 42.3594 35.2448V35.2604C42.3594 34.5833 42.3281 32.8698 42.2604 30.1198C42.2552 29.6146 42.25 29.1094 42.25 28.6094C42.2656 26.2865 42.3125 24.0052 42.3854 21.7708C42.6302 14.3698 42.8281 9.9323 42.9896 8.46355C43 8.35939 42.9688 8.27085 42.9583 8.17189C43.6302 8.17189 44.0625 8.16668 44.25 8.16147ZM38.6406 48.2083H38.6198C37.5938 48.2188 36.9323 48.224 36.6354 48.224H36.5417C36.5521 48.224 36.5677 48.224 36.5729 48.224H36.5781C36.4323 48.224 35.6563 48.2083 34.25 48.1771H34.2344L32.651 48.1563H32.6563C32.0677 48.1458 31.5573 48.1458 31.1302 48.1615H31.1042L27.7292 48.3125L27.7396 48.3073C25.1354 48.4063 23.4844 48.4688 22.7813 48.4844L22.7552 48.4896L20.3802 48.5938H20.3594C19.599 48.6354 18.9583 48.6875 18.4063 48.7396C18.3281 47.9844 18.2604 47.2656 18.1927 46.5833C18.724 46.5625 19.1354 46.5469 19.3594 46.5313H19.3698C20.8594 46.4167 21.6875 46.3542 21.8594 46.349C21.849 46.349 21.8385 46.349 21.8281 46.349H21.9167C24.5677 46.2031 26.8229 46.0886 28.6927 46.0104H28.6354H28.7083C28.9844 45.9948 30.151 45.9688 32.2083 45.9323H32.2188L35.9167 45.8386C37.1354 45.8281 38.125 45.8229 38.8802 45.8125H38.875C38.9323 45.8125 39.0156 45.8125 39.1094 45.8177C39.1146 46.5208 39.1198 47.3177 39.125 48.2292C38.9375 48.2188 38.7708 48.2083 38.6406 48.2083ZM19.1042 58.2292C19.0365 59.1563 18.5729 59.6198 17.7552 59.6771C18.474 59.5573 19.0469 58.9844 19.1042 58.2292ZM17.6094 56.4844C17.6042 56.4844 17.599 56.4844 17.5885 56.4792L17.6354 56.4844C17.625 56.4844 17.6198 56.4844 17.6094 56.4844ZM39.099 42.3281C39.099 42.4219 39.1406 42.5 39.1563 42.5886C39.151 42.5886 39.1458 42.5886 39.1406 42.5886C39.1302 42.5 39.099 42.4271 39.099 42.3281ZM18.4896 35.4844C20.4479 35.3438 21.849 35.25 22.6979 35.2083L22.7448 35.2031L24.6823 35.0521L27.0938 34.9115L27.1198 34.9063L29.9635 34.6927C30.6823 34.6563 31.9063 34.625 33.6406 34.599H33.6771L35.5573 34.5313L35.5833 34.5261C36.7344 34.4636 37.6667 34.4271 38.375 34.4063H38.4115C38.4635 34.4011 38.4635 34.4011 38.4167 34.4063H38.4271C38.5208 34.4011 38.7813 34.4063 39.125 34.4167C39.1302 34.7761 39.1302 35.0625 39.1302 35.2448V35.2656C39.1302 35.7604 39.1302 36.2656 39.1302 36.7708V36.7656C39.1042 39.7083 39.0885 41.5365 39.0938 42.25C39.0938 42.2552 39.0938 42.2552 39.0938 42.2604V42.2552C39.0938 42.2969 39.0938 42.4219 39.0938 42.5886C39.0052 42.5886 38.9167 42.5833 38.8542 42.5833L38.849 42.5886C38.125 42.5938 37.1354 42.6042 35.8854 42.6094H35.8542L32.1354 42.7031H32.1458C30.0938 42.7448 28.9115 42.7708 28.5729 42.7865H28.5521C26.6875 42.8646 24.4219 42.9792 21.7708 43.125C21.7656 43.125 21.7656 43.125 21.7604 43.125C21.5417 43.1302 20.6615 43.1927 19.1354 43.3125C18.9167 43.3281 18.4948 43.3438 17.8802 43.3646C17.6406 40.7969 17.4896 38.9063 17.4271 37.7448L17.4219 37.6927C17.3438 36.7761 17.3125 36.0781 17.3125 35.5521L18.4583 35.4896L18.4896 35.4844ZM19.9948 149.745C19.9948 149.734 19.9948 149.724 19.9948 149.714L19.6198 139.182C19.5885 137.156 19.5104 134.375 19.375 130.833C19.3698 130.406 19.3646 129.974 19.3698 129.536V129.542L19.4375 123.214V123.167L19.3698 119.604C19.4531 117.083 19.4792 115.307 19.4583 114.266C19.4844 113.677 19.3698 111.031 19.125 106.313C19.0938 105.458 19.0781 104.755 19.0781 104.214C19.0781 102.729 19.0885 101.521 19.1094 100.589L19.3177 95.0313V94.9688C19.3177 92.5833 19.2969 90.1563 19.2552 87.6927L19.3646 83.1354C19.3802 82.5417 19.3906 81.1146 19.3906 78.8542C19.4375 76.9011 19.4635 75.3438 19.474 74.1927V74.1771C19.4896 70.3177 19.4844 68.1458 19.4531 67.6667L19.4583 67.7136C19.2708 61.7083 19.1563 58.4688 19.1094 58C19.1094 57.974 19.099 57.9583 19.099 57.9375C18.9323 55.4896 18.7917 53.5 18.6771 51.9531C19.1927 51.9063 19.8021 51.8594 20.5365 51.8177L22.8854 51.7136C23.5938 51.6927 25.25 51.6354 27.8594 51.5365H27.8698L31.2292 51.3854C31.6094 51.375 32.0677 51.375 32.6094 51.3802L34.1927 51.4011C35.625 51.4375 36.4323 51.4531 36.6146 51.4531H36.6198C36.625 51.4531 36.6302 51.4479 36.6354 51.4479C36.9635 51.4531 37.6302 51.4479 38.6406 51.4375C38.75 51.4375 38.9323 51.4479 39.1563 51.4636C39.1563 51.6771 39.1615 51.8646 39.1615 52.0938V52.125C39.2292 55.3125 39.2604 57.1979 39.2552 57.7865V57.8073C39.2604 58.0677 39.2604 58.5104 39.2552 59.1354V59.1302L39.2031 63.4844V63.4792C39.2031 63.7031 39.2031 65.6615 39.2083 69.3594V69.3438C39.1823 73.3021 39.1719 75.8021 39.1875 76.8438C39.1823 77.6823 39.2292 80.0729 39.3385 84.0365C39.3594 86.5052 39.375 88.7604 39.3802 90.8073V90.7865C39.375 91.1511 39.4115 92.6511 39.4792 95.2813L39.5469 101.781C39.5469 102.224 39.5417 102.781 39.5313 103.453L39.4323 109.005L39.25 114.609V114.635C39.2292 115.906 39.2188 116.995 39.2135 117.901V117.922C39.224 119.974 39.2292 121.349 39.224 122.047V122.063C39.2292 122.891 39.25 123.693 39.2865 124.474V124.484L39.7188 132.901C39.7708 134.104 39.7917 135.208 39.7917 136.208C39.7865 137.01 39.7604 137.755 39.7083 138.458V138.464C39.5313 141.063 39.375 143.057 39.2292 144.448L39.2188 144.547V144.568C39.1354 146.646 39.0625 148.203 39.0104 149.234V149.25C39 149.505 39 149.745 38.9948 149.99C32.8854 150.016 29.651 150.036 29.3177 150.047C29.3073 150.047 29.3021 150.052 29.2969 150.052L20 150.276C20 150.026 20 149.844 19.9948 149.745ZM19.4583 114.208V114.245C19.4583 114.234 19.4583 114.219 19.4583 114.208ZM30.8594 152.307C30.6615 152.922 30.1979 153.255 29.4323 153.281C30.0729 153.26 30.6146 152.865 30.8594 152.307ZM29.4219 150.052C30.349 150.078 30.8333 150.521 30.9271 151.333C30.7708 150.625 30.1823 150.078 29.4219 150.052ZM426.328 177.661L426.323 177.609C426.323 176.635 426.807 176.099 427.781 176C426.932 176.083 426.302 176.813 426.328 177.661ZM593.151 178.479C593.208 177.542 593.719 177.052 594.708 177.042C593.891 177.057 593.24 177.682 593.151 178.479ZM619.646 176.823H619.625C617.714 176.828 615.771 176.854 613.802 176.896C611.26 176.885 609.766 176.891 609.323 176.901L603.969 177.063L599.031 177.036H599.026C597.651 177.031 596.214 177.031 594.729 177.036H594.724C594.635 177.036 593.87 177.036 592.422 177.026H592.427C591.813 177.021 591.214 176.995 590.63 176.958C587.698 176.693 585.833 176.547 585.042 176.516C583.953 176.448 582.479 176.396 580.615 176.359H580.62C579.49 176.339 577.927 176.323 575.932 176.318H575.901L570.604 176.417H570.609C570.12 176.427 569.63 176.427 569.13 176.422H569.115C568.172 176.427 566.323 176.365 563.568 176.24H563.531L557.26 176.094H557.24C555.219 176.068 553.573 176.057 552.313 176.068H552.318C550.833 176.068 548.844 176.099 546.359 176.151H546.375C545.849 176.156 545.333 176.161 544.823 176.156L540.786 176.073H540.802C540.385 176.063 539.161 176.052 537.135 176.052L533.057 175.974H533.031C532.536 175.974 532.042 175.984 531.542 175.995L531.531 176L526.599 176.182C526.063 176.198 525.531 176.208 524.995 176.214H524.99C524.651 176.214 524.229 176.214 523.724 176.208C521.172 176.161 519.693 176.146 519.281 176.151C517.75 176.156 516.115 176.172 514.37 176.203L510.635 176.167H510.594C509.255 176.182 507.109 176.198 504.151 176.219C501.75 176.208 500.427 176.208 500.182 176.219C500.005 176.224 499.844 176.25 499.693 176.302L500.146 176.219L490.026 176.583C489.302 176.604 488.734 176.615 488.313 176.62H488.302C487.844 176.625 487.328 176.625 486.76 176.615H486.766L480.344 176.484H480.359C480.135 176.479 479.583 176.479 478.703 176.49C478.422 176.49 478.141 176.484 477.854 176.474C477.776 176.469 477.714 176.5 477.641 176.505C477.479 176.438 477.313 176.38 477.125 176.365C474.12 176.156 471.229 176.036 468.443 176H468.448C467.333 175.984 462.13 176.099 452.854 176.354H452.865C451.599 176.38 450.604 176.391 449.88 176.391C447.938 176.385 446.49 176.37 445.547 176.354C442.203 176.245 439.766 176.182 438.24 176.156L427.974 175.995C427.969 175.995 427.964 175.99 427.958 175.99H427.953C427.703 175.984 426.01 175.995 422.87 176.016L415.734 176.005H415.719L408.911 176.052H408.922C407.51 176.052 404.141 176.12 398.802 176.26H398.786C387.75 176.625 379.26 176.927 373.328 177.161C370.604 177.208 367.865 177.271 365.12 177.339H365.057C364.323 177.354 362.76 177.37 360.365 177.375C357.786 177.339 356.104 177.292 355.307 177.24C352.281 176.948 350 176.76 348.464 176.682C346.771 176.536 345.26 176.323 343.901 176.047C343.651 175.828 343.354 175.656 343 175.625C339.313 175.266 333.302 175.068 324.964 175.036H324.911L316.833 175.281C313.917 175.307 309.271 175.391 302.88 175.536C296.958 175.531 291.844 175.568 287.547 175.651H287.521L265.708 176.359C264.432 176.396 262.068 176.396 258.615 176.349C246.896 175.88 238.156 175.568 232.391 175.417L196.109 173.865L196.073 173.859C189.328 173.729 181.667 173.521 173.083 173.229H173.068C171.88 173.203 170.911 173.188 170.156 173.182H170.146C165.927 173.188 163.641 173.182 163.286 173.156C163.307 173.156 163.333 173.161 163.37 173.167L163.203 173.151C150.125 172.609 140.969 172.323 135.734 172.286C133.344 172.266 130.839 172.297 128.214 172.38H128.172C120.568 172.818 115.578 173.036 113.208 173.031H113.193C107.984 173.063 104.875 173.063 103.87 173.031C98.3438 172.844 92.6042 172.729 86.6511 172.688H86.5886C80.7604 172.88 72.7396 173.036 62.5208 173.156H62.4688C56.2865 173.443 51.0052 173.583 46.6146 173.578H46.5885C44.974 173.599 43.151 173.594 41.1198 173.563L29.6823 173.276H29.6719C25.9427 173.214 22.4479 173.208 19.1823 173.271C16.3177 173.229 14.75 173.208 14.4792 173.214C14.474 173.214 14.4688 173.219 14.4635 173.219C10.0469 173.224 7.28126 173.344 6.16667 173.578C5.95834 173.625 5.76563 173.714 5.59376 173.828C5.57813 173.5 5.5573 173.141 5.53126 172.724L5.36459 169.286V169.307C5.35417 169.031 5.27605 167.833 5.13021 165.724C5.10417 165.26 5.07813 164.802 5.06251 164.344C5.04688 163.88 5.03646 163.401 5.03646 162.901L5.04167 162.443C5.06251 160.755 5.07292 159.839 5.07292 159.682C5.07292 159.677 5.07292 159.677 5.07292 159.677C5.07292 159.021 5.07292 158.281 5.06251 157.453C5.0573 156.375 5.02605 155.297 4.96355 154.208L4.96876 154.24C4.96355 154.12 4.96355 153.906 4.96355 153.599C4.96355 153.552 4.93751 153.505 4.93751 153.458C5.16667 153.458 5.40105 153.458 5.65105 153.458C10.4167 153.635 13.224 153.698 14.0625 153.656H14.0104L29.4115 153.286C29.4219 153.286 29.4271 153.281 29.4323 153.281C29.8438 153.266 35.25 153.24 45.6458 153.203H45.6771C47.2656 153.167 52.5208 153.25 61.4427 153.453H61.4948L70.7083 153.349C70.9583 153.573 71.2969 153.708 71.7344 153.729C72.276 153.76 72.6771 153.615 72.9688 153.323L73.5625 153.313L87.9063 153.49H87.9375C89.4896 153.474 91.0729 153.432 92.6979 153.354H92.7031L108.469 152.547L108.484 152.542C109.667 152.474 113.953 152.484 121.339 152.573C128.552 152.755 135.406 152.995 141.906 153.281L141.964 153.286C147.073 153.328 152.828 153.464 159.229 153.682H159.266C164.76 153.75 170.151 153.792 175.427 153.802H175.411C177.698 153.828 179.75 153.885 181.568 153.979H181.646C183.927 153.984 191.021 154.672 202.927 156.047L203.005 156.052L242.557 158.62L242.63 158.625C247.833 158.719 251.224 158.755 252.818 158.734H252.776C253.573 158.745 258.083 158.661 266.307 158.484C267.844 158.464 269.344 158.458 270.818 158.479L296.677 159.401H296.682C298.646 159.469 302.339 159.516 307.76 159.542H307.771C311.125 159.542 313.432 159.521 314.688 159.479L339.615 158.714H339.62L339.63 158.708C341.62 158.667 343.344 158.661 344.797 158.693C345.323 158.708 345.771 158.453 346.078 158.073L370.927 159.307H370.99C379.672 159.401 386.521 159.531 391.542 159.693H391.62L408.417 159.417L419.016 159.719H419.057L430.49 159.74L494.964 160.896C508.01 161.401 518.906 161.917 527.646 162.453L527.776 162.458L550.563 161.958L562.005 162.297H562.068C568.833 162.224 574.661 162.25 579.557 162.37H579.589C585.182 162.411 594.016 161.76 606.094 160.417C609.932 160.26 613.432 160.182 616.589 160.177L616.729 160.172L624.958 159.448C625.781 159.391 626.708 159.401 627.74 159.484L627.807 159.49C630.479 159.594 632.245 159.771 633.135 160.031L631.755 176.927C630.729 176.984 629.448 177.021 627.839 177.021C625.323 176.922 622.594 176.854 619.646 176.823Z" fill="white"/>
</g>
<path d="M624.719 156.224C624.74 156.219 624.755 156.224 624.776 156.219H624.828L624.719 156.224Z" fill="white"/>
<path d="M71.7552 153.734L71.7344 153.729H71.7188L71.7552 153.734Z" fill="white"/>
<path d="M38.2604 31.1823C38.2188 31.1823 38.2396 31.1823 38.2656 31.1823C38.2761 31.1823 38.2865 31.1771 38.2917 31.1771L38.2604 31.1823Z" fill="white"/>
<path d="M267.615 30.9375C267.609 30.9531 267.594 30.9792 267.583 30.9948L267.615 30.9375Z" fill="white"/>
<path d="M200.917 48.1823V48.1875C200.917 48.1875 200.922 48.1875 200.922 48.1927L200.927 48.1979C200.688 47.8646 200.339 47.6615 199.964 47.5781C199.917 47.5156 199.885 47.4479 199.828 47.3958C199.167 46.8021 198.146 46.8542 197.552 47.5208L195.177 50.1667L195.068 50.3021C195.026 50.3542 194.99 50.4062 194.958 50.4583V50.4635C194.401 51.3333 194.396 52.1302 194.943 52.8542L194.948 52.8594L197.307 55.9687L197.375 56.0521L206.849 66.9219C206.896 66.9792 206.948 67.0312 207 67.0781C207.698 67.6927 208.49 67.7031 209.365 67.1094C209.417 67.0781 209.469 67.0417 209.521 67L209.573 66.9583C210.698 66.0312 211.807 65.0677 212.906 64.0625C212.979 63.9948 213.047 63.9167 213.109 63.8385C213.224 63.6875 213.323 63.5365 213.401 63.3854C213.833 62.6042 213.849 61.8698 213.458 61.1875C213.391 61.0677 213.307 60.9583 213.208 60.8594C205.49 53.0312 201.396 48.8073 200.917 48.1823Z" fill="white"/>
<path d="M77.9479 25.4583V25.4896C77.9739 25.875 78 26.224 78.0416 26.5313C78.0833 26.8854 78.1302 27.1823 78.1823 27.4219L78.1927 27.4792L78.4479 28.5261C78.4739 28.6563 78.5156 28.8906 78.5729 29.2344C78.7187 30.1146 79.5469 30.7084 80.4271 30.5677C81.3073 30.4219 81.901 29.5938 81.7604 28.7136C81.6927 28.3125 81.6406 28.0156 81.5989 27.8281L81.5885 27.7917L81.3385 26.7656C81.3073 26.6042 81.276 26.3959 81.2448 26.1302C81.2135 25.8959 81.1927 25.625 81.1719 25.3125C81.151 24.7292 81.125 24.2188 81.0885 23.7761C81.0885 23.6875 81.0885 23.6094 81.0937 23.5365C81.1458 22.6458 80.4739 21.8802 79.5833 21.8229C78.6927 21.7656 77.9271 22.4427 77.8698 23.3334C77.8594 23.5156 77.8541 23.7031 77.8646 23.9063L77.8698 23.9688C77.901 24.3854 77.9271 24.8802 77.9479 25.4583Z" fill="white"/>
<path d="M263.833 48.2448C264.943 48.9011 265.651 49.3438 265.953 49.5677C266.662 50.1042 267.677 49.9583 268.214 49.2448C268.745 48.5365 268.604 47.5208 267.891 46.9844C267.495 46.6875 266.688 46.1823 265.474 45.4636C264.703 45.0104 263.714 45.2656 263.26 46.0313C262.807 46.8021 263.063 47.7917 263.833 48.2448Z" fill="white"/>
<path d="M272.266 53.0156L271.911 52.974C272.24 53.0469 272.87 53.349 273.797 53.8802C274.573 54.3229 275.557 54.0521 276 53.2812C276.443 52.5052 276.172 51.5208 275.396 51.0781C274.188 50.3906 273.266 49.9687 272.625 49.8281H272.62C271.75 49.6302 270.891 50.1771 270.693 51.0469C270.495 51.9167 271.042 52.7812 272.266 53.0156Z" fill="white"/>
<path d="M279.828 57.3698C280.807 57.901 281.469 58.2708 281.813 58.4844C282.568 58.9583 283.563 58.7292 284.037 57.974C284.505 57.2135 284.276 56.2188 283.521 55.75C283.12 55.5 282.401 55.0938 281.37 54.5313C280.583 54.1094 279.604 54.401 279.182 55.1823C278.755 55.9635 279.047 56.9479 279.828 57.3698Z" fill="white"/>
<path d="M351.151 43.0313C351.755 44.1667 352.714 45.0469 354.021 45.6719L354.099 45.7031C355.63 46.3386 356.984 46.474 358.156 46.1094L358.167 46.1042C361.255 45.1198 362.349 43.2031 361.438 40.3594C361.37 40.1354 361.286 39.9115 361.188 39.6823C361.063 39.4011 360.854 39.1927 360.62 39.0261C360.635 38.7917 360.615 38.5573 360.526 38.3229C360.099 37.2031 359.089 36.349 357.505 35.7656L357.422 35.7344C355.995 35.2969 354.677 35.3698 353.469 35.9636L353.359 36.0261C352.203 36.6667 351.401 37.625 350.948 38.9063L350.922 38.9896C350.5 40.4375 350.563 41.7552 351.109 42.9479L351.151 43.0313ZM354.01 39.9427C354.193 39.4583 354.495 39.099 354.917 38.8542C355.349 38.6563 355.859 38.6406 356.448 38.8177C357.078 39.0521 357.438 39.2761 357.516 39.4792C357.635 39.7917 357.859 40.0208 358.115 40.1979C358.094 40.4531 358.115 40.7083 358.219 40.9583C358.276 41.0886 358.323 41.2188 358.365 41.3386C358.615 42.1354 358.224 42.6979 357.193 43.0261C356.771 43.1563 356.167 43.0573 355.375 42.7344C354.75 42.4271 354.302 42.0365 354.031 41.5573C353.844 41.1146 353.833 40.5781 354.01 39.9427Z" fill="white"/>
<path d="M353.281 36.0677L353.359 36.026L353.401 35.9948L353.281 36.0677Z" fill="white"/>
<path d="M358.286 137.875C358.312 137.88 358.333 137.896 358.359 137.901C358.38 137.906 358.396 137.906 358.417 137.911L358.286 137.875Z" fill="white"/>
<path d="M351.672 145.714C351.667 145.703 351.667 145.682 351.656 145.672C351.651 145.651 351.635 145.63 351.63 145.609L351.672 145.714Z" fill="white"/>
<path d="M358.76 148.37L358.75 148.375L358.724 148.385L358.76 148.37Z" fill="white"/>
<path d="M361.698 141.016C361.682 140.802 361.63 140.583 361.526 140.375C360.87 139.089 359.812 138.266 358.359 137.901C357.141 137.516 355.828 137.677 354.411 138.391L354.333 138.432C353.24 139.063 352.391 140.141 351.786 141.672L351.766 141.724C351.229 143.234 351.193 144.547 351.656 145.672C351.714 145.818 351.776 145.964 351.854 146.109C352.339 146.964 353.318 147.734 354.792 148.417L354.927 148.469C356.245 148.948 357.521 148.911 358.75 148.375C362.068 146.99 363.167 144.724 362.036 141.573C361.964 141.359 361.844 141.172 361.698 141.016ZM357.49 145.401L357.458 145.417C357.021 145.609 356.552 145.615 356.057 145.438C355.276 145.073 354.807 144.766 354.672 144.526L354.641 144.448C354.49 144.094 354.547 143.552 354.802 142.828C355.12 142.036 355.49 141.516 355.911 141.255C356.526 140.953 357.031 140.854 357.406 140.979L357.536 141.016C358.062 141.141 358.432 141.417 358.651 141.844C358.724 141.984 358.828 142.089 358.932 142.198C358.937 142.354 358.943 142.505 359 142.661C359.437 143.891 358.937 144.802 357.49 145.401Z" fill="white"/>
<path d="M569.193 11.0208C569.208 11.1198 569.219 11.2188 569.229 11.3125C569.24 11.4063 569.25 11.5 569.255 11.599L569.266 11.75C569.328 12.6354 570.104 13.3073 570.99 13.2448C571.88 13.1823 572.552 12.4115 572.49 11.5208L572.474 11.3542V11.3386C572.464 11.2136 572.453 11.0886 572.438 10.9583V10.9531C572.422 10.8281 572.406 10.6979 572.391 10.5677C572.349 10.3073 572.307 10.0417 572.25 9.77605C572.073 8.90105 571.219 8.33855 570.349 8.52084C569.474 8.69792 568.911 9.55209 569.089 10.4219C569.13 10.625 569.167 10.8281 569.193 11.0208Z" fill="white"/>
<path d="M563.51 11.3698L563.516 11.526C563.526 12.4167 564.26 13.1302 565.151 13.1198C566.042 13.1042 566.755 12.375 566.74 11.4844V11.0417V11.0521V10.8906V10.901L566.745 10.7448V10.75C566.75 10.5521 566.755 10.349 566.766 10.1406C566.807 9.25 566.125 8.49479 565.234 8.44792C564.344 8.40625 563.589 9.08854 563.542 9.97917C563.531 10.2187 563.521 10.4531 563.516 10.6823V10.8594L563.51 11.0208V11.3698Z" fill="white"/>
<path d="M559.646 13.474C560.536 13.5313 561.302 12.8542 561.354 11.9636L561.411 11.0625C561.469 10.1719 560.792 9.40627 559.901 9.35418C559.01 9.29689 558.245 9.97397 558.193 10.8646L558.135 11.7656C558.078 12.6563 558.755 13.4219 559.646 13.474Z" fill="white"/>
<path d="M588.276 63.6667C588.547 64.5417 588.802 65.849 589.042 67.5938L589.052 67.6354L589.073 67.75C589.172 68.1563 589.266 68.4688 589.349 68.6875C589.406 68.8177 589.49 68.901 589.557 69.0156L589.51 68.974C589.833 69.6406 590.422 70.0156 591.276 70.099C591.313 70.1042 591.359 70.1042 591.401 70.1094C591.521 70.1146 591.646 70.1094 591.766 70.0885C593.13 69.8594 595.214 69.3958 598.005 68.7083C598.672 68.5677 599.292 68.4479 599.859 68.3594L599.885 68.3542C601.391 68.0781 604.537 67.7448 609.313 67.3542L609.354 67.349C610.474 67.2292 611.448 66.9948 612.271 66.651L612.287 66.6458C612.349 66.6198 612.417 66.5885 612.479 66.5573C613.516 66.0365 613.984 65.2292 613.891 64.1354L613.87 63.9948L612.974 58.9427C612.849 58.25 612.297 57.7552 611.635 57.651C611.646 57.5313 611.672 57.4219 611.656 57.3021C611.526 56.4167 610.708 55.8073 609.823 55.9375C609.776 55.9427 609.724 55.9531 609.667 55.9635C609.25 56.0573 607.625 56.5417 604.792 57.4219C600.25 58.4896 597.589 59.1354 596.802 59.3646H596.818C596.063 59.5781 594.219 59.8802 591.287 60.276L591.219 60.2865C590.599 60.3958 590.026 60.6042 589.495 60.901L589.688 60.8073V60.8125L589.495 60.901C588.464 61.4844 588.042 62.3333 588.224 63.4531C588.234 63.526 588.25 63.599 588.276 63.6667ZM592.057 67.0833C592.115 67.1354 592.146 67.2083 592.193 67.2708C592.141 67.2083 592.104 67.1302 592.042 67.0781C592.047 67.0781 592.052 67.0781 592.057 67.0833ZM591.63 66.8333C591.573 66.8021 591.526 66.7552 591.464 66.7396C591.531 66.7604 591.573 66.8021 591.635 66.8281C591.635 66.8281 591.63 66.8281 591.63 66.8333ZM592.344 67.474C592.344 67.4688 592.344 67.4688 592.344 67.4688C592.365 67.5104 592.396 67.526 592.422 67.5729C592.401 67.5313 592.365 67.5104 592.344 67.474ZM597.698 62.4688L597.708 62.4635C598.443 62.25 601.068 61.6146 605.589 60.5521L605.698 60.5208C607.719 59.8906 609.078 59.4792 609.802 59.2708C609.802 59.349 609.781 59.4271 609.797 59.5104L610.563 63.8177C610.109 63.9583 609.609 64.0729 609.016 64.1406C604.172 64.5365 600.943 64.8854 599.328 65.1719C598.708 65.276 598.037 65.401 597.323 65.5521L597.271 65.5677C595.125 66.0938 593.438 66.4792 592.177 66.7292C591.99 65.4635 591.797 64.3906 591.583 63.5365C591.651 63.5156 591.708 63.4792 591.781 63.4635C594.828 63.0521 596.802 62.724 597.698 62.4688Z" fill="white"/>
<path d="M599.307 65.1771L599.328 65.1719H599.339L599.307 65.1771Z" fill="white"/>
<path d="M609.745 148.589C608.318 148.958 606.74 149.245 605.016 149.448C604.13 149.552 603.5 150.359 603.604 151.245C603.708 152.13 604.516 152.76 605.401 152.656C607.266 152.432 608.984 152.12 610.552 151.714C613.484 150.974 617.271 149.818 621.891 148.25C622.271 148.161 622.651 148.125 623.031 148.141C623.922 148.188 624.677 147.5 624.724 146.609C624.766 145.719 624.083 144.964 623.193 144.917C622.49 144.885 621.802 144.948 621.115 145.115L621.005 145.141L621 145.146L620.964 145.156C616.37 146.719 612.635 147.859 609.755 148.583L609.745 148.589Z" fill="white"/>
<path d="M522.906 122.172C522.927 122.172 522.953 122.177 522.974 122.177L522.906 122.172Z" fill="white"/>
<path d="M507.662 145.109C508.776 147.078 510.62 148.083 513.198 148.13C513.271 148.135 513.339 148.13 513.412 148.125C515.823 147.849 517.453 146.297 518.292 143.464L518.313 143.385C518.771 141.49 518.391 139.891 517.208 138.573C517.219 138.432 517.24 138.286 517.214 138.141C517.089 137.484 516.734 136.943 516.151 136.516C515.839 136.286 515.458 136.099 515.016 135.953C514.01 135.578 513.016 135.474 512.031 135.635C510.474 135.88 509.135 136.812 508.01 138.422L507.964 138.495C506.609 140.693 506.495 142.88 507.635 145.062L507.662 145.109ZM510.693 140.224C511.287 139.396 511.896 138.922 512.537 138.823H512.552C512.912 138.76 513.287 138.807 513.677 138.922C513.662 139.427 513.859 139.932 514.297 140.26C515.104 140.859 515.396 141.641 515.177 142.594C514.755 143.984 514.068 144.745 513.13 144.891C511.865 144.839 510.979 144.391 510.484 143.542C509.938 142.464 510.005 141.359 510.693 140.224Z" fill="white"/>
<path d="M512.021 135.641L512.031 135.635H512.036L512.021 135.641Z" fill="white"/>
<path d="M514.984 135.938L515.016 135.953L515.047 135.964L514.984 135.938Z" fill="white"/>
<path d="M497.807 113.948L497.802 113.979L497.797 114L497.807 113.948Z" fill="white"/>
<path d="M475.5 60.6667C475.552 60.6719 475.599 60.6875 475.651 60.6927C475.682 60.6927 475.703 60.6875 475.729 60.6927L475.5 60.6667Z" fill="white"/>
<path d="M460.865 69.5937H460.875L460.891 69.5885L460.865 69.5937Z" fill="white"/>
<path d="M409.182 56.0833C409.214 56.0573 409.25 56.0469 409.281 56.0313C409.292 56.0208 409.297 56.0104 409.313 56L409.182 56.0833Z" fill="white"/>
<path d="M512.078 66.1302C512.078 66.1458 512.068 66.1615 512.068 66.1823C512.063 66.2083 512.073 66.224 512.068 66.25L512.078 66.1302Z" fill="white"/>
<path d="M485.854 52.7969C485.927 52.8177 485.99 52.8594 486.057 52.8854C486.083 52.901 486.109 52.901 486.141 52.9167L485.854 52.7969Z" fill="white"/>
<path d="M464.984 45.0885L464.802 45.1042C464.896 45.0989 464.984 45.0833 465.083 45.0937L464.984 45.0885Z" fill="white"/>
<path d="M102.781 21.7969C102.786 22.1406 102.818 23.1406 102.87 24.7917V24.7865C102.88 25.2656 102.891 25.5781 102.891 25.7292C102.891 25.9948 102.896 26.1771 102.891 26.2761V26.2813C102.891 26.6406 102.885 27.0469 102.875 27.4948C102.859 28.3854 103.573 29.1198 104.464 29.1354C105.354 29.1511 106.089 28.4427 106.104 27.5469C106.109 27.0938 106.115 26.6823 106.12 26.3125V26.3177C106.12 26.1927 106.12 25.9896 106.12 25.6979V25.7031C106.115 25.5313 106.109 25.1927 106.094 24.6927V24.6875C106.042 23.0469 106.016 22.0625 106.005 21.7344V21.7292C106 21.3698 106 21.0469 106.005 20.7708C106.026 19.8802 105.318 19.1406 104.427 19.1198C103.536 19.099 102.797 19.8073 102.776 20.6979C102.771 21.0208 102.771 21.3906 102.781 21.8021V21.7969Z" fill="white"/>
<path d="M90.0156 24.7292C90.0416 25.4583 90.0573 26.3385 90.0729 27.3594C90.0833 28.2552 90.8177 28.9635 91.7083 28.9531C92.5989 28.9427 93.3125 28.2083 93.3021 27.3177C93.2864 26.2708 93.2656 25.375 93.2396 24.6198V24.625C93.2291 24.1927 93.1979 23.6094 93.1458 22.8854C93.0833 21.9948 92.3073 21.3229 91.4219 21.3854C90.5312 21.4531 89.8594 22.2239 89.9271 23.1146C89.9739 23.7969 90.0052 24.3333 90.0156 24.7239V24.7292Z" fill="white"/>
<path d="M51.4896 18.3281L51.4948 18.3177V18.3073L51.4896 18.3281Z" fill="white"/>
<path d="M53.0834 22.6198C54.3177 23.8125 55.8386 24.4844 57.6511 24.6354L57.7865 24.6406C59.5573 24.6302 60.9323 24.0365 61.9219 22.8646C62.849 21.8229 63.2084 20.4219 63.0104 18.6667C63.0313 18.599 63.0729 18.5417 63.0886 18.4688C63.1354 18.2083 63.1563 17.9479 63.1406 17.6875C63.0781 16.5833 62.4584 15.5312 61.2865 14.526L61.2136 14.4688C60.1354 13.6458 58.8229 13.2656 57.2709 13.3229L57.2344 13.3281C55.8334 13.4062 54.6459 13.8594 53.6719 14.6823L53.6198 14.724C52.3906 15.8438 51.6823 17.0417 51.4948 18.3177C51.2344 20.0052 51.7656 21.4375 53.0834 22.6198ZM54.6823 18.8073L54.6875 18.7865C54.7604 18.2812 55.1198 17.7344 55.7604 17.1458C56.1875 16.7917 56.7344 16.5938 57.4063 16.5521C58.1667 16.526 58.7761 16.6823 59.2344 17.026C59.6719 17.4062 59.9063 17.6927 59.9167 17.875C59.9167 17.8698 59.9167 17.8698 59.9167 17.8646C59.8959 17.974 59.9219 18.0781 59.9219 18.1875C59.8229 18.4323 59.7656 18.6927 59.8021 18.9688C59.9063 19.8073 59.8073 20.3958 59.5052 20.7292L59.4636 20.7813C59.125 21.1875 58.5729 21.3906 57.8229 21.401C56.8125 21.3021 55.974 20.9323 55.3073 20.2813L55.2448 20.224C54.7865 19.8177 54.599 19.349 54.6823 18.8073Z" fill="white"/>
<path d="M61.9479 22.8385L61.9219 22.8646L61.9011 22.8906L61.9479 22.8385Z" fill="white"/>
<path d="M53.1094 22.6458L53.0833 22.6198L53.0469 22.5885L53.1094 22.6458Z" fill="white"/>
<path d="M63.2344 138.813C63.1666 137.234 62.5104 136.036 61.2604 135.214C60.0312 134.365 58.6666 134.047 57.1666 134.26C55.5729 134.469 54.2968 135.016 53.3489 135.891L53.2552 135.984C52.1302 137.203 51.651 138.557 51.8281 140.047L51.8646 140.229C52.3854 142.427 54.2343 143.974 57.4062 144.865L57.5521 144.901C59.8229 145.318 61.7344 144.469 63.2916 142.354C63.8229 141.635 63.6719 140.625 62.9531 140.099C62.8906 140.052 62.8229 140.042 62.7604 140.005C63.0625 139.698 63.25 139.281 63.2344 138.813ZM58.1823 141.729C56.3437 141.193 55.2968 140.469 55.0364 139.552C55.0156 139.109 55.1927 138.672 55.5729 138.24C56.026 137.839 56.6927 137.573 57.5989 137.458L57.6146 137.453C58.2864 137.359 58.901 137.5 59.4427 137.875L59.4791 137.901C59.8125 138.12 59.9896 138.469 60.0052 138.943C60.0312 139.536 60.3854 140.016 60.8698 140.276C60.8177 140.333 60.7448 140.37 60.6927 140.438C59.9479 141.453 59.1093 141.875 58.1823 141.729Z" fill="white"/>
<path d="M61.2448 135.203L61.2604 135.214L61.2865 135.224L61.2448 135.203Z" fill="white"/>
<path d="M57.1615 134.26H57.1667L57.1771 134.255L57.1615 134.26Z" fill="white"/>
<path d="M56.8385 31.6823C55.9531 31.7708 55.3073 32.5625 55.3958 33.4479C55.4375 33.8854 55.4635 34.2031 55.4791 34.4062V34.401V34.4219C55.5 34.7552 55.5208 35.1823 55.5364 35.7031C55.5677 36.5937 56.3125 37.2917 57.2031 37.2656C58.0937 37.2344 58.7916 36.4896 58.7656 35.5937C58.7448 35.0417 58.7239 34.5781 58.6979 34.2135C58.6875 33.9687 58.6562 33.6042 58.6041 33.125C58.5156 32.2396 57.7239 31.5937 56.8385 31.6823Z" fill="white"/>
<path d="M59.8698 50.6979C59.875 50.7239 59.8802 50.75 59.8854 50.776C59.8906 50.7969 59.9011 50.8229 59.9011 50.8437L59.8698 50.6979Z" fill="white"/>
<path d="M59.7187 50.2552C59.3958 49.4219 58.4635 49.0104 57.6302 49.3281C56.8021 49.651 56.3854 50.5885 56.7083 51.4167C56.7344 51.4792 56.7448 51.5208 56.7552 51.5469V51.5573C56.776 51.625 56.7916 51.7031 56.8021 51.7917C56.8385 52.1198 56.8646 52.599 56.8802 53.2396C56.9062 54.1302 57.6458 54.8333 58.5364 54.8125C59.4271 54.7917 60.1302 54.0521 60.1094 53.1615C60.0885 52.4115 60.0573 51.8281 60.0104 51.4063L60.0052 51.3802C59.9739 51.1667 59.9323 50.9688 59.8854 50.776C59.8698 50.7083 59.8541 50.6354 59.8281 50.5573C59.8021 50.4792 59.7656 50.375 59.7187 50.2552Z" fill="white"/>
<path d="M58.3489 68.8646C57.4687 68.7292 56.6406 69.3281 56.5052 70.2083C56.3385 71.2396 56.1771 72.2917 56.026 73.3542C55.901 74.2396 56.5104 75.0573 57.3958 75.1823C58.276 75.3125 59.0937 74.6979 59.2187 73.8177C59.375 72.7604 59.5312 71.7292 59.6927 70.7135C59.8281 69.8333 59.2291 69.0052 58.3489 68.8646Z" fill="white"/>
<path d="M56.7969 95.2448C57.6823 95.3333 58.474 94.6875 58.5625 93.7969C58.6355 93.099 58.6928 92.2708 58.7396 91.3177C58.7553 91.0365 58.7605 90.7552 58.7657 90.4844C58.7657 90.3281 58.7657 90.0885 58.7553 89.7708C58.724 88.8802 57.974 88.1823 57.0834 88.2135C56.1928 88.2448 55.4948 88.9948 55.5261 89.8854C55.5365 90.151 55.5417 90.3281 55.5365 90.4271V90.4479C55.5365 90.6771 55.5261 90.9062 55.5157 91.1406V91.1562C55.4688 92.0521 55.4167 92.8281 55.349 93.474C55.2605 94.3646 55.9115 95.1562 56.7969 95.2448Z" fill="white"/>
<path d="M54.6094 109.828C54.5782 110.719 55.2813 111.464 56.1719 111.49C57.0625 111.521 57.8073 110.818 57.8334 109.927L57.8386 109.766V109.755L57.8438 109.599V109.589L57.849 109.438V108.719L57.8438 108.703V108.594C57.8177 107.703 57.0782 107 56.1875 107.021C55.2969 107.047 54.5938 107.792 54.6146 108.682L54.6198 108.781V109.385L54.6146 109.521V109.672V109.667L54.6094 109.828Z" fill="white"/>
<path d="M54.7136 124.37C54.724 125.26 55.4532 125.979 56.3438 125.969C57.2344 125.958 57.9532 125.229 57.9427 124.339C57.9427 124.245 57.9427 124.078 57.9375 123.828C57.9375 123.745 57.9375 123.667 57.9375 123.599V123.604V123.375C57.9375 123.297 57.9375 123.219 57.9375 123.146V123.026C57.9375 122.943 57.9375 122.859 57.9375 122.786C57.9427 121.896 57.224 121.167 56.3334 121.161C55.4427 121.156 54.7136 121.875 54.7084 122.766C54.7084 122.854 54.7084 122.938 54.7084 123.016V123.141C54.7084 123.219 54.7084 123.302 54.7084 123.38V123.62C54.7084 123.708 54.7084 123.786 54.7084 123.854C54.7136 123.948 54.7136 124.12 54.7136 124.37Z" fill="white"/>
<mask id="mask1_1_94" style="mask-type:luminance" maskUnits="userSpaceOnUse" x="239" y="244" width="159" height="227">
<path d="M239.599 244.74H397.599V470.906H239.599V244.74Z" fill="white"/>
</mask>
<g mask="url(#mask1_1_94)">
<path d="M318.047 247.276C318.214 247.354 318.406 247.401 318.604 247.401C318.802 247.401 318.99 247.354 319.161 247.276L369.755 312.896H267.448L318.047 247.276ZM394.682 467.979H242.526V315.823H394.682V467.979ZM396.146 312.896H370.495L319.625 246.911C319.812 246.682 319.932 246.391 319.932 246.073C319.932 245.333 319.339 244.74 318.604 244.74C317.87 244.74 317.276 245.333 317.276 246.073C317.276 246.391 317.391 246.682 317.583 246.917L266.708 312.896H241.062C240.255 312.896 239.599 313.547 239.599 314.359V469.443C239.599 470.25 240.255 470.906 241.062 470.906H396.146C396.953 470.906 397.609 470.25 397.609 469.443V314.359C397.609 313.547 396.953 312.896 396.146 312.896Z" fill="white"/>
</g>
<path d="M380.625 453.927H256.578V329.875H380.625V453.927ZM255.875 326.948H255.115C254.307 326.948 253.651 327.604 253.651 328.411V455.391C253.651 456.198 254.307 456.854 255.115 456.854H382.094C382.901 456.854 383.557 456.198 383.557 455.391V328.411C383.557 327.604 382.901 326.948 382.094 326.948H255.875Z" fill="white"/>
</svg>
